<svg width="94" height="45" viewBox="0 0 94 45" fill="none" xmlns="http://www.w3.org/2000/svg">
<path d="M6.51499 18.2743V26.5181C6.51499 26.5283 6.50972 26.5369 6.50269 26.5436C6.49566 26.5505 6.48688 26.5539 6.47634 26.5539H0.0368972C0.0263551 26.5539 0.0175701 26.5505 0.0105421 26.5436C0.00351402 26.5369 0 26.5283 0 26.5181V0.0406083C0 0.0303781 0.00351402 0.0218529 0.0105421 0.0150328C0.0175701 0.00821264 0.0281122 0.00309753 0.0368972 0.00309753H27.3233C27.3338 0.00309753 27.3426 0.00650761 27.3496 0.0133278C27.3566 0.0201479 27.3602 0.028673 27.3602 0.0389033V26.5164C27.3602 26.5266 27.3566 26.5351 27.3496 26.542C27.3426 26.5488 27.3338 26.5522 27.3233 26.5522H20.817C20.8065 26.5522 20.7977 26.5488 20.7907 26.542C20.7837 26.5351 20.7802 26.5266 20.7802 26.5164V18.2725C20.7802 18.2623 20.7766 18.2538 20.7696 18.247C20.7626 18.2401 20.7538 18.2367 20.7433 18.2367H6.55189C6.54135 18.2367 6.53256 18.2401 6.52553 18.247C6.51851 18.2538 6.51499 18.2623 6.51499 18.2725V18.2743ZM20.7784 6.38334C20.7784 6.38334 20.7749 6.36799 20.7696 6.36287C20.7643 6.35777 20.7556 6.35435 20.7485 6.35435H6.54486C6.54486 6.35435 6.52905 6.35777 6.52378 6.36287C6.51851 6.36799 6.51499 6.37652 6.51499 6.38334V11.865C6.51499 11.865 6.51851 11.8804 6.52378 11.8855C6.52905 11.8906 6.53783 11.894 6.54486 11.894H20.7485C20.7485 11.894 20.7643 11.8906 20.7696 11.8855C20.7749 11.8804 20.7784 11.8718 20.7784 11.865V6.38334Z" fill="white"/>
<path d="M87.4816 9.98588C87.4816 9.98588 87.4799 9.97563 87.4763 9.97222C87.4728 9.9688 87.4693 9.96538 87.464 9.96538C87.4588 9.96538 87.4535 9.96538 87.4482 9.96538C87.443 9.96714 87.4377 9.97056 87.4342 9.97563L78.7704 20.0387C78.7704 20.0387 78.7633 20.0456 78.7598 20.0473C78.7563 20.049 78.751 20.0507 78.7475 20.0507C78.744 20.0507 78.7387 20.0507 78.7335 20.0473C78.7299 20.0456 78.7264 20.0421 78.7229 20.0387L70.0275 10.0115C70.0275 10.0115 70.0222 10.0063 70.0187 10.0046C70.0152 10.0046 70.0117 10.003 70.0064 10.0046C70.0029 10.0046 69.9994 10.0063 69.9959 10.0097C69.9923 10.0115 69.9906 10.0149 69.9888 10.0183C69.9818 10.0353 69.9765 10.0524 69.9783 10.0711C69.98 15.5426 69.98 21.026 69.9783 26.5213C69.9783 26.5298 69.9748 26.5383 69.9677 26.5452C69.9607 26.552 69.9519 26.5554 69.9431 26.5554H63.5336C63.5336 26.5554 63.523 26.5554 63.5178 26.552C63.5125 26.5503 63.509 26.5469 63.5055 26.5435C63.502 26.5401 63.4984 26.5349 63.4967 26.5315C63.4949 26.5264 63.4932 26.5213 63.4932 26.5162V0.038701C63.4932 0.0199455 63.5037 0.00971536 63.523 0.00971536L69.9256 0.00119019C69.9396 0.00119019 69.9519 0.00630529 69.9625 0.0182405L78.7018 10.1632C78.7317 10.1973 78.7598 10.1973 78.7897 10.1632L87.4834 0.0284708C87.4974 0.0114204 87.515 0.00460026 87.5378 0.00460026H93.965C93.965 0.00460026 93.9825 0.00801033 93.9878 0.0148304C93.9931 0.0216506 93.9966 0.0284708 93.9966 0.0369959V26.5315C93.9966 26.5315 93.9966 26.5383 93.9966 26.5417C93.9966 26.5452 93.9931 26.5469 93.9913 26.5503C93.9896 26.552 93.9861 26.5537 93.9826 26.5554C93.979 26.5554 93.9738 26.5571 93.9738 26.5571H87.5097C87.5009 26.5571 87.4922 26.5537 87.4851 26.5469C87.4781 26.5401 87.4746 26.5332 87.4746 26.5248L87.4781 9.9893L87.4816 9.98588Z" fill="white"/>
<path d="M8.78524 34.3303C8.78524 34.3048 8.77118 34.2911 8.74483 34.2911H4.48584C4.47354 34.2911 4.46124 34.2963 4.45245 34.3048C4.44367 34.3133 4.4384 34.3253 4.4384 34.3388V44.8436C4.4384 44.8436 4.43488 44.8555 4.43137 44.8607C4.4261 44.8658 4.41907 44.8675 4.4138 44.8675H0.0265512C0.0265512 44.8675 0.0124951 44.8641 0.00898117 44.8607C0.00371014 44.8555 0.00195312 44.8487 0.00195312 44.8419V30.0064C0.00195312 29.9877 0.0124951 29.9774 0.0318222 29.9774H21.9944C22.0155 29.9774 22.026 29.9877 22.026 30.0081L22.0172 44.8317C22.0172 44.8419 22.0137 44.8504 22.0084 44.8573C22.0032 44.8641 21.9944 44.8675 21.9856 44.8675H17.6809C17.63 44.8675 17.6036 44.8419 17.6036 44.7924V34.3235C17.6036 34.315 17.6001 34.3065 17.5931 34.3013C17.5861 34.2963 17.579 34.2928 17.5702 34.2928H13.2814C13.2638 34.2928 13.255 34.3013 13.255 34.3184V44.8453C13.255 44.8453 13.2515 44.8589 13.248 44.8623C13.2427 44.8674 13.2357 44.8692 13.2304 44.8692C11.8073 44.8692 10.3683 44.8692 8.9135 44.8692C8.8889 44.8692 8.86255 44.8658 8.83971 44.8607C8.82565 44.8573 8.81335 44.8504 8.80457 44.8385C8.79578 44.8283 8.79051 44.8146 8.79051 44.8009V34.3287L8.78524 34.3303Z" fill="white"/>
<path d="M35.0502 35.2152V34.3388C35.0502 34.3269 35.0449 34.3166 35.0379 34.3081C35.0308 34.2996 35.0185 34.2962 35.0062 34.2962H24.0776C24.0653 34.2962 24.0548 34.2911 24.046 34.2843C24.0372 34.2757 24.0337 34.2655 24.0337 34.2536V29.9944C24.0337 29.9944 24.0337 29.9893 24.0372 29.9875C24.0372 29.9875 24.0407 29.9859 24.0443 29.9859L39.4444 29.9756C39.4444 29.9756 39.4567 29.9774 39.4603 29.9825C39.4638 29.9859 39.4673 29.9927 39.4673 29.9978V44.8317C39.4673 44.8418 39.4638 44.8504 39.4567 44.8572C39.4497 44.864 39.4409 44.8674 39.4304 44.8674H24.0513C24.0513 44.8674 24.0407 44.8657 24.0355 44.8606C24.032 44.8572 24.0284 44.8504 24.0284 44.8452C24.0232 41.7608 24.0249 38.6731 24.032 35.5835C24.032 35.4914 24.032 35.4011 24.0355 35.3107C24.0355 35.2749 24.0566 35.2579 24.0917 35.2579H35.0062C35.0361 35.2579 35.0502 35.2442 35.0502 35.2152ZM35.0502 39.1215C35.0502 39.1215 35.0484 39.1095 35.0431 39.1044C35.0379 39.0993 35.0326 39.0976 35.0256 39.0976H28.4719C28.4719 39.0976 28.4596 39.0993 28.4544 39.1044C28.4491 39.1095 28.4473 39.1146 28.4473 39.1215V40.5366C28.4473 40.5366 28.4491 40.5485 28.4544 40.5537C28.4596 40.5588 28.4649 40.5605 28.4719 40.5605H35.0256C35.0256 40.5605 35.0379 40.5588 35.0431 40.5537C35.0484 40.5485 35.0502 40.5435 35.0502 40.5366V39.1215Z" fill="white"/>
<path d="M45.3604 34.2997C45.3516 34.2997 45.3428 34.3065 45.3375 34.3116C45.3322 34.3184 45.3287 34.3269 45.3287 34.3355V44.8317C45.3287 44.8402 45.3252 44.8504 45.3182 44.8573C45.3112 44.8641 45.3024 44.8675 45.2918 44.8675H40.9274C40.9081 44.8675 40.8975 44.8573 40.8975 44.8385V30.0081C40.8975 29.9877 40.9081 29.9774 40.9292 29.9774C44.7595 29.9808 48.6073 29.9791 52.4692 29.974C52.7697 29.974 53.0315 29.9791 53.2563 29.9928C53.2774 29.9928 53.288 30.0047 53.288 30.0234L53.2933 34.2554C53.2933 34.2554 53.2932 34.2639 53.2915 34.2689C53.2897 34.2724 53.288 34.2775 53.2845 34.281C53.2809 34.2844 53.2774 34.2878 53.2722 34.2878C53.2669 34.2894 53.2634 34.2911 53.2581 34.2911C50.6612 34.2911 48.0591 34.2911 45.45 34.2945C45.4201 34.2945 45.3902 34.2963 45.3604 34.3014V34.2997Z" fill="white"/>
<path d="M59.171 29.9774H54.8453C54.8294 29.9774 54.8154 29.9911 54.8154 30.0064V44.8385C54.8154 44.8538 54.8294 44.8675 54.8453 44.8675H59.171C59.1868 44.8675 59.2009 44.8555 59.2009 44.8385V30.0064C59.2009 29.9911 59.1868 29.9774 59.171 29.9774Z" fill="white"/>
<path d="M66.1531 34.2979C66.1373 34.2979 66.1215 34.3048 66.1109 34.315C66.1004 34.3253 66.0933 34.3406 66.0933 34.3559V44.8299C66.0933 44.8402 66.0898 44.8504 66.081 44.8573C66.074 44.8641 66.0635 44.8692 66.0529 44.8692H61.7061C61.7061 44.8692 61.6991 44.8692 61.6955 44.8675C61.692 44.8675 61.6885 44.8641 61.6868 44.8623C61.685 44.8607 61.6832 44.8573 61.6815 44.8538C61.6815 44.8504 61.6797 44.847 61.6797 44.8436C61.6797 39.9212 61.6797 34.9987 61.6797 30.0746C61.6797 30.0524 61.6832 30.0302 61.6903 30.0098C61.692 30.003 61.6955 29.9978 61.7008 29.9944C61.7061 29.9911 61.7131 29.9893 61.7184 29.9893L77.0957 29.9774C77.1168 29.9774 77.1274 29.9877 77.1274 30.0081V44.8351C77.1274 44.8436 77.1238 44.8521 77.1168 44.8589C77.1098 44.8658 77.101 44.8692 77.0922 44.8692H72.7366C72.7366 44.8692 72.7243 44.8658 72.719 44.8623C72.7138 44.8573 72.712 44.8521 72.712 44.8453V34.3167C72.712 34.3167 72.7102 34.3082 72.7067 34.3048C72.7032 34.3013 72.6979 34.2997 72.6944 34.2997H66.1548L66.1531 34.2979Z" fill="white"/>
<path d="M82.9128 40.5622H93.866C93.8748 40.5622 93.8836 40.5657 93.8906 40.5725C93.8976 40.5793 93.9011 40.5878 93.9011 40.5963V44.8334C93.9011 44.8419 93.8994 44.8504 93.8923 44.8573C93.8853 44.8641 93.8765 44.8674 93.8677 44.8674H78.4922C78.4834 44.8674 78.4728 44.8641 78.4676 44.8573C78.4605 44.8504 78.457 44.8419 78.457 44.8334V30.0133C78.457 30.0047 78.4605 29.9962 78.4676 29.9893C78.4746 29.9825 78.4834 29.9791 78.4922 29.9791H93.8677C93.8765 29.9791 93.8853 29.9825 93.8923 29.9893C93.8994 29.9962 93.9029 30.0047 93.9029 30.0133V39.5597C93.9029 39.5682 93.8994 39.5768 93.8923 39.5836C93.8853 39.5903 93.8765 39.5938 93.8677 39.5938H82.9163C82.9075 39.5938 82.897 39.5989 82.8917 39.604C82.8847 39.6108 82.8812 39.6193 82.8812 39.6279L82.8777 40.5264C82.8777 40.535 82.8812 40.5435 82.8882 40.5503C82.8952 40.5572 82.904 40.5606 82.9128 40.5606V40.5622ZM89.4893 34.3269C89.4893 34.3269 89.4858 34.3116 89.4805 34.3065C89.4752 34.3013 89.4664 34.2979 89.4594 34.2979H82.911C82.911 34.2979 82.8952 34.3013 82.89 34.3065C82.8847 34.3116 82.8812 34.3201 82.8812 34.3269V35.7166C82.8812 35.7166 82.8847 35.7319 82.89 35.737C82.8952 35.7422 82.904 35.7455 82.911 35.7455H89.4594C89.4594 35.7455 89.4752 35.7422 89.4805 35.737C89.4858 35.7319 89.4893 35.7233 89.4893 35.7166V34.3269Z" fill="white"/>
<path d="M54.8173 14.5485V12.1189C54.8173 12.1189 54.8155 12.1103 54.812 12.107C54.8085 12.1035 54.805 12.1018 54.8015 12.1001L52.8389 11.8273C52.8389 11.8273 52.8301 11.8256 52.8266 11.8222C52.8231 11.8188 52.8213 11.8153 52.8195 11.8119C52.5753 10.9236 52.2134 10.0729 51.7302 9.26122C51.7267 9.2544 51.7232 9.24587 51.7249 9.23735C51.7249 9.22882 51.7284 9.22201 51.7337 9.21518L52.8898 7.69429C52.8986 7.68236 52.9039 7.66701 52.9021 7.65166C52.9021 7.63632 52.8933 7.62268 52.8828 7.61245L51.1205 5.93129C51.1205 5.93129 51.1152 5.92787 51.1117 5.92787C51.1082 5.92787 51.1047 5.92787 51.1012 5.93129L49.5304 7.06513C49.5216 7.07196 49.5093 7.07536 49.4988 7.07707C49.4865 7.07707 49.476 7.07536 49.4654 7.07025C48.6502 6.63206 47.7822 6.28081 46.8598 6.01995C46.8527 6.01824 46.8457 6.01483 46.8422 6.00972C46.8369 6.0046 46.8352 5.99778 46.8334 5.99096L46.5576 4.11372C46.5576 4.10348 46.5505 4.09667 46.5435 4.08985C46.5365 4.08303 46.5259 4.07961 46.5172 4.07961H44.0363C44.0257 4.07961 44.0152 4.08303 44.0064 4.08985C43.9976 4.09667 43.9923 4.1069 43.9906 4.11712L43.7165 5.98244C43.7165 5.98244 43.7112 5.99778 43.7059 6.0046C43.7007 6.01142 43.6936 6.01483 43.6849 6.01824C43.3458 6.11543 43.1033 6.18875 42.9539 6.23819C42.2915 6.46325 41.6643 6.74118 41.0722 7.07366C41.0634 7.07877 41.0546 7.08048 41.0441 7.08048C41.0335 7.08048 41.0247 7.07707 41.0177 7.07025L39.4628 5.9347C39.4628 5.9347 39.4522 5.92958 39.4469 5.92958C39.4417 5.92958 39.4347 5.93299 39.4311 5.9364L37.653 7.66189C37.653 7.66189 37.6425 7.67724 37.6407 7.68576C37.6407 7.69429 37.6425 7.70452 37.6478 7.71134L38.8021 9.21347C38.8092 9.22371 38.8144 9.23565 38.8144 9.24758C38.8144 9.25952 38.8127 9.27145 38.8056 9.28339C38.3471 10.0796 37.9904 10.9134 37.7339 11.7847C37.7251 11.8153 37.704 11.8341 37.6706 11.8375C37.1172 11.916 36.5373 11.9978 35.9294 12.083C35.8539 12.0933 35.766 12.0848 35.6641 12.0575C34.3815 11.7114 33.1059 11.3704 31.8373 11.0327C31.8268 11.0293 31.8163 11.0243 31.811 11.014C31.804 11.0055 31.8004 10.9953 31.8004 10.9833V0.0182226C31.8004 0.0182226 31.8004 0.0114024 31.804 0.00799234C31.8075 0.00458228 31.811 0.00287725 31.8145 0.00287725C38.8513 -0.00223786 45.8899 -0.000532823 52.925 0.00799234C53.0198 0.00799234 53.0813 0.0676686 53.1516 0.12564C55.1757 1.81363 57.1963 3.49308 59.2115 5.16913C59.2221 5.17766 59.2309 5.18789 59.2361 5.19983C59.2414 5.21176 59.2449 5.2237 59.2449 5.23734C59.2502 5.40613 59.2537 5.563 59.2537 5.70451C59.2537 10.9475 59.2537 16.0882 59.2537 21.1232C59.2537 21.2067 59.2484 21.2834 59.2379 21.3516C59.2361 21.367 59.2291 21.3789 59.2168 21.3891L53.0163 26.5469C53.0075 26.5537 52.9952 26.5588 52.9847 26.5588L31.8233 26.5554C31.8057 26.5554 31.7969 26.5469 31.7969 26.5298V15.5222C31.7969 15.5119 31.8004 15.5033 31.8057 15.4966C31.8127 15.4897 31.8198 15.4846 31.8303 15.4829C33.2184 15.1965 34.5273 14.9237 35.7555 14.6611C35.8609 14.6389 35.9839 14.6389 36.1016 14.656C36.6357 14.7344 37.1699 14.8094 37.704 14.881C37.7075 14.881 37.711 14.8827 37.7145 14.8861C37.7181 14.8879 37.7198 14.8913 37.7216 14.8963C38.0027 15.7796 38.3664 16.6287 38.8109 17.4419C38.8162 17.4505 38.8179 17.459 38.8162 17.4693C38.8162 17.4778 38.8127 17.488 38.8056 17.4949L37.6337 18.9662C37.6337 18.9662 37.6284 18.9765 37.6284 18.9817C37.6284 18.9867 37.632 18.9918 37.6355 18.9952L39.4065 20.7139C39.4065 20.7139 39.4259 20.7259 39.4382 20.7276C39.4505 20.7276 39.461 20.7259 39.4698 20.7191L41.0089 19.6057C41.0212 19.5971 41.0353 19.592 41.0511 19.5903C41.0652 19.5903 41.081 19.592 41.0933 19.6005C41.8997 20.037 42.7624 20.3849 43.6796 20.6423C43.6901 20.6458 43.6989 20.6508 43.7077 20.6593C43.7147 20.6679 43.72 20.6764 43.7218 20.6883L43.9976 22.5605C43.9976 22.5605 44.0029 22.5741 44.0081 22.5776C44.0134 22.5826 44.0204 22.5844 44.0275 22.5844H46.5523C46.5523 22.5844 46.5628 22.5826 46.5681 22.5792C46.5716 22.5758 46.5751 22.5707 46.5751 22.5657L46.851 20.6986C46.8527 20.6849 46.8598 20.673 46.8686 20.6628C46.8773 20.6526 46.8896 20.6458 46.9037 20.6423C47.8068 20.4002 48.666 20.0541 49.4847 19.6023C49.497 19.5955 49.5111 19.592 49.5234 19.5937C49.5375 19.5937 49.5498 19.5989 49.5603 19.6074L51.0994 20.7207C51.1258 20.7395 51.1486 20.7378 51.1715 20.7157L52.932 19.0072C52.932 19.0072 52.9408 18.9936 52.9425 18.9867C52.9443 18.9799 52.9425 18.9714 52.9355 18.9646L51.7689 17.4488C51.7548 17.4318 51.7548 17.4129 51.7653 17.3942C52.2257 16.5997 52.5753 15.7642 52.8108 14.8879C52.8125 14.881 52.8178 14.8742 52.8231 14.8691C52.8283 14.8639 52.8354 14.8605 52.8441 14.8605L54.7786 14.5912C54.8015 14.5877 54.812 14.5758 54.812 14.5537L54.8173 14.5485Z" fill="white"/>
<path d="M45.4784 16.3814C47.2425 16.3814 48.6727 14.9936 48.6727 13.2816C48.6727 11.5698 47.2425 10.1819 45.4784 10.1819C43.7144 10.1819 42.2842 11.5698 42.2842 13.2816C42.2842 14.9936 43.7144 16.3814 45.4784 16.3814Z" fill="white"/>
</svg>
