<svg width="234" height="26" viewBox="0 0 234 26" fill="none" xmlns="http://www.w3.org/2000/svg">
<path d="M18.4617 24.8147C18.067 24.4535 17.7799 24.0201 17.5646 23.5144L8.34182 0L0.554515 19.8301C0.267425 20.4803 0.0879937 21.2027 0.0162213 21.9251C-0.0914374 23.3699 0.339197 24.7786 1.23635 25.8622C1.41578 26.115 1.84642 26.0067 2.16939 25.6455C2.20528 25.6094 2.24116 25.5371 2.27705 25.501L2.4206 25.3204L2.45648 25.2843L2.60003 25.1037C2.63591 25.0314 2.6718 24.9953 2.70768 24.9231C2.95889 24.5257 3.03066 24.1645 2.88712 24.0562C1.95407 23.6227 1.27224 22.8281 0.949263 21.8528C0.769832 21.2749 0.805718 20.6247 1.02104 20.0468C1.02104 20.0468 1.02104 20.0468 1.02104 20.0107L2.38471 16.507C2.56414 16.3264 3.67661 15.2067 6.29631 15.2789C7.98296 15.315 9.63373 14.8455 10.9974 13.9064L14.5143 22.8281C14.8731 23.695 14.6578 24.6702 13.976 25.3204H19L18.4617 24.8147ZM6.29631 14.7371C5.07618 14.6649 3.85604 14.9538 2.77946 15.5679L7.22935 4.26222L10.818 13.4007C9.49018 14.3037 7.91119 14.7732 6.29631 14.7371Z" fill="white"/>
<path d="M41 22.2539L39.95 23.3951C39.2983 24.1084 38.3569 24.5007 37.3793 24.5007H23.8379V2.6391C23.8379 1.67619 24.2362 0.748933 24.9603 0.106992L25.069 0H20L20.1086 0.106992C20.7966 0.748933 21.231 1.67619 21.231 2.6391V22.3966C21.231 23.3595 20.7966 24.2511 20.1086 24.9287L20 25H41V22.2539Z" fill="white"/>
<path d="M55.2511 24.5007H45.9345V12.7675H49.9061C50.9083 12.7675 51.8734 13.1598 52.5415 13.8731L53.655 15.0142V10.0214L52.5415 11.1626C51.8734 11.8403 50.9083 12.2682 49.9061 12.2682H45.9345V0.534951H55.2511C56.2533 0.534951 57.2183 0.92725 57.8865 1.64052L59 2.78175V0H42L42.0742 0.106992C42.8166 0.748933 43.2249 1.67619 43.2249 2.6391V22.3966C43.2249 23.3595 42.8166 24.2867 42.0742 24.9287L42 25H59V22.2539L57.8865 23.3951C57.2183 24.1084 56.2533 24.5007 55.2511 24.5007Z" fill="white"/>
<path d="M81 24.9644L80.4035 24.6439C79.807 24.2877 79.3158 23.8248 78.9298 23.2906L70.8947 11.5385L77.0702 2.52849C77.6667 1.60257 78.5088 0.890315 79.4561 0.356126L80.1228 0H76.8246C77.1754 0.712252 77.1053 1.53133 76.6842 2.20797L70.5789 11.0755L64.0877 1.63819C63.7719 1.1396 63.7018 0.534189 63.9123 0H59L59.5965 0.356126C60.193 0.712252 60.6842 1.1396 61.0702 1.7094L69.0351 13.3547L62.7544 22.4715C62.1579 23.3618 61.3509 24.1097 60.3684 24.6083L59.7368 24.9644H63C62.6491 24.2877 62.7193 23.433 63.1754 22.792L69.3509 13.7821L75.9123 23.3618C76.2281 23.8604 76.2983 24.4302 76.0877 25L81 24.9644Z" fill="white"/>
<path d="M95.2511 24.5007H85.9345V12.7675H89.9061C90.9083 12.7675 91.8734 13.1598 92.5415 13.8731L93.655 15.0142V10.0214L92.5415 11.1626C91.8734 11.8403 90.9083 12.2682 89.9061 12.2682H85.9345V0.534951H95.2511C96.2533 0.534951 97.2183 0.92725 97.8865 1.64052L99 2.78175V0H82L82.0742 0.106992C82.8166 0.748933 83.2249 1.67619 83.2249 2.6391V22.3966C83.2249 23.3595 82.8166 24.2867 82.0742 24.9287L82 25H99V22.2539L97.8865 23.3951C97.2183 24.1084 96.2533 24.5007 95.2511 24.5007Z" fill="white"/>
<path d="M103.786 22.3966V2.6391C103.786 1.67619 104.179 0.748933 104.893 0.106992L105 0H100L100.071 0.106992C100.786 0.748933 101.179 1.67619 101.179 2.6391V22.3966C101.179 23.3595 100.786 24.2867 100.071 24.9287L100 25H105L104.893 24.9287C104.179 24.2867 103.786 23.3595 103.786 22.3966Z" fill="white"/>
<path d="M152.649 0C153.153 0.748933 153.225 1.67619 152.865 2.49644L143.82 21.398L137.261 7.63197L139.748 2.38945C140.144 1.60486 140.757 0.92725 141.513 0.463626L142.27 0H138.919C139.423 0.748933 139.531 1.67619 139.135 2.46078L136.973 7.0257L134.558 1.99716C134.27 1.35522 134.306 0.606279 134.703 0H129.658L130.162 0.356634C130.847 0.784596 131.423 1.42654 131.784 2.17547L135.531 10.0571L130.126 21.398L120.865 2.03281C120.577 1.39086 120.613 0.641943 121.009 0.0356634L121.045 0H116L116.432 0.320971C117.117 0.748933 117.658 1.39086 118.018 2.13981L128.973 25L130.414 22.0043L135.82 10.6277L142.667 25L153.081 3.20971C153.73 1.89017 154.739 0.748933 156 0H152.649Z" fill="white"/>
<path d="M169.251 24.5007H159.934V12.7675H163.906C164.908 12.7675 165.873 13.1598 166.541 13.8731L167.655 15.0142V10.0214L166.541 11.1626C165.873 11.8403 164.908 12.2682 163.906 12.2682H159.934V0.534951H169.251C170.253 0.534951 171.218 0.92725 171.886 1.64052L173 2.78175V0H156L156.074 0.106992C156.817 0.748933 157.225 1.67619 157.225 2.6391V22.3966C157.225 23.3595 156.817 24.2867 156.074 24.9287L156 25H173V22.2539L171.886 23.3951C171.218 24.1084 170.253 24.5007 169.251 24.5007Z" fill="white"/>
<path d="M195 22.2539L193.95 23.3951C193.298 24.1084 192.357 24.5007 191.379 24.5007H177.838V2.6391C177.838 1.67619 178.236 0.748933 178.96 0.106992L179.069 0H174L174.109 0.106992C174.797 0.748933 175.231 1.67619 175.231 2.6391V22.3966C175.231 23.3595 174.797 24.2511 174.109 24.9287L174 25H195V22.2539Z" fill="white"/>
<path d="M217 22.2539L215.95 23.3951C215.298 24.1084 214.357 24.5007 213.379 24.5007H199.838V2.6391C199.838 1.67619 200.236 0.748933 200.96 0.106992L201.069 0H196L196.109 0.106992C196.797 0.748933 197.231 1.67619 197.231 2.6391V22.3966C197.231 23.3595 196.797 24.2511 196.109 24.9287L196 25H217V22.2539Z" fill="white"/>
<path d="M233.967 18.1833C233.896 17.7198 233.79 17.2563 233.648 16.8284C233.542 16.5789 233.435 16.3649 233.329 16.151C233.187 15.9014 233.045 15.6519 232.868 15.4379C232.088 14.5823 231.201 13.9049 230.208 13.3344L229.463 12.9066C229.215 12.764 228.896 12.6214 228.612 12.4431C228.045 12.1579 227.442 11.8726 226.804 11.5518C225.527 10.9456 224.463 10.4108 223.577 9.87604C222.797 9.44819 222.123 8.91339 221.484 8.30728C220.421 7.23768 220.101 6.16807 220.172 5.06281C220.243 3.88624 220.811 2.78098 221.697 2.03224C222.655 1.14091 224.18 0.534803 226.272 0.534803C227.158 0.534803 228.009 0.784379 228.754 1.28353C229.995 2.10357 230.917 3.31579 231.378 4.74193C231.449 5.02716 231.839 5.09846 232.3 4.95585C232.584 4.88454 232.868 4.77758 233.151 4.63497C233.329 4.52801 233.471 4.38539 233.542 4.20712C233.612 3.9932 233.577 3.77928 233.471 3.60101C232.939 2.85228 232.3 2.17487 231.556 1.60442C230.846 1.06961 230.031 0.641765 229.144 0.392189C228.222 0.142616 227.265 0 226.272 0C224.109 0 222.442 0.499149 221.165 1.35484C219.96 2.13922 219.073 3.35142 218.648 4.77758C218.435 5.56196 218.399 6.38199 218.541 7.20202C218.754 8.16467 219.179 9.02035 219.782 9.76908C220.492 10.6604 221.307 11.4091 222.265 11.9796C223.364 12.6927 224.499 13.3344 225.704 13.8692C226.981 14.511 228.045 15.0101 229.002 15.5449C229.783 15.9014 230.527 16.3649 231.166 16.9354C231.272 17.0424 231.378 17.1493 231.485 17.2919C231.556 17.3989 231.662 17.5415 231.733 17.6841C231.875 17.9337 231.981 18.2189 232.088 18.5041C232.229 19.0746 232.3 19.6451 232.229 20.1799C232.088 21.3564 231.485 22.3904 230.563 23.1035C229.96 23.5313 229.322 23.8522 228.612 24.0661C227.761 24.3513 226.875 24.4939 225.953 24.4939C225.917 24.4939 225.882 24.4939 225.846 24.4939C224.96 24.4939 224.073 24.28 223.258 23.8522C221.91 23.1748 220.775 22.1408 219.995 20.8216C219.853 20.6077 219.463 20.6077 219.038 20.8216C218.789 20.9642 218.541 21.1069 218.293 21.3208C218.151 21.4277 218.009 21.606 218.009 21.8199C217.974 22.0338 218.045 22.2478 218.151 22.3904C219.499 23.6026 221.165 24.4226 222.974 24.7792C223.931 24.9218 224.889 25.0287 225.846 24.9931C226.059 24.9931 226.307 24.9931 226.52 24.9931C226.626 24.9931 226.697 24.9574 226.804 24.9574H226.91C227.513 24.9218 228.116 24.8148 228.719 24.6722C229.499 24.4939 230.244 24.2087 230.953 23.8165C233.045 22.7469 234.215 20.5007 233.967 18.1833Z" fill="white"/>
</svg>
