<svg width="180" height="32" viewBox="0 0 180 32" fill="none" xmlns="http://www.w3.org/2000/svg">
<path fill-rule="evenodd" clip-rule="evenodd" d="M87.1043 0.167445H92.4342V17.4276H87.1043V0.167445ZM158.474 0.167445H179.939L179.95 4.33466L158.474 4.33047V0.167445ZM158.474 7.12257H179.964L179.98 10.5436H163.779L163.794 13.3106H179.984L180 17.4276H158.474V7.12257ZM136.529 17.4276L136.483 4.43198H126.427L126.407 0.167445H151.767L151.787 4.43198H141.726L141.772 17.4276H136.529ZM99.5724 13.8234H99.5871H99.6028H113.357C114.061 13.7627 114.542 13.6204 114.811 13.4833C115.231 13.2645 115.439 12.869 115.439 12.3059C115.439 11.5493 115.14 11.0721 114.547 10.8743C114.197 10.7571 113.61 10.6912 112.79 10.6859C112.632 10.6859 112.125 10.6807 111.275 10.6713H106.533C105.247 10.6713 104.132 10.6305 103.189 10.5488C101.664 10.4222 100.58 9.93454 99.9419 9.0921C99.3851 8.34593 99.1015 7.16756 99.0963 5.55907C99.0858 3.96419 99.3495 2.79734 99.8759 2.04594C100.251 1.51222 100.783 1.1114 101.472 0.831982C102.48 0.436401 104.025 0.197801 106.107 0.110941C106.574 0.0962896 107.157 0.0805899 107.845 0.0711713H119.669H119.704L119.72 3.77687H119.704H108.767C107.693 3.79152 106.797 3.8271 106.107 3.87314C105.292 3.93384 104.769 4.10129 104.547 4.37547C104.35 4.62454 104.259 4.92908 104.259 5.29431C104.263 6.01535 104.639 6.47269 105.388 6.66524C105.596 6.72071 106.295 6.76152 107.49 6.79187H112.374C113.225 6.79187 114.451 6.83268 116.037 6.91954C117.865 7.01059 119.112 7.52862 119.77 8.46734C120.337 9.27943 120.621 10.4578 120.631 12.0108C120.637 13.9458 120.216 15.3209 119.36 16.1383C118.716 16.7526 117.623 17.144 116.082 17.3009C115.292 17.3826 114.385 17.4841 113.357 17.5249H99.5871L99.5724 13.8234ZM68.7004 4.21849C66.5519 4.21849 65.1485 4.26873 64.485 4.37024C63.4866 4.52303 62.8535 4.89873 62.5804 5.50257C62.3418 6.02583 62.2203 7.09222 62.2308 8.70071C62.236 10.4222 62.3574 11.5388 62.595 12.0412C62.8995 12.6963 63.5881 13.0971 64.6577 13.2551C65.2605 13.3357 66.5728 13.3765 68.5884 13.3765C71.122 13.3765 72.697 13.3001 73.3207 13.1536C74.0344 12.9652 74.521 12.6408 74.7795 12.1688C74.9972 11.7827 75.1343 11.1935 75.1898 10.4013C75.2097 10.0308 75.2201 9.43745 75.2201 8.5992C75.2149 6.95513 75.0883 5.88873 74.8549 5.40106C74.6979 5.09129 74.5053 4.86838 74.2573 4.73652C73.8063 4.49268 73.2286 4.34512 72.5295 4.30431C71.572 4.24361 70.2963 4.21849 68.7004 4.21849ZM68.2441 7.62939e-06C72.3726 7.62939e-06 74.9313 0.0858204 75.9244 0.263727C77.3581 0.527448 78.4015 1.0507 79.0598 1.8471C79.6929 2.59431 80.099 3.60419 80.2706 4.87361C80.3721 5.59884 80.4276 6.99489 80.438 9.07222C80.4485 11.6299 80.235 13.4069 79.7997 14.3969C79.3737 15.367 78.7709 16.0723 77.9808 16.5087C77.3424 16.8698 76.679 17.123 75.9903 17.2601C75.3007 17.4025 74.2824 17.4893 72.9398 17.5291C71.729 17.5751 70.2963 17.595 68.6491 17.595C64.8345 17.595 62.4234 17.504 61.4302 17.3166C60.0823 17.0676 59.0898 16.605 58.4514 15.9405C57.8182 15.2759 57.3825 14.3309 57.1394 13.1076C56.9975 12.3614 56.9165 10.889 56.9114 8.69129C56.9064 7.2335 56.9215 6.21315 56.962 5.63966C57.0026 5.06094 57.0988 4.48745 57.2559 3.91396C57.5649 2.73559 58.1526 1.8471 59.0138 1.25373C59.941 0.618494 61.4909 0.228148 63.675 0.0858224C64.6012 0.0303572 66.127 7.62939e-06 68.2441 7.62939e-06ZM50.1788 4.27919H37.1591C36.1712 4.27919 35.462 4.34512 35.0314 4.48221C34.1955 4.74175 33.7041 5.39058 33.5571 6.43186C33.4761 7.01582 33.4356 7.7871 33.4407 8.76245C33.4457 10.0005 33.542 10.9245 33.7345 11.5336C33.9676 12.2651 34.4437 12.7423 35.1681 12.9506C35.6342 13.0877 36.2827 13.1536 37.1033 13.1536H45.5889L45.5839 9.92931L37.8127 7.13199L50.1788 7.12257V17.4276H36.3536C34.8186 17.4276 33.542 17.3313 32.5085 17.144C30.9228 16.8645 29.778 16.1027 29.0788 14.8542C28.7444 14.2598 28.5165 13.5084 28.4 12.6052C28.2531 11.5137 28.1771 10.2391 28.172 8.78757C28.167 7.03571 28.2429 5.58942 28.4102 4.45187C28.5621 3.35512 29.018 2.4164 29.7678 1.62943C30.3808 0.999425 31.1306 0.593383 32.0222 0.415476C32.8429 0.248034 34.0384 0.167445 35.6038 0.167445H50.1939L50.1788 4.27919ZM0 0.167445H21.4647L21.4747 4.33466L0 4.33047V0.167445ZM0 7.12257H21.49L21.5052 10.5436H5.30414L5.31419 13.3106H21.5102L21.5254 17.4276H0V7.12257Z" fill="white"/>
<path d="M29.7783 31.0991H33.5018C35.2243 31.0991 36.354 30.2975 36.354 29.0689V28.9726C36.354 28.1605 35.8525 27.4845 34.9254 27.1548C35.6498 26.7645 35.974 26.2663 35.974 25.6112V25.5359C35.974 24.459 34.8342 23.6971 33.1726 23.6971H29.7783V31.0991ZM31.5463 26.7645V25.0838H33.1118C33.7754 25.0838 34.1655 25.3883 34.1655 25.8551V25.9262C34.1655 26.4233 33.7399 26.7645 33.0865 26.7645H31.5463ZM31.5463 29.7031V27.9366H33.36C34.0591 27.9366 34.5252 28.2871 34.5252 28.8052V28.8711C34.5252 29.3734 34.0743 29.7031 33.3853 29.7031H31.5463ZM41.3491 31.0991H43.3298L43.8922 29.5566H46.952L47.4992 31.0991H49.4648L46.6076 23.6971H44.2316L41.3491 31.0991ZM44.3177 28.2359L45.3511 25.4082H45.4677L46.5113 28.2359H44.3177ZM55.0373 31.0991H56.8409V25.0733H58.1226C59.0598 25.0733 59.5461 25.4438 59.5461 26.0884V26.17C59.5461 26.8147 59.0699 27.2511 58.1074 27.2511H57.4387L58.305 28.6827L59.7843 31.0991H61.9318L59.9465 28.1291C60.8382 27.7796 61.3855 27.0282 61.3855 26.1188V26.0131C61.3855 24.5762 60.2553 23.6971 58.381 23.6971H55.0373V31.0991ZM67.7378 31.0991H71.4613C73.1839 31.0991 74.3089 30.2975 74.3089 29.0689V28.9726C74.3089 28.1605 73.8118 27.4845 72.8846 27.1548C73.6098 26.7645 73.929 26.2663 73.929 25.6112V25.5359C73.929 24.459 72.7935 23.6971 71.1316 23.6971H67.7378V31.0991ZM69.5054 26.7645V25.0838H71.071C71.7344 25.0838 72.1248 25.3883 72.1248 25.8551V25.9262C72.1248 26.4233 71.6999 26.7645 71.0458 26.7645H69.5054ZM69.5054 29.7031V27.9366H71.32C72.0191 27.9366 72.4848 28.2871 72.4848 28.8052V28.8711C72.4848 29.3734 72.0337 29.7031 71.3451 29.7031H69.5054ZM80.4027 31.0991H85.7776V29.6623H82.2519V28.0632H85.4228V26.7027H82.2519V25.134H85.6562V23.6971H80.4027V31.0991ZM107.354 31.2268C109.147 31.2268 110.525 30.4042 110.525 28.9423C110.525 27.475 109.067 26.9874 107.592 26.6368C106.681 26.4233 105.955 26.2559 105.955 25.7389C105.955 25.3276 106.361 25.0628 107.034 25.0628C107.733 25.0628 108.635 25.3171 109.244 25.7787L110.171 24.4695C109.315 23.875 108.256 23.56 107 23.56C105.54 23.56 104.152 24.3114 104.152 25.7692C104.152 27.2919 105.697 27.7492 107.06 28.0841C107.926 28.2976 108.676 28.4745 108.676 29.0176C108.676 29.4498 108.236 29.7135 107.45 29.7135C106.599 29.7135 105.586 29.4393 104.867 28.8805L103.975 30.2012C104.887 30.8762 106.062 31.2268 107.354 31.2268ZM116.508 31.0991H118.363V28.0632H121.493V31.0991H123.358V23.6971H121.493V26.6274H118.363V23.6971H116.508V31.0991ZM129.446 27.4395C129.446 29.5869 131.179 31.2362 133.576 31.2362H133.697C136.103 31.2362 137.836 29.6173 137.836 27.4489V27.3474C137.836 25.18 136.103 23.5506 133.697 23.5506H133.576C131.154 23.5506 129.446 25.1801 129.446 27.3578V27.4395ZM131.367 27.4395V27.3578C131.367 25.9513 132.33 24.9969 133.585 24.9969H133.682C134.964 24.9969 135.916 25.9513 135.916 27.3578V27.4395C135.916 28.8449 134.964 29.7994 133.697 29.7994H133.601C132.33 29.7994 131.367 28.8449 131.367 27.4395ZM143.925 31.0991H145.779V28.7644H147.072C148.921 28.7644 150.166 27.7691 150.166 26.2559V26.17C150.166 24.6924 148.921 23.6971 147.072 23.6971H143.925V31.0991ZM145.719 27.4646V25.1141H146.955C147.832 25.1141 148.317 25.5453 148.317 26.2161V26.2873C148.317 26.9675 147.796 27.4646 146.904 27.4646H145.719Z" fill="white"/>
<path d="M92.0186 31.0993H93.8269V25.0735H95.1037C96.0466 25.0735 96.5322 25.444 96.5322 26.0886V26.1702C96.5322 26.8149 96.056 27.2513 95.0942 27.2513H94.4255L95.291 28.6829L96.7655 31.0993H98.914L96.933 28.1293C97.8246 27.7798 98.3719 27.0284 98.3719 26.119V26.0133C98.3719 24.5764 97.2417 23.6973 95.3674 23.6973H92.0186V31.0993Z" fill="white"/>
</svg>
