<svg width="114" height="58" viewBox="0 0 114 58" fill="none" xmlns="http://www.w3.org/2000/svg">
<path d="M29.7408 53.0657V42.5657H33.6708C34.5608 42.5657 35.3258 42.7107 35.9658 43.0007C36.6058 43.2807 37.0958 43.6907 37.4358 44.2307C37.7858 44.7607 37.9608 45.4057 37.9608 46.1657C37.9608 46.9057 37.7858 47.5457 37.4358 48.0857C37.0958 48.6157 36.6058 49.0257 35.9658 49.3157C35.3258 49.6057 34.5608 49.7507 33.6708 49.7507H30.3558L30.8508 49.2257V53.0657H29.7408ZM30.8508 49.3157L30.3558 48.7757H33.6408C34.6908 48.7757 35.4858 48.5507 36.0258 48.1007C36.5758 47.6407 36.8508 46.9957 36.8508 46.1657C36.8508 45.3257 36.5758 44.6757 36.0258 44.2157C35.4858 43.7557 34.6908 43.5257 33.6408 43.5257H30.3558L30.8508 43.0007V49.3157ZM44.9976 53.0657V51.3257L44.9526 51.0407V48.1307C44.9526 47.4607 44.7626 46.9457 44.3826 46.5857C44.0126 46.2257 43.4576 46.0457 42.7176 46.0457C42.2076 46.0457 41.7226 46.1307 41.2626 46.3007C40.8026 46.4707 40.4126 46.6957 40.0926 46.9757L39.6126 46.1807C40.0126 45.8407 40.4926 45.5807 41.0526 45.4007C41.6126 45.2107 42.2026 45.1157 42.8226 45.1157C43.8426 45.1157 44.6276 45.3707 45.1776 45.8807C45.7376 46.3807 46.0176 47.1457 46.0176 48.1757V53.0657H44.9976ZM42.2826 53.1407C41.6926 53.1407 41.1776 53.0457 40.7376 52.8557C40.3076 52.6557 39.9776 52.3857 39.7476 52.0457C39.5176 51.6957 39.4026 51.2957 39.4026 50.8457C39.4026 50.4357 39.4976 50.0657 39.6876 49.7357C39.8876 49.3957 40.2076 49.1257 40.6476 48.9257C41.0976 48.7157 41.6976 48.6107 42.4476 48.6107H45.1626V49.4057H42.4776C41.7176 49.4057 41.1876 49.5407 40.8876 49.8107C40.5976 50.0807 40.4526 50.4157 40.4526 50.8157C40.4526 51.2657 40.6276 51.6257 40.9776 51.8957C41.3276 52.1657 41.8176 52.3007 42.4476 52.3007C43.0476 52.3007 43.5626 52.1657 43.9926 51.8957C44.4326 51.6157 44.7526 51.2157 44.9526 50.6957L45.1926 51.4307C44.9926 51.9507 44.6426 52.3657 44.1426 52.6757C43.6526 52.9857 43.0326 53.1407 42.2826 53.1407ZM48.9103 53.0657V45.1907H49.9303V47.3357L49.8253 46.9607C50.0453 46.3607 50.4153 45.9057 50.9353 45.5957C51.4553 45.2757 52.1003 45.1157 52.8703 45.1157V46.1507C52.8303 46.1507 52.7903 46.1507 52.7503 46.1507C52.7103 46.1407 52.6703 46.1357 52.6303 46.1357C51.8003 46.1357 51.1503 46.3907 50.6803 46.9007C50.2103 47.4007 49.9753 48.1157 49.9753 49.0457V53.0657H48.9103ZM57.6405 53.1407C56.9005 53.1407 56.3305 52.9407 55.9305 52.5407C55.5305 52.1407 55.3305 51.5757 55.3305 50.8457V43.4507H56.3955V50.7857C56.3955 51.2457 56.5105 51.6007 56.7405 51.8507C56.9805 52.1007 57.3205 52.2257 57.7605 52.2257C58.2305 52.2257 58.6205 52.0907 58.9305 51.8207L59.3055 52.5857C59.0955 52.7757 58.8405 52.9157 58.5405 53.0057C58.2505 53.0957 57.9505 53.1407 57.6405 53.1407ZM53.9205 46.0757V45.1907H58.7955V46.0757H53.9205ZM65.2643 45.1157C65.9043 45.1157 66.4643 45.2407 66.9443 45.4907C67.4343 45.7307 67.8143 46.1007 68.0843 46.6007C68.3643 47.1007 68.5043 47.7307 68.5043 48.4907V53.0657H67.4393V48.5957C67.4393 47.7657 67.2293 47.1407 66.8093 46.7207C66.3993 46.2907 65.8193 46.0757 65.0693 46.0757C64.5093 46.0757 64.0193 46.1907 63.5993 46.4207C63.1893 46.6407 62.8693 46.9657 62.6393 47.3957C62.4193 47.8157 62.3093 48.3257 62.3093 48.9257V53.0657H61.2443V45.1907H62.2643V47.3507L62.0993 46.9457C62.3493 46.3757 62.7493 45.9307 63.2993 45.6107C63.8493 45.2807 64.5043 45.1157 65.2643 45.1157ZM74.726 53.1407C73.906 53.1407 73.186 52.9707 72.566 52.6307C71.946 52.2807 71.461 51.8057 71.111 51.2057C70.761 50.5957 70.586 49.9007 70.586 49.1207C70.586 48.3407 70.751 47.6507 71.081 47.0507C71.421 46.4507 71.881 45.9807 72.461 45.6407C73.051 45.2907 73.711 45.1157 74.441 45.1157C75.181 45.1157 75.836 45.2857 76.406 45.6257C76.986 45.9557 77.441 46.4257 77.771 47.0357C78.101 47.6357 78.266 48.3307 78.266 49.1207C78.266 49.1707 78.261 49.2257 78.251 49.2857C78.251 49.3357 78.251 49.3907 78.251 49.4507H71.396V48.6557H77.681L77.261 48.9707C77.261 48.4007 77.136 47.8957 76.886 47.4557C76.646 47.0057 76.316 46.6557 75.896 46.4057C75.476 46.1557 74.991 46.0307 74.441 46.0307C73.901 46.0307 73.416 46.1557 72.986 46.4057C72.556 46.6557 72.221 47.0057 71.981 47.4557C71.741 47.9057 71.621 48.4207 71.621 49.0007V49.1657C71.621 49.7657 71.751 50.2957 72.011 50.7557C72.281 51.2057 72.651 51.5607 73.121 51.8207C73.601 52.0707 74.146 52.1957 74.756 52.1957C75.236 52.1957 75.681 52.1107 76.091 51.9407C76.511 51.7707 76.871 51.5107 77.171 51.1607L77.771 51.8507C77.421 52.2707 76.981 52.5907 76.451 52.8107C75.931 53.0307 75.356 53.1407 74.726 53.1407ZM80.4337 53.0657V45.1907H81.4537V47.3357L81.3487 46.9607C81.5687 46.3607 81.9387 45.9057 82.4587 45.5957C82.9787 45.2757 83.6237 45.1157 84.3937 45.1157V46.1507C84.3537 46.1507 84.3137 46.1507 84.2737 46.1507C84.2337 46.1407 84.1937 46.1357 84.1537 46.1357C83.3237 46.1357 82.6737 46.3907 82.2037 46.9007C81.7337 47.4007 81.4987 48.1157 81.4987 49.0457V53.0657H80.4337Z" fill="white"/>
<path fill-rule="evenodd" clip-rule="evenodd" d="M28.0268 12.7569H14.7263V16.571H24.1602C23.6948 21.9208 19.0895 24.2023 14.7435 24.2023C9.1809 24.2023 4.32731 19.9731 4.32731 14.0458C4.32731 8.27199 8.95447 3.82617 14.7544 3.82617C19.2301 3.82617 21.8677 6.583 21.8677 6.583L24.6318 3.81564L24.4382 3.62614C23.6167 2.85459 20.2077 0 14.6123 0C6.37307 0 0 6.71986 0 13.9782C0 21.0906 5.99671 28.0255 14.8216 28.0255C22.5861 28.0255 28.2673 22.8863 28.2673 15.2866C28.2744 14.5274 28.2127 13.769 28.083 13.0201L28.0268 12.7569ZM38.9786 13.5315C41.6631 13.5315 44.2055 15.6295 44.2055 19.009C44.2055 22.3163 41.674 24.473 38.9661 24.473C35.9912 24.473 33.6441 22.1719 33.6441 18.9835C33.6441 15.8627 35.9631 13.5315 38.9786 13.5315ZM38.924 9.99406C33.466 9.99406 29.5541 14.118 29.5541 18.9278C29.5541 23.8083 33.3489 28.0089 38.988 28.0089C44.0946 28.0089 48.2767 24.2369 48.2767 19.0331C48.2767 13.2021 43.6292 10.1354 39.2301 9.99857L38.924 9.99406ZM59.3581 13.5315C62.0441 13.5315 64.5865 15.6295 64.5865 19.009C64.5865 22.3163 62.0535 24.473 59.3456 24.473C56.3722 24.473 54.0251 22.1719 54.0251 18.9835C54.0251 15.8627 56.3425 13.5315 59.3581 13.5315ZM59.305 9.99406C53.8455 9.99406 49.9351 14.118 49.9351 18.9278C49.9351 23.8083 53.7299 28.0089 59.3675 28.0089C64.474 28.0089 68.6577 24.2369 68.6577 19.0331C68.6577 13.2021 64.0102 10.1354 59.6111 9.99857L59.305 9.99406ZM79.6532 13.536C82.1097 13.536 84.6317 15.5634 84.6317 19.0256C84.6317 22.5419 82.1159 24.4821 79.6001 24.4821C76.9297 24.4821 74.4436 22.3855 74.4436 19.0572C74.4436 15.5995 77.0234 13.5375 79.6532 13.5375V13.536ZM79.2909 10.0046C74.2812 10.0046 70.3427 14.2459 70.3427 19.0045C70.3427 24.4264 74.9089 28.0225 79.205 28.0225C81.8598 28.0225 83.2731 27.0028 84.3163 25.8342V27.6089C84.3163 30.7176 82.3642 32.5781 79.4174 32.5781C76.569 32.5781 75.1416 30.5327 74.645 29.3716L71.0642 30.8184C72.3338 33.4143 74.8918 36.123 79.4471 36.123C84.4287 36.123 88.2235 33.091 88.2235 26.732V10.546H84.3163V12.0711C83.1903 10.898 81.6755 10.1069 79.6938 10.0136L79.2909 10.0046ZM105.762 13.4487C107.465 13.4487 108.69 14.3226 109.212 15.3724L100.865 18.7428C100.506 16.1334 103.064 13.4487 105.762 13.4487ZM105.6 9.98353C100.874 9.98353 96.9062 13.6172 96.9062 18.9789C96.9062 24.652 101.329 28.018 106.054 28.018C109.998 28.018 112.418 25.9319 113.863 24.064L110.641 21.993C109.804 23.2458 108.408 24.4715 106.073 24.4715C103.453 24.4715 102.247 23.0849 101.502 21.7418L114 16.729L113.352 15.2611C112.185 12.4832 109.52 10.149 105.983 9.99106L105.6 9.98353ZM90.9501 27.481H95.0541V0.932478H90.9501V27.481Z" fill="white"/>
</svg>
