<svg width="167" height="14" viewBox="0 0 167 14" fill="none" xmlns="http://www.w3.org/2000/svg">
<path d="M0.000109365 12.816L5.61611 0.215978H8.49611L14.1301 12.816H11.0701L6.46211 1.69198H7.61411L2.98811 12.816H0.000109365ZM2.80811 10.116L3.58211 7.90198H10.0621L10.8541 10.116H2.80811ZM15.4374 12.816V0.215978H18.3534V10.44H24.6714V12.816H15.4374ZM26.3006 12.816V0.215978H31.7546C32.8826 0.215978 33.8546 0.401978 34.6706 0.773978C35.4866 1.13398 36.1166 1.65598 36.5606 2.33998C37.0046 3.02398 37.2266 3.83998 37.2266 4.78798C37.2266 5.72398 37.0046 6.53398 36.5606 7.21798C36.1166 7.90198 35.4866 8.42998 34.6706 8.80198C33.8546 9.16198 32.8826 9.34198 31.7546 9.34198H27.9206L29.2166 8.02798V12.816H26.3006ZM29.2166 8.35198L27.9206 6.96598H31.5926C32.4926 6.96598 33.1646 6.77398 33.6086 6.38998C34.0526 6.00598 34.2746 5.47198 34.2746 4.78798C34.2746 4.09198 34.0526 3.55198 33.6086 3.16798C33.1646 2.78398 32.4926 2.59198 31.5926 2.59198H27.9206L29.2166 1.20598V8.35198ZM39.3085 12.816V0.215978H42.2245V10.44H48.5425V12.816H39.3085ZM50.1717 12.816V0.215978H53.0877V12.816H50.1717ZM56.078 12.816V0.215978H58.49L65.924 9.28798H64.754V0.215978H67.634V12.816H65.24L57.788 3.74398H58.958V12.816H56.078ZM73.2971 5.29198H79.3631V7.55998H73.2971V5.29198ZM73.5131 10.476H80.3711V12.816H70.6151V0.215978H80.1371V2.55598H73.5131V10.476ZM83.731 12.96C83.251 12.96 82.837 12.798 82.489 12.474C82.153 12.138 81.985 11.712 81.985 11.196C81.985 10.68 82.153 10.266 82.489 9.95398C82.837 9.62998 83.251 9.46798 83.731 9.46798C84.223 9.46798 84.637 9.62998 84.973 9.95398C85.309 10.266 85.477 10.68 85.477 11.196C85.477 11.712 85.309 12.138 84.973 12.474C84.637 12.798 84.223 12.96 83.731 12.96ZM86.5021 12.816L92.1181 0.215978H94.9981L100.632 12.816H97.5721L92.9641 1.69198H94.1161L89.4901 12.816H86.5021ZM89.3101 10.116L90.0841 7.90198H96.5641L97.3561 10.116H89.3101ZM107.848 13.032C106.852 13.032 105.934 12.876 105.094 12.564C104.266 12.24 103.54 11.784 102.916 11.196C102.304 10.608 101.824 9.91798 101.476 9.12598C101.14 8.33398 100.972 7.46398 100.972 6.51598C100.972 5.56798 101.14 4.69798 101.476 3.90598C101.824 3.11398 102.31 2.42398 102.934 1.83598C103.558 1.24798 104.29 0.797978 105.13 0.485978C105.97 0.161978 106.894 -2.12193e-05 107.902 -2.12193e-05C109.018 -2.12193e-05 110.02 0.185979 110.908 0.557978C111.808 0.929978 112.564 1.46998 113.176 2.17798L111.304 3.90598C110.848 3.42598 110.35 3.07198 109.81 2.84398C109.27 2.60398 108.682 2.48398 108.046 2.48398C107.434 2.48398 106.876 2.57998 106.372 2.77198C105.868 2.96398 105.43 3.23998 105.058 3.59998C104.698 3.95998 104.416 4.38598 104.212 4.87798C104.02 5.36998 103.924 5.91598 103.924 6.51598C103.924 7.10398 104.02 7.64398 104.212 8.13598C104.416 8.62798 104.698 9.05998 105.058 9.43198C105.43 9.79198 105.862 10.068 106.354 10.26C106.858 10.452 107.41 10.548 108.01 10.548C108.586 10.548 109.144 10.458 109.684 10.278C110.236 10.086 110.77 9.76798 111.286 9.32398L112.942 11.43C112.258 11.946 111.46 12.342 110.548 12.618C109.648 12.894 108.748 13.032 107.848 13.032ZM110.278 11.052V6.31798H112.942V11.43L110.278 11.052ZM118.332 5.29198H124.398V7.55998H118.332V5.29198ZM118.548 10.476H125.406V12.816H115.65V0.215978H125.172V2.55598H118.548V10.476ZM127.726 12.816V0.215978H130.138L137.572 9.28798H136.402V0.215978H139.282V12.816H136.888L129.436 3.74398H130.606V12.816H127.726ZM148.294 13.032C147.322 13.032 146.416 12.876 145.576 12.564C144.748 12.24 144.028 11.784 143.416 11.196C142.804 10.608 142.324 9.91798 141.976 9.12598C141.64 8.33398 141.472 7.46398 141.472 6.51598C141.472 5.56798 141.64 4.69798 141.976 3.90598C142.324 3.11398 142.804 2.42398 143.416 1.83598C144.04 1.24798 144.766 0.797978 145.594 0.485978C146.422 0.161978 147.328 -2.12193e-05 148.312 -2.12193e-05C149.404 -2.12193e-05 150.388 0.191979 151.264 0.575979C152.152 0.947978 152.896 1.49998 153.496 2.23198L151.624 3.95998C151.192 3.46798 150.712 3.10198 150.184 2.86198C149.656 2.60998 149.08 2.48398 148.456 2.48398C147.868 2.48398 147.328 2.57998 146.836 2.77198C146.344 2.96398 145.918 3.23998 145.558 3.59998C145.198 3.95998 144.916 4.38598 144.712 4.87798C144.52 5.36998 144.424 5.91598 144.424 6.51598C144.424 7.11598 144.52 7.66198 144.712 8.15398C144.916 8.64598 145.198 9.07198 145.558 9.43198C145.918 9.79198 146.344 10.068 146.836 10.26C147.328 10.452 147.868 10.548 148.456 10.548C149.08 10.548 149.656 10.428 150.184 10.188C150.712 9.93598 151.192 9.55798 151.624 9.05398L153.496 10.782C152.896 11.514 152.152 12.072 151.264 12.456C150.388 12.84 149.398 13.032 148.294 13.032ZM158.491 12.816V7.66798L159.157 9.43198L153.613 0.215978H156.709L160.957 7.28998H159.175L163.441 0.215978H166.303L160.759 9.43198L161.407 7.66798V12.816H158.491Z" fill="black"/>
</svg>
