<svg width="116" height="60" viewBox="0 0 116 60" fill="none" xmlns="http://www.w3.org/2000/svg">
<path d="M30.2056 42.0756C29.0292 42.0756 27.8397 41.9734 26.6368 41.771C25.4334 41.5674 24.2169 41.3029 22.9865 40.9764C21.7559 40.6491 20.5258 40.2912 19.2956 39.9029C18.065 39.5143 16.8532 39.1351 15.6589 38.7636C14.2295 39.6115 12.7368 40.2777 11.181 40.7641C9.6247 41.2499 7.9874 41.4927 6.26885 41.4927C4.80342 41.4927 3.68131 41.2364 2.90362 40.7249C2.12548 40.2119 1.73663 39.5322 1.73663 38.6849C1.73663 37.5724 2.36968 36.7159 3.63644 36.1147C4.90253 35.5145 6.82064 35.2138 9.38988 35.2138C10.5115 35.2138 11.6424 35.2933 12.7823 35.4522C13.9223 35.611 15.0797 35.8146 16.2563 36.0617C17.396 35.0902 18.4818 33.9949 19.513 32.776C20.5443 31.5572 21.5485 30.2503 22.5256 28.8547C21.7834 28.9434 21.0329 29.0094 20.2731 29.0534C19.5132 29.0976 18.7438 29.1197 17.9664 29.1197C15.1257 29.1197 12.5928 28.7882 10.3673 28.1259C8.14187 27.4636 6.25992 26.554 4.72239 25.397C3.18442 24.2403 2.01275 22.8798 1.20783 21.3166C0.402462 19.7532 0 18.0708 0 16.2689C0 14.1492 0.416078 12.268 1.24846 10.6253C2.08039 8.98256 3.22483 7.60068 4.68155 6.47879C6.13759 5.35734 7.85213 4.50067 9.82448 3.90856C11.7962 3.31711 13.9132 3.02095 16.175 3.02095C17.6041 3.02095 18.9068 3.12686 20.0831 3.3389C21.259 3.55095 22.2767 3.78064 23.1363 4.02777C23.9955 4.27533 24.6696 4.51375 25.1582 4.74323C25.6466 4.97292 25.918 5.09692 25.9723 5.11414L25.2667 6.30641C25.2484 6.30641 25.0225 6.20508 24.5881 6.00175C24.1539 5.79886 23.5568 5.58224 22.797 5.35255C22.0372 5.12329 21.1322 4.91125 20.0831 4.71664C19.0336 4.52246 17.9025 4.42527 16.6907 4.42527C14.5556 4.42527 12.6422 4.72993 10.9506 5.33926C9.25862 5.9488 7.82981 6.78324 6.6626 7.84324C5.49562 8.90301 4.60007 10.1443 3.97595 11.5661C3.35161 12.9881 3.03956 14.5031 3.03956 16.1101C3.03956 17.9119 3.46434 19.5239 4.31502 20.9457C5.16526 22.3676 6.30523 23.5686 7.73449 24.5491C9.16353 25.5293 10.8236 26.2757 12.7147 26.7878C14.6051 27.3004 16.5909 27.5562 18.6717 27.5562C19.522 27.5562 20.3586 27.5297 21.1822 27.4767C22.0053 27.4238 22.824 27.3355 23.6383 27.2117C24.9227 25.251 26.1665 23.2199 27.3701 21.1176C28.573 19.0157 29.7719 16.9578 30.9659 14.9439C32.1599 12.9301 33.363 11.0184 34.5753 9.20746C35.7872 7.39714 37.0492 5.81194 38.3611 4.45142C39.6727 3.09134 41.0522 2.00955 42.5 1.20562C43.9473 0.40212 45.5032 4.57764e-05 47.1679 4.57764e-05C47.8193 4.57764e-05 48.4257 0.101817 48.9862 0.304707C49.5467 0.508032 50.0354 0.817272 50.4512 1.2322C50.8673 1.64736 51.193 2.17278 51.4282 2.80869C51.6635 3.4446 51.7812 4.18642 51.7812 5.03438C51.7812 6.41211 51.5097 7.86525 50.9673 9.39291C50.4244 10.921 49.6374 12.4489 48.6061 13.9766C47.5748 15.5047 46.317 17.0062 44.8337 18.4809C43.3502 19.956 41.6674 21.3205 39.7859 22.5747C37.9039 23.829 35.8414 24.9459 33.5981 25.9264C31.3545 26.9066 28.9663 27.6709 26.4332 28.2183C25.239 29.8257 24.0084 31.3408 22.7423 32.7625C21.4758 34.1845 20.1369 35.4696 18.7257 36.6172C20.1005 36.9709 21.4485 37.3464 22.7695 37.7435C24.0901 38.141 25.343 38.5029 26.5283 38.8296C27.7132 39.1563 28.8123 39.4302 29.8257 39.6512C30.8389 39.8724 31.7344 39.9827 32.5126 39.9827C33.6702 39.9827 34.7876 39.7876 35.8642 39.3997C36.9405 39.0109 38.0124 38.3227 39.0803 37.3335L40.193 38.1815C40.1747 38.1994 40.0752 38.3099 39.8946 38.5127C39.7136 38.7159 39.4421 38.9632 39.0805 39.2546C38.7182 39.5462 38.2664 39.855 37.7236 40.1821C37.1807 40.5087 36.543 40.8132 35.8102 41.0958C35.0775 41.3785 34.2449 41.6125 33.3132 41.7982C32.3811 41.983 31.3456 42.0756 30.2056 42.0756ZM6.1059 40.1147C7.44476 40.1147 8.7113 39.9334 9.90529 39.5716C11.0995 39.2095 12.2571 38.7106 13.3792 38.0747C12.185 37.7393 11.0316 37.4652 9.9189 37.2531C8.80639 37.0406 7.73427 36.9352 6.70301 36.9352C5.47241 36.9352 4.57262 37.1121 4.00252 37.4652C3.43264 37.8189 3.14759 38.2249 3.14759 38.6843C3.14759 38.825 3.18822 38.9795 3.26969 39.1478C3.35094 39.3156 3.50028 39.4701 3.71747 39.6115C3.93466 39.7525 4.2331 39.872 4.61302 39.9694C4.99338 40.0659 5.49071 40.1147 6.1059 40.1147ZM47.2762 1.4571C46.2625 1.4571 45.2585 1.8108 44.2636 2.51688C43.2685 3.22362 42.2643 4.18206 41.2511 5.39156C40.2374 6.60171 39.2109 8.0239 38.1709 9.65748C37.1303 11.2915 36.0581 13.0314 34.9548 14.877C33.851 16.7231 32.7023 18.6263 31.5081 20.5869C30.3139 22.5476 29.0656 24.4732 27.7629 26.3631C29.9342 25.7801 32.0009 25.0209 33.9641 24.0845C35.9271 23.1485 37.7454 22.0972 39.4191 20.9315C41.0924 19.7656 42.6033 18.5162 43.9513 17.1823C45.2991 15.8488 46.4483 14.4841 47.3981 13.0885C48.3478 11.6934 49.0764 10.311 49.5827 8.9418C50.0889 7.57322 50.3425 6.26174 50.3425 5.00713C50.3425 4.35379 50.261 3.80156 50.0979 3.35111C49.9351 2.90065 49.7133 2.5341 49.4329 2.25145C49.1523 1.96923 48.8266 1.76569 48.4559 1.64212C48.0858 1.51921 47.6923 1.4571 47.2762 1.4571Z" fill="white"/>
<path d="M56.8468 32.8812C56.0144 33.835 55.1912 34.7139 54.3771 35.5177C53.5633 36.3216 52.7534 37.0107 51.9483 37.5843C51.1434 38.1585 50.3429 38.6087 49.5465 38.9354C48.75 39.2621 47.9453 39.4257 47.131 39.4257C46.4431 39.4257 45.8241 39.3063 45.2721 39.0679C44.7198 38.8288 44.2408 38.4937 43.8341 38.0609C43.4272 37.6285 43.1149 37.0985 42.8979 36.4711C42.6807 35.8446 42.5723 35.142 42.5723 34.3644C42.5723 33.1455 42.8484 31.8916 43.4 30.6019C43.9522 29.3126 44.6484 28.0582 45.4897 26.8394C46.331 25.6205 47.2621 24.464 48.2846 23.3685C49.3067 22.2734 50.2798 21.3019 51.2021 20.4539L52.3691 21.2487C51.7177 22.1851 50.9891 23.2451 50.1847 24.4282C49.3795 25.6118 48.619 26.8352 47.9045 28.0979C47.19 29.361 46.5884 30.6241 46.0998 31.8868C45.6114 33.1499 45.3674 34.3204 45.3674 35.3976C45.3674 36.1222 45.5074 36.7402 45.7879 37.2521C46.0683 37.7651 46.6065 38.0203 47.4023 38.0203C48.2712 38.0203 49.2248 37.6849 50.2655 37.0135C51.3057 36.3425 52.3729 35.468 53.4684 34.3903C54.5624 33.3131 55.6573 32.0984 56.7522 30.7472C57.8464 29.3959 58.8821 28.0314 59.8591 26.6535C60.8362 25.2755 61.7272 23.9601 62.5326 22.7055C63.3373 21.4516 63.9936 20.3831 64.5001 19.4996L66.4811 20.4535C65.4318 22.4671 64.4228 24.3443 63.455 26.0838C62.4871 27.8237 61.6272 29.3872 60.8766 30.7736C60.1259 32.1605 59.5286 33.3661 59.0857 34.3903C58.6424 35.415 58.4207 36.2274 58.4207 36.8278C58.4207 37.0756 58.4747 37.2783 58.5835 37.4374C58.6922 37.5965 58.8638 37.6758 59.0993 37.6758C59.7685 37.6937 60.5058 37.411 61.3109 36.8278C62.1156 36.2449 62.9302 35.5122 63.7532 34.6287C64.5766 33.7457 65.382 32.7785 66.1688 31.7275C66.9557 30.6768 67.6655 29.6918 68.299 28.7733L69.276 29.5151C69.168 29.6918 68.9412 30.0542 68.5977 30.6014C68.2537 31.1491 67.8287 31.7765 67.322 32.4826C66.8153 33.1893 66.2369 33.9312 65.5851 34.7083C64.9338 35.4858 64.2463 36.1969 63.523 36.8413C62.7989 37.4866 62.0482 38.0166 61.2703 38.4311C60.4922 38.8458 59.723 39.0535 58.9636 39.0535C58.4928 39.0535 58.0721 38.9742 57.7015 38.8149C57.3305 38.656 57.0182 38.4442 56.7651 38.179C56.5115 37.9142 56.3127 37.6052 56.168 37.2515C56.0229 36.8987 55.9508 36.5275 55.9508 36.1392C55.9508 35.6802 56.0276 35.1766 56.1812 34.6287C56.3354 34.0828 56.5573 33.4999 56.8468 32.8812Z" fill="white"/>
<path d="M79.8322 30.2053C79.7961 28.9335 79.7869 27.7458 79.8052 26.6415C79.8231 25.538 79.7916 24.5749 79.7101 23.7536C79.6291 22.932 79.4612 22.283 79.2079 21.806C78.9545 21.3291 78.5474 21.0905 77.9867 21.0905C77.4983 21.0905 76.9826 21.2361 76.4398 21.5277C75.896 21.819 75.3543 22.1991 74.8114 22.667C74.2676 23.1353 73.7259 23.6699 73.183 24.2701C72.6393 24.8707 72.1279 25.4848 71.6497 26.1115C71.1703 26.7387 70.7263 27.3483 70.3196 27.9399C69.9129 28.5318 69.5635 29.0573 69.274 29.5164L68.297 28.7746C68.5687 28.3684 68.903 27.865 69.301 27.2644C69.699 26.6642 70.1468 26.0283 70.645 25.3566C71.1426 24.6854 71.681 24.0144 72.2593 23.343C72.8388 22.6718 73.4448 22.067 74.0777 21.5281C74.7107 20.9894 75.3621 20.5522 76.0317 20.2164C76.7009 19.881 77.3793 19.713 78.0672 19.713C78.7186 19.713 79.311 19.8017 79.8447 19.978C80.3784 20.1547 80.8445 20.4947 81.2425 20.9981C81.6401 21.5015 81.9707 22.2083 82.2334 23.1179C82.4954 24.0277 82.672 25.2069 82.7626 26.6551C83.7749 25.419 84.6752 24.3498 85.4631 23.4491C86.2495 22.5482 86.9734 21.8064 87.6344 21.2234C88.2944 20.6405 88.9051 20.2079 89.4663 19.925C90.027 19.6428 90.5788 19.5012 91.1217 19.5012C91.6824 19.5012 92.1257 19.5899 92.4514 19.7662C92.7771 19.9429 93.0304 20.1504 93.2112 20.3888C93.3923 20.6274 93.5099 20.8702 93.5644 21.1175C93.6184 21.3651 93.6454 21.568 93.6454 21.7269C93.6454 22.1865 93.5186 22.5925 93.2657 22.9457C93.0114 23.2994 92.6501 23.4757 92.1802 23.4757C91.7277 23.4757 91.3663 23.3214 91.0947 23.0122C90.823 22.7034 90.6875 22.3455 90.6875 21.9391C90.6875 21.8509 90.7016 21.7007 90.7286 21.4887C90.7556 21.2766 90.8141 21.0648 90.9047 20.8527C90.5067 20.8527 90.0502 21.0382 89.5344 21.4091C89.0185 21.78 88.4306 22.31 87.7705 22.9989C87.1096 23.6878 86.3727 24.5224 85.5584 25.5029C84.7448 26.4831 83.8394 27.5828 82.8446 28.8016C82.8807 30.5152 82.9222 31.9988 82.9667 33.253C83.0115 34.5074 83.093 35.5449 83.2117 36.3663C83.3285 37.1877 83.5104 37.8016 83.7546 38.2074C83.9988 38.6142 84.3383 38.8171 84.7727 38.8171C85.3156 38.8171 85.8897 38.6406 86.4962 38.2869C87.1022 37.9341 87.7125 37.4701 88.3281 36.8957C88.9429 36.3219 89.5536 35.6731 90.1601 34.948C90.7661 34.2239 91.3402 33.4905 91.8831 32.7489C92.4259 32.0073 92.9282 31.2875 93.3894 30.5895C93.851 29.8919 94.2443 29.2865 94.57 28.7744L95.547 29.5162C95.4202 29.7283 95.1673 30.1434 94.7872 30.7615C94.4075 31.3799 93.9365 32.0908 93.3769 32.8943C92.8148 33.6982 92.1726 34.5416 91.4489 35.4247C90.7261 36.3086 89.9656 37.1169 89.1692 37.8491C88.3737 38.5822 87.55 39.1876 86.6997 39.664C85.8491 40.1408 85.0174 40.3794 84.2028 40.3794C83.4787 40.3794 82.8635 40.26 82.3573 40.0212C81.8503 39.7825 81.4251 39.3628 81.0816 38.7631C80.7376 38.1627 80.4746 37.3505 80.2947 36.3249C80.1133 35.3007 79.9869 34.0025 79.9146 32.4299C78.9014 33.6488 77.9605 34.7482 77.092 35.7287C76.223 36.7087 75.3913 37.5396 74.5946 38.2193C73.7987 38.8991 73.0344 39.4206 72.302 39.7825C71.5692 40.1443 70.8502 40.3256 70.1444 40.3256C69.1673 40.3256 68.4075 40.065 67.8646 39.5441C67.3213 39.0228 67.0508 38.3651 67.0508 37.5697C67.0508 37.199 67.1729 36.8414 67.4175 36.4966C67.6617 36.1523 68.0099 35.9799 68.4622 35.9799C68.8602 35.9799 69.2178 36.148 69.5343 36.4838C69.8508 36.8196 70.0095 37.2169 70.0095 37.6761C70.0095 37.8713 69.9821 38.0914 69.9281 38.3386C69.8745 38.5863 69.7839 38.8062 69.6564 39.0011C69.7109 39.0361 69.7827 39.0584 69.8745 39.0673C69.9638 39.0762 70.0551 39.081 70.1457 39.081C70.7609 39.081 71.4343 38.8507 72.1678 38.3922C72.9006 37.9336 73.6741 37.3062 74.4884 36.5108C75.302 35.7162 76.1574 34.7887 77.0523 33.7287C77.9487 32.669 78.8746 31.5296 79.8347 30.3108V30.2049L79.8322 30.2053Z" fill="white"/>
<path d="M96.631 32.6164C96.5944 32.8285 96.5674 33.0403 96.5495 33.2524C96.5312 33.4644 96.5225 33.6762 96.5225 33.8883C96.5225 34.5242 96.6176 35.1294 96.8071 35.7032C96.9973 36.2774 97.2775 36.7806 97.6487 37.2136C98.0192 37.6466 98.4813 37.9866 99.0328 38.2339C99.5844 38.4817 100.213 38.6046 100.919 38.6046C103.289 38.6046 105.578 37.8192 107.785 36.2471C109.992 34.675 112.19 32.1841 114.38 28.7751L115.303 29.5698C114.109 31.5131 112.897 33.1515 111.666 34.4847C110.436 35.8191 109.21 36.9 107.989 37.7308C106.767 38.5615 105.568 39.161 104.393 39.5328C103.216 39.9035 102.095 40.0894 101.028 40.0894C100.25 40.0894 99.4266 39.9835 98.5587 39.7714C97.6906 39.5592 96.8897 39.2059 96.1569 38.7116C95.4241 38.2174 94.8176 37.5549 94.3386 36.7244C93.8596 35.8943 93.6191 34.8611 93.6191 33.6244C93.6191 32.2996 93.8497 31.0236 94.3111 29.7958C94.7727 28.5682 95.3741 27.4243 96.1161 26.3646C96.8576 25.3048 97.7083 24.3376 98.6674 23.4633C99.6262 22.589 100.598 21.843 101.584 21.2245C102.571 20.6065 103.534 20.1249 104.475 19.7806C105.415 19.436 106.248 19.2638 106.972 19.2638C107.442 19.2638 107.922 19.3347 108.41 19.4759C108.899 19.6175 109.337 19.8381 109.726 20.1384C110.114 20.4389 110.432 20.8364 110.676 21.3307C110.92 21.8254 111.043 22.417 111.043 23.1059C111.043 24.0423 110.821 24.921 110.378 25.7422C109.934 26.5637 109.341 27.3232 108.6 28.0208C107.858 28.7188 106.999 29.3456 106.021 29.9022C105.044 30.4585 104.022 30.9314 102.955 31.3196C101.887 31.7083 100.811 32.0176 99.7248 32.2468C98.6391 32.4752 97.6081 32.599 96.631 32.6164ZM96.848 31.4771C98.0601 31.3538 99.1996 31.1062 100.267 30.7353C101.334 30.3644 102.311 29.9098 103.198 29.3709C104.085 28.8321 104.876 28.2448 105.573 27.6089C106.269 26.973 106.853 26.3284 107.324 25.6748C107.794 25.0215 108.156 24.3943 108.409 23.7937C108.662 23.1935 108.789 22.6544 108.789 22.1773C108.789 21.7005 108.658 21.3206 108.395 21.038C108.133 20.7558 107.821 20.6141 107.46 20.6141C106.663 20.6141 105.768 20.8924 104.773 21.4488C103.777 22.0054 102.782 22.7736 101.787 23.754C100.792 24.7343 99.8558 25.8869 98.9782 27.2116C98.1007 28.536 97.3909 29.958 96.848 31.4771Z" fill="white"/>
<path d="M4.01389 49.0531H5.68089V58.488H11.1368V59.6341H4.01367L4.01389 49.0531Z" fill="white"/>
<path d="M23.6768 49.0531V59.6341H22.0098V49.0531H23.6768Z" fill="white"/>
<path d="M38.4328 59.6341L34.2461 49.0531H36.0459L38.035 54.265C38.5654 55.6939 39.039 56.981 39.3989 58.221H39.4368C39.7968 56.9965 40.3082 55.6621 40.8955 54.2807L43.0552 49.0531H44.8175L40.2513 59.6341H38.4328Z" fill="white"/>
<path d="M56.9016 49.0531V59.6341H55.2344V49.0531H56.9016Z" fill="white"/>
<path d="M68.8555 59.6341V49.0531H70.6742L74.7471 54.4062C75.6748 55.646 76.433 56.7611 77.0203 57.8438L77.0775 57.8283C76.9257 56.4157 76.8877 55.1278 76.8877 53.48V49.0531H78.4411V59.6341H76.7743L72.7203 54.265C71.8296 53.0878 70.9763 51.8789 70.3521 50.7328L70.2954 50.7485C70.3901 52.0829 70.4088 53.3545 70.4088 55.1123V59.6338H68.8555V59.6341Z" fill="white"/>
<path d="M99.921 59.1633C99.182 59.3987 97.7045 59.7439 95.9808 59.7439C94.0486 59.7439 92.4573 59.3357 91.2064 58.347C90.1077 57.4681 89.4258 56.0546 89.4258 54.4064C89.4258 51.2511 92.0591 48.9439 96.3404 48.9439C97.8179 48.9439 98.9929 49.2113 99.5422 49.4298L99.1255 50.5445C98.4431 50.2776 97.5909 50.0893 96.3027 50.0893C93.1959 50.0893 91.1687 51.6908 91.1687 54.3434C91.1687 57.0279 93.1008 58.6139 96.0942 58.6139C97.1741 58.6139 97.9125 58.4884 98.292 58.3313V55.1759H95.7154V54.0769H99.9213V59.1633H99.921Z" fill="white"/>
</svg>
