<svg width="129" height="50" viewBox="0 0 129 50" fill="none" xmlns="http://www.w3.org/2000/svg">
<g clip-path="url(#clip0_20_106)">
<path d="M4.20875 17.7628C4.20875 19.3112 4.53531 20.5 4.96215 21.2192C5.52178 22.1612 6.35648 22.5603 7.20744 22.5603C8.30502 22.5603 9.3091 22.2768 11.2441 19.4917C12.7943 17.2594 14.6209 14.1259 15.8499 12.1615L17.9312 8.83349C19.377 6.52218 21.0505 3.95282 22.9692 2.21123C24.5357 0.78976 26.2254 5.34058e-05 27.926 5.34058e-05C30.781 5.34058e-05 33.5006 1.7219 35.5819 4.95123C37.8597 8.48799 38.9654 12.9428 38.9654 17.54C38.9654 20.273 38.4478 22.2811 37.567 23.8675C36.7161 25.4018 35.0575 26.9347 32.2675 26.9347V22.5603C34.6564 22.5603 35.2526 20.2758 35.2526 17.6613C35.2526 13.9356 34.4179 9.80088 32.5792 6.84653C31.2743 4.75099 29.5832 3.47053 27.7227 3.47053C25.7105 3.47053 24.0912 5.04995 22.2714 7.8661C21.3039 9.36231 20.3107 11.1857 19.1955 13.2432L17.9678 15.5065C15.5016 20.0572 14.877 21.0937 13.6439 22.8042C11.4826 25.7995 9.63702 26.9347 7.20744 26.9347C4.32528 26.9347 2.50275 25.6359 1.37401 23.6786C0.452582 22.0836 0 19.9909 0 17.6063L4.20875 17.7628Z" fill="white"/>
<path d="M3.31836 5.26006C5.24793 2.1647 8.03253 5.34058e-05 11.2264 5.34058e-05C13.076 5.34058e-05 14.9148 0.56977 16.8349 2.20136C18.9352 3.98525 21.1737 6.92268 23.9664 11.7639L24.9678 13.5012C27.3852 17.6923 28.7605 19.8485 29.5654 20.8652C30.6007 22.1711 31.3256 22.5603 32.2674 22.5603C34.6563 22.5603 35.2525 20.2758 35.2525 17.6613L38.9653 17.54C38.9653 20.273 38.4477 22.2811 37.5669 23.8675C36.716 25.4018 35.0574 26.9347 32.2674 26.9347C30.5329 26.9347 28.9963 26.5427 27.2971 24.8744C25.9908 23.594 24.4637 21.3193 23.2889 19.2745L19.7943 13.1994C18.0408 10.1506 16.4324 7.87738 15.5015 6.84794C14.5001 5.74094 13.2128 4.40408 11.1586 4.40408C9.49597 4.40408 8.08402 5.61825 6.90243 7.47547L3.31836 5.26006Z" fill="url(#paint0_linear_20_106)"/>
<path d="M11.1587 4.40408C9.4961 4.40408 8.08415 5.61825 6.90256 7.47547C5.2318 10.0998 4.20875 14.0089 4.20875 17.7628C4.20875 19.3112 4.53531 20.5 4.96215 21.2192L1.37401 23.6786C0.452582 22.0836 0 19.9909 0 17.6063C0 13.2699 1.14365 8.75029 3.31849 5.26006C5.24806 2.1647 8.03266 5.34058e-05 11.2265 5.34058e-05L11.1587 4.40408Z" fill="url(#paint1_linear_20_106)"/>
<path d="M47.1475 0.851807H52.0161L60.294 16.4372L68.5733 0.851807H73.3363V26.4609H69.3647V6.83384L62.1044 20.4253H58.378L51.1191 6.83384V26.4609H47.1475V0.851807ZM85.7809 10.4002C82.9326 10.4002 81.2172 12.6311 80.8066 15.3937H90.4734C90.2742 12.5479 88.697 10.4002 85.7809 10.4002ZM76.8689 16.9675C76.8689 11.1547 80.4787 6.92409 85.85 6.92409C91.1333 6.92409 94.2879 11.1011 94.2879 17.2777V18.4129H80.8066C81.2849 21.418 83.2009 23.4431 86.2904 23.4431C88.7552 23.4431 90.2959 22.6604 91.7566 21.2291L93.8664 23.9183C91.8786 25.8206 89.3501 26.9178 86.1495 26.9178C80.335 26.9178 76.8689 22.5053 76.8689 16.9675ZM99.1037 10.7669H95.4478V7.3824H99.1037V1.78535H102.936V7.3824H108.49V10.7669H102.936V19.345C102.936 22.274 103.835 23.3147 106.047 23.3147C107.056 23.3147 107.635 23.2245 108.49 23.0764V26.4242C107.425 26.7373 106.409 26.8811 105.308 26.8811C101.171 26.8811 99.1037 24.5289 99.1037 19.8203V10.7669ZM124.626 14.0582C123.856 12.036 122.139 10.5469 119.616 10.5469C116.337 10.5469 114.238 12.9682 114.238 16.9125C114.238 20.7581 116.17 23.2964 119.459 23.2964C122.044 23.2964 123.89 21.7311 124.626 19.7836V14.0582ZM128.458 26.4609H124.696V23.79C123.645 25.3623 121.731 26.9178 118.632 26.9178C113.649 26.9178 110.318 22.5758 110.318 16.9125C110.318 11.1956 113.729 6.92409 118.844 6.92409C121.372 6.92409 123.356 7.97609 124.696 9.83331V7.3824H128.458V26.4609Z" fill="white"/>
</g>
<path d="M1.9893 45.7299V35.2299H6.5193C7.6893 35.2299 8.5943 35.4649 9.2343 35.9349C9.8843 36.4049 10.2093 37.0699 10.2093 37.9299C10.2093 38.4999 10.0743 38.9799 9.8043 39.3699C9.5443 39.7599 9.1843 40.0549 8.7243 40.2549C8.2743 40.4549 7.7793 40.5549 7.2393 40.5549L7.4943 40.1949C8.1643 40.1949 8.7393 40.2999 9.2193 40.5099C9.7093 40.7099 10.0893 41.0149 10.3593 41.4249C10.6293 41.8249 10.7643 42.3249 10.7643 42.9249C10.7643 43.8149 10.4343 44.5049 9.7743 44.9949C9.1243 45.4849 8.1393 45.7299 6.8193 45.7299H1.9893ZM3.0993 44.8149H6.8043C7.7243 44.8149 8.4293 44.6599 8.9193 44.3499C9.4093 44.0299 9.6543 43.5249 9.6543 42.8349C9.6543 42.1549 9.4093 41.6599 8.9193 41.3499C8.4293 41.0299 7.7243 40.8699 6.8043 40.8699H2.9793V39.9549H6.4443C7.2843 39.9549 7.9343 39.7949 8.3943 39.4749C8.8643 39.1549 9.0993 38.6799 9.0993 38.0499C9.0993 37.4099 8.8643 36.9349 8.3943 36.6249C7.9343 36.3049 7.2843 36.1449 6.4443 36.1449H3.0993V44.8149ZM16.3279 45.8049C15.6579 45.8049 15.0729 45.6799 14.5729 45.4299C14.0729 45.1799 13.6829 44.8049 13.4029 44.3049C13.1329 43.8049 12.9979 43.1799 12.9979 42.4299V37.8549H14.0629V42.3099C14.0629 43.1499 14.2679 43.7849 14.6779 44.2149C15.0979 44.6349 15.6829 44.8449 16.4329 44.8449C16.9829 44.8449 17.4579 44.7349 17.8579 44.5149C18.2679 44.2849 18.5779 43.9549 18.7879 43.5249C19.0079 43.0949 19.1179 42.5799 19.1179 41.9799V37.8549H20.1829V45.7299H19.1629V43.5699L19.3279 43.9599C19.0779 44.5399 18.6879 44.9949 18.1579 45.3249C17.6379 45.6449 17.0279 45.8049 16.3279 45.8049ZM25.266 45.8049C24.616 45.8049 24.001 45.7149 23.421 45.5349C22.841 45.3449 22.386 45.1099 22.056 44.8299L22.536 43.9899C22.856 44.2299 23.266 44.4399 23.766 44.6199C24.266 44.7899 24.791 44.8749 25.341 44.8749C26.091 44.8749 26.631 44.7599 26.961 44.5299C27.291 44.2899 27.456 43.9749 27.456 43.5849C27.456 43.2949 27.361 43.0699 27.171 42.9099C26.991 42.7399 26.751 42.6149 26.451 42.5349C26.151 42.4449 25.816 42.3699 25.446 42.3099C25.076 42.2499 24.706 42.1799 24.336 42.0999C23.976 42.0199 23.646 41.9049 23.346 41.7549C23.046 41.5949 22.801 41.3799 22.611 41.1099C22.431 40.8399 22.341 40.4799 22.341 40.0299C22.341 39.5999 22.461 39.2149 22.701 38.8749C22.941 38.5349 23.291 38.2699 23.751 38.0799C24.221 37.8799 24.791 37.7799 25.461 37.7799C25.971 37.7799 26.481 37.8499 26.991 37.9899C27.501 38.1199 27.921 38.2949 28.251 38.5149L27.786 39.3699C27.436 39.1299 27.061 38.9599 26.661 38.8599C26.261 38.7499 25.861 38.6949 25.461 38.6949C24.751 38.6949 24.226 38.8199 23.886 39.0699C23.556 39.3099 23.391 39.6199 23.391 39.9999C23.391 40.2999 23.481 40.5349 23.661 40.7049C23.851 40.8749 24.096 41.0099 24.396 41.1099C24.706 41.1999 25.041 41.2749 25.401 41.3349C25.771 41.3949 26.136 41.4699 26.496 41.5599C26.866 41.6399 27.201 41.7549 27.501 41.9049C27.811 42.0449 28.056 42.2499 28.236 42.5199C28.426 42.7799 28.521 43.1249 28.521 43.5549C28.521 44.0149 28.391 44.4149 28.131 44.7549C27.881 45.0849 27.511 45.3449 27.021 45.5349C26.541 45.7149 25.956 45.8049 25.266 45.8049ZM30.4752 45.7299V37.8549H31.5402V45.7299H30.4752ZM31.0152 36.1149C30.7952 36.1149 30.6102 36.0399 30.4602 35.8899C30.3102 35.7399 30.2352 35.5599 30.2352 35.3499C30.2352 35.1399 30.3102 34.9649 30.4602 34.8249C30.6102 34.6749 30.7952 34.5999 31.0152 34.5999C31.2352 34.5999 31.4202 34.6699 31.5702 34.8099C31.7202 34.9499 31.7952 35.1249 31.7952 35.3349C31.7952 35.5549 31.7202 35.7399 31.5702 35.8899C31.4302 36.0399 31.2452 36.1149 31.0152 36.1149ZM38.5236 37.7799C39.1636 37.7799 39.7236 37.9049 40.2036 38.1549C40.6936 38.3949 41.0736 38.7649 41.3436 39.2649C41.6236 39.7649 41.7636 40.3949 41.7636 41.1549V45.7299H40.6986V41.2599C40.6986 40.4299 40.4886 39.8049 40.0686 39.3849C39.6586 38.9549 39.0786 38.7399 38.3286 38.7399C37.7686 38.7399 37.2786 38.8549 36.8586 39.0849C36.4486 39.3049 36.1286 39.6299 35.8986 40.0599C35.6786 40.4799 35.5686 40.9899 35.5686 41.5899V45.7299H34.5036V37.8549H35.5236V40.0149L35.3586 39.6099C35.6086 39.0399 36.0086 38.5949 36.5586 38.2749C37.1086 37.9449 37.7636 37.7799 38.5236 37.7799ZM47.9853 45.8049C47.1653 45.8049 46.4453 45.6349 45.8253 45.2949C45.2053 44.9449 44.7203 44.4699 44.3703 43.8699C44.0203 43.2599 43.8453 42.5649 43.8453 41.7849C43.8453 41.0049 44.0103 40.3149 44.3403 39.7149C44.6803 39.1149 45.1403 38.6449 45.7203 38.3049C46.3103 37.9549 46.9703 37.7799 47.7003 37.7799C48.4403 37.7799 49.0953 37.9499 49.6653 38.2899C50.2453 38.6199 50.7003 39.0899 51.0303 39.6999C51.3603 40.2999 51.5253 40.9949 51.5253 41.7849C51.5253 41.8349 51.5203 41.8899 51.5103 41.9499C51.5103 41.9999 51.5103 42.0549 51.5103 42.1149H44.6553V41.3199H50.9403L50.5203 41.6349C50.5203 41.0649 50.3953 40.5599 50.1453 40.1199C49.9053 39.6699 49.5753 39.3199 49.1553 39.0699C48.7353 38.8199 48.2503 38.6949 47.7003 38.6949C47.1603 38.6949 46.6753 38.8199 46.2453 39.0699C45.8153 39.3199 45.4803 39.6699 45.2403 40.1199C45.0003 40.5699 44.8803 41.0849 44.8803 41.6649V41.8299C44.8803 42.4299 45.0103 42.9599 45.2703 43.4199C45.5403 43.8699 45.9103 44.2249 46.3803 44.4849C46.8603 44.7349 47.4053 44.8599 48.0153 44.8599C48.4953 44.8599 48.9403 44.7749 49.3503 44.6049C49.7703 44.4349 50.1303 44.1749 50.4303 43.8249L51.0303 44.5149C50.6803 44.9349 50.2403 45.2549 49.7103 45.4749C49.1903 45.6949 48.6153 45.8049 47.9853 45.8049ZM55.808 45.8049C55.158 45.8049 54.543 45.7149 53.963 45.5349C53.383 45.3449 52.928 45.1099 52.598 44.8299L53.078 43.9899C53.398 44.2299 53.808 44.4399 54.308 44.6199C54.808 44.7899 55.333 44.8749 55.883 44.8749C56.633 44.8749 57.173 44.7599 57.503 44.5299C57.833 44.2899 57.998 43.9749 57.998 43.5849C57.998 43.2949 57.903 43.0699 57.713 42.9099C57.533 42.7399 57.293 42.6149 56.993 42.5349C56.693 42.4449 56.358 42.3699 55.988 42.3099C55.618 42.2499 55.248 42.1799 54.878 42.0999C54.518 42.0199 54.188 41.9049 53.888 41.7549C53.588 41.5949 53.343 41.3799 53.153 41.1099C52.973 40.8399 52.883 40.4799 52.883 40.0299C52.883 39.5999 53.003 39.2149 53.243 38.8749C53.483 38.5349 53.833 38.2699 54.293 38.0799C54.763 37.8799 55.333 37.7799 56.003 37.7799C56.513 37.7799 57.023 37.8499 57.533 37.9899C58.043 38.1199 58.463 38.2949 58.793 38.5149L58.328 39.3699C57.978 39.1299 57.603 38.9599 57.203 38.8599C56.803 38.7499 56.403 38.6949 56.003 38.6949C55.293 38.6949 54.768 38.8199 54.428 39.0699C54.098 39.3099 53.933 39.6199 53.933 39.9999C53.933 40.2999 54.023 40.5349 54.203 40.7049C54.393 40.8749 54.638 41.0099 54.938 41.1099C55.248 41.1999 55.583 41.2749 55.943 41.3349C56.313 41.3949 56.678 41.4699 57.038 41.5599C57.408 41.6399 57.743 41.7549 58.043 41.9049C58.353 42.0449 58.598 42.2499 58.778 42.5199C58.968 42.7799 59.063 43.1249 59.063 43.5549C59.063 44.0149 58.933 44.4149 58.673 44.7549C58.423 45.0849 58.053 45.3449 57.563 45.5349C57.083 45.7149 56.498 45.8049 55.808 45.8049ZM63.1322 45.8049C62.4822 45.8049 61.8672 45.7149 61.2872 45.5349C60.7072 45.3449 60.2522 45.1099 59.9222 44.8299L60.4022 43.9899C60.7222 44.2299 61.1322 44.4399 61.6322 44.6199C62.1322 44.7899 62.6572 44.8749 63.2072 44.8749C63.9572 44.8749 64.4972 44.7599 64.8272 44.5299C65.1572 44.2899 65.3222 43.9749 65.3222 43.5849C65.3222 43.2949 65.2272 43.0699 65.0372 42.9099C64.8572 42.7399 64.6172 42.6149 64.3172 42.5349C64.0172 42.4449 63.6822 42.3699 63.3122 42.3099C62.9422 42.2499 62.5722 42.1799 62.2022 42.0999C61.8422 42.0199 61.5122 41.9049 61.2122 41.7549C60.9122 41.5949 60.6672 41.3799 60.4772 41.1099C60.2972 40.8399 60.2072 40.4799 60.2072 40.0299C60.2072 39.5999 60.3272 39.2149 60.5672 38.8749C60.8072 38.5349 61.1572 38.2699 61.6172 38.0799C62.0872 37.8799 62.6572 37.7799 63.3272 37.7799C63.8372 37.7799 64.3472 37.8499 64.8572 37.9899C65.3672 38.1199 65.7872 38.2949 66.1172 38.5149L65.6522 39.3699C65.3022 39.1299 64.9272 38.9599 64.5272 38.8599C64.1272 38.7499 63.7272 38.6949 63.3272 38.6949C62.6172 38.6949 62.0922 38.8199 61.7522 39.0699C61.4222 39.3099 61.2572 39.6199 61.2572 39.9999C61.2572 40.2999 61.3472 40.5349 61.5272 40.7049C61.7172 40.8749 61.9622 41.0099 62.2622 41.1099C62.5722 41.1999 62.9072 41.2749 63.2672 41.3349C63.6372 41.3949 64.0022 41.4699 64.3622 41.5599C64.7322 41.6399 65.0672 41.7549 65.3672 41.9049C65.6772 42.0449 65.9222 42.2499 66.1022 42.5199C66.2922 42.7799 66.3872 43.1249 66.3872 43.5549C66.3872 44.0149 66.2572 44.4149 65.9972 44.7549C65.7472 45.0849 65.3772 45.3449 64.8872 45.5349C64.4072 45.7149 63.8222 45.8049 63.1322 45.8049ZM72.4922 45.7299V35.2299H76.4222C77.3122 35.2299 78.0772 35.3749 78.7172 35.6649C79.3572 35.9449 79.8472 36.3549 80.1872 36.8949C80.5372 37.4249 80.7122 38.0699 80.7122 38.8299C80.7122 39.5699 80.5372 40.2099 80.1872 40.7499C79.8472 41.2799 79.3572 41.6899 78.7172 41.9799C78.0772 42.2699 77.3122 42.4149 76.4222 42.4149H73.1072L73.6022 41.8899V45.7299H72.4922ZM73.6022 41.9799L73.1072 41.4399H76.3922C77.4422 41.4399 78.2372 41.2149 78.7772 40.7649C79.3272 40.3049 79.6022 39.6599 79.6022 38.8299C79.6022 37.9899 79.3272 37.3399 78.7772 36.8799C78.2372 36.4199 77.4422 36.1899 76.3922 36.1899H73.1072L73.6022 35.6649V41.9799ZM87.7491 45.7299V43.9899L87.7041 43.7049V40.7949C87.7041 40.1249 87.5141 39.6099 87.1341 39.2499C86.7641 38.8899 86.2091 38.7099 85.4691 38.7099C84.9591 38.7099 84.4741 38.7949 84.0141 38.9649C83.5541 39.1349 83.1641 39.3599 82.8441 39.6399L82.3641 38.8449C82.7641 38.5049 83.2441 38.2449 83.8041 38.0649C84.3641 37.8749 84.9541 37.7799 85.5741 37.7799C86.5941 37.7799 87.3791 38.0349 87.9291 38.5449C88.4891 39.0449 88.7691 39.8099 88.7691 40.8399V45.7299H87.7491ZM85.0341 45.8049C84.4441 45.8049 83.9291 45.7099 83.4891 45.5199C83.0591 45.3199 82.7291 45.0499 82.4991 44.7099C82.2691 44.3599 82.1541 43.9599 82.1541 43.5099C82.1541 43.0999 82.2491 42.7299 82.4391 42.3999C82.6391 42.0599 82.9591 41.7899 83.3991 41.5899C83.8491 41.3799 84.4491 41.2749 85.1991 41.2749H87.9141V42.0699H85.2291C84.4691 42.0699 83.9391 42.2049 83.6391 42.4749C83.3491 42.7449 83.2041 43.0799 83.2041 43.4799C83.2041 43.9299 83.3791 44.2899 83.7291 44.5599C84.0791 44.8299 84.5691 44.9649 85.1991 44.9649C85.7991 44.9649 86.3141 44.8299 86.7441 44.5599C87.1841 44.2799 87.5041 43.8799 87.7041 43.3599L87.9441 44.0949C87.7441 44.6149 87.3941 45.0299 86.8941 45.3399C86.4041 45.6499 85.7841 45.8049 85.0341 45.8049ZM91.6618 45.7299V37.8549H92.6818V39.9999L92.5768 39.6249C92.7968 39.0249 93.1668 38.5699 93.6868 38.2599C94.2068 37.9399 94.8518 37.7799 95.6218 37.7799V38.8149C95.5818 38.8149 95.5418 38.8149 95.5018 38.8149C95.4618 38.8049 95.4218 38.7999 95.3818 38.7999C94.5518 38.7999 93.9018 39.0549 93.4318 39.5649C92.9618 40.0649 92.7268 40.7799 92.7268 41.7099V45.7299H91.6618ZM100.392 45.8049C99.652 45.8049 99.082 45.6049 98.682 45.2049C98.282 44.8049 98.082 44.2399 98.082 43.5099V36.1149H99.147V43.4499C99.147 43.9099 99.262 44.2649 99.492 44.5149C99.732 44.7649 100.072 44.8899 100.512 44.8899C100.982 44.8899 101.372 44.7549 101.682 44.4849L102.057 45.2499C101.847 45.4399 101.592 45.5799 101.292 45.6699C101.002 45.7599 100.702 45.8049 100.392 45.8049ZM96.672 38.7399V37.8549H101.547V38.7399H96.672ZM108.016 37.7799C108.656 37.7799 109.216 37.9049 109.696 38.1549C110.186 38.3949 110.566 38.7649 110.836 39.2649C111.116 39.7649 111.256 40.3949 111.256 41.1549V45.7299H110.191V41.2599C110.191 40.4299 109.981 39.8049 109.561 39.3849C109.151 38.9549 108.571 38.7399 107.821 38.7399C107.261 38.7399 106.771 38.8549 106.351 39.0849C105.941 39.3049 105.621 39.6299 105.391 40.0599C105.171 40.4799 105.061 40.9899 105.061 41.5899V45.7299H103.996V37.8549H105.016V40.0149L104.851 39.6099C105.101 39.0399 105.501 38.5949 106.051 38.2749C106.601 37.9449 107.256 37.7799 108.016 37.7799ZM117.477 45.8049C116.657 45.8049 115.937 45.6349 115.317 45.2949C114.697 44.9449 114.212 44.4699 113.862 43.8699C113.512 43.2599 113.337 42.5649 113.337 41.7849C113.337 41.0049 113.502 40.3149 113.832 39.7149C114.172 39.1149 114.632 38.6449 115.212 38.3049C115.802 37.9549 116.462 37.7799 117.192 37.7799C117.932 37.7799 118.587 37.9499 119.157 38.2899C119.737 38.6199 120.192 39.0899 120.522 39.6999C120.852 40.2999 121.017 40.9949 121.017 41.7849C121.017 41.8349 121.012 41.8899 121.002 41.9499C121.002 41.9999 121.002 42.0549 121.002 42.1149H114.147V41.3199H120.432L120.012 41.6349C120.012 41.0649 119.887 40.5599 119.637 40.1199C119.397 39.6699 119.067 39.3199 118.647 39.0699C118.227 38.8199 117.742 38.6949 117.192 38.6949C116.652 38.6949 116.167 38.8199 115.737 39.0699C115.307 39.3199 114.972 39.6699 114.732 40.1199C114.492 40.5699 114.372 41.0849 114.372 41.6649V41.8299C114.372 42.4299 114.502 42.9599 114.762 43.4199C115.032 43.8699 115.402 44.2249 115.872 44.4849C116.352 44.7349 116.897 44.8599 117.507 44.8599C117.987 44.8599 118.432 44.7749 118.842 44.6049C119.262 44.4349 119.622 44.1749 119.922 43.8249L120.522 44.5149C120.172 44.9349 119.732 45.2549 119.202 45.4749C118.682 45.6949 118.107 45.8049 117.477 45.8049ZM123.185 45.7299V37.8549H124.205V39.9999L124.1 39.6249C124.32 39.0249 124.69 38.5699 125.21 38.2599C125.73 37.9399 126.375 37.7799 127.145 37.7799V38.8149C127.105 38.8149 127.065 38.8149 127.025 38.8149C126.985 38.8049 126.945 38.7999 126.905 38.7999C126.075 38.7999 125.425 39.0549 124.955 39.5649C124.485 40.0649 124.25 40.7799 124.25 41.7099V45.7299H123.185Z" fill="white"/>
<defs>
<linearGradient id="paint0_linear_20_106" x1="8.2656" y1="16.4993" x2="35.1006" y2="17.8016" gradientUnits="userSpaceOnUse">
<stop stop-color="white"/>
<stop offset="0.4" stop-color="white"/>
<stop offset="0.83" stop-color="white"/>
<stop offset="1" stop-color="white"/>
</linearGradient>
<linearGradient id="paint1_linear_20_106" x1="6.09767" y1="19.6017" x2="6.09767" y2="9.30731" gradientUnits="userSpaceOnUse">
<stop stop-color="white"/>
<stop offset="1" stop-color="white"/>
</linearGradient>
<clipPath id="clip0_20_106">
<rect width="128.458" height="26.9346" fill="white"/>
</clipPath>
</defs>
</svg>
