<svg width="190" height="50" viewBox="0 0 190 50" fill="none" xmlns="http://www.w3.org/2000/svg">
<path fill-rule="evenodd" clip-rule="evenodd" d="M20.095 40.8606C19.7928 47.897 5.56875 48.5661 0 42.0909L3.44269 40.7958C7.04727 45.199 16.4472 44.2709 16.3933 40.6015C16.3393 36.9322 6.75588 34.6659 3.9823 32.3779C3.44257 31.997 2.99746 31.4973 2.68126 30.9173C2.36505 30.3373 2.18618 29.6924 2.15843 29.0324C2.15843 22.3304 14.2133 22.4707 19.523 27.4999L16.7062 28.8381C13.6629 26.3343 5.83855 25.9026 6.10835 28.6978C6.25944 30.3382 11.0404 32.1297 12.8534 33.0147C15.4651 34.191 20.2784 36.6948 20.095 40.8606Z" fill="white"/>
<path fill-rule="evenodd" clip-rule="evenodd" d="M98.4009 46.5588H83.0977V23.8521H86.6483V43.4291H98.4009V46.5588Z" fill="white"/>
<path fill-rule="evenodd" clip-rule="evenodd" d="M134.341 46.548H129.83L122.567 36.3387H112.346L104.684 46.5588H100.367L117.063 23.8953H117.948L134.308 46.5588L134.341 46.548ZM120.236 33.2413L117.44 29.518L114.656 33.2305L120.236 33.2413Z" fill="white"/>
<path fill-rule="evenodd" clip-rule="evenodd" d="M54.328 46.548H49.8169L42.5646 36.3387L32.3768 36.371L24.6712 46.5588H20.3867L37.0822 23.8953H37.9671L54.328 46.548ZM40.2227 33.2413L37.4383 29.518L34.6431 33.2305L40.2227 33.2413Z" fill="white"/>
<path fill-rule="evenodd" clip-rule="evenodd" d="M147.581 46.5372H143.652C138.861 40.267 138.397 39.6087 134.112 34.2666C134.24 34.0196 134.396 33.7879 134.576 33.5759C136.94 33.3708 139.346 32.6477 139.195 29.4641C139.098 27.4243 137.501 26.3883 135.44 26.3883C132.936 26.3883 130.044 26.3883 127.184 26.3883V23.8306C130.324 23.8306 130.788 23.8306 136.249 23.8306C139.487 23.8306 142.206 25.6113 142.476 29.2266C142.557 30.4414 142.264 31.6518 141.637 32.6954C141.01 33.739 140.079 34.5659 138.969 35.0652L147.581 46.5372Z" fill="white"/>
<path d="M156.809 25.2443V46.5588H152.492V25.2443H156.809Z" fill="white"/>
<path fill-rule="evenodd" clip-rule="evenodd" d="M189.942 49.9907L184.956 50.0015L172.47 37.0401L163.232 46.5588H158.148L169.901 34.3529L164.041 28.1474L169.059 28.1582L172.426 31.6764L179.916 23.8845L184.967 23.8737L175.006 34.3853L189.942 49.9907Z" fill="white"/>
<path fill-rule="evenodd" clip-rule="evenodd" d="M149.664 13.632C152.124 9.88708 148.121 6.07746 153.538 1.83615C157.456 -1.22882 163.953 0.260492 169.003 1.19941C168.032 9.1748 159.29 28.7734 146.34 16.0818C155.751 14.204 160.898 8.94817 164.956 4.33993C163.085 6.15049 160.976 7.69725 158.686 8.93738C159.193 7.3941 159.344 6.77894 158.578 3.54131C158.783 8.3546 158.103 10.0166 153.603 11.9592C154.244 10.8936 154.553 9.66092 154.489 8.41895C154.426 7.17697 153.993 5.98216 153.247 4.98745C155.114 8.51649 153.322 13.1895 149.664 13.632Z" fill="white"/>
<path fill-rule="evenodd" clip-rule="evenodd" d="M78.5554 46.5804H75.771L60.9103 31.2124L60.8779 46.5804H57.0898V23.8629H59.0324L74.8429 40.1914V23.8629H78.5554V46.5804Z" fill="white"/>
</svg>
