<svg width="186" height="22" viewBox="0 0 186 22" fill="none" xmlns="http://www.w3.org/2000/svg">
<path d="M173.44 12.3306C173.486 12.2789 173.537 12.2291 173.581 12.1773C174.491 11.081 174.567 9.74832 173.79 8.52794C173.532 8.13519 173.223 7.77654 172.871 7.46085L172.699 7.30269C173.314 7.3899 173.914 7.55737 174.484 7.8006C175.463 8.2165 176.294 8.81302 176.88 9.70048C177.442 10.5528 177.648 11.4998 177.634 12.5005C177.625 13.2103 177.5 13.9015 177.315 14.5859C177.305 14.62 177.296 14.6542 177.289 14.6903C177.289 14.6972 177.294 14.706 177.298 14.7294C177.498 14.663 177.657 14.5458 177.794 14.3965C178.109 14.0528 178.261 13.6369 178.324 13.1917C178.372 12.8422 178.384 12.4868 178.412 12.1373C178.407 12.1344 178.426 12.1393 178.433 12.152C179.102 13.2981 179.317 14.3311 178.926 15.7887C178.611 16.9905 177.616 18.534 175.447 18.7215C174.042 18.7957 173.287 18.5067 172.424 18.0302C171.568 17.4201 170.968 16.6244 170.711 15.6071C170.582 15.1138 170.609 14.5939 170.79 14.1163C171.038 13.4289 171.417 12.7938 171.908 12.2447C172.306 11.8054 172.605 11.3055 172.723 10.7178C172.783 10.4122 172.785 10.1095 172.72 9.80689C172.715 9.78105 172.717 9.75433 172.727 9.72976C173.463 10.462 173.567 11.3602 173.442 12.3306" fill="white"/>
<path d="M5.958 4.92347H0V0.3007H16.801V4.92347H10.844V21.1778H5.955V4.92347H5.958ZM29.724 0.3007H36.751L44.084 21.1778H38.737L37.362 17.0022H29.112L27.738 21.1778H22.391L29.724 0.3007ZM35.987 12.8266L33.543 5.36866H32.932L30.488 12.8256H35.988L35.987 12.8266ZM53.397 0.3007H63.785C67.605 0.3007 70.048 2.68677 70.048 6.1165C70.0581 7.33583 69.649 8.52323 68.886 9.48864C68.5645 9.90659 68.1841 10.278 67.756 10.5919V10.7393C68.246 11.0673 68.673 11.4266 69.039 11.8737C69.68 12.6782 70.354 13.7834 70.354 15.363C70.354 18.7928 67.91 21.1788 64.091 21.1788H53.397V0.3007ZM63.021 8.65195C64.243 8.65195 65.16 7.75766 65.16 6.56463C65.16 5.37061 64.243 4.47535 63.021 4.47535H58.286V8.65195H63.021ZM63.327 17.0042C64.549 17.0042 65.465 16.1089 65.465 14.9159C65.465 13.7228 64.549 12.8285 63.327 12.8285H58.286V17.0042H63.326H63.327ZM85.931 0.3007H92.958L100.29 21.1778H94.944L93.569 17.0022H85.32L83.945 21.1778H78.598L85.931 0.3007ZM92.194 12.8266L89.75 5.36866H89.139L86.694 12.8256L92.194 12.8266ZM112.967 14.3174C112.967 15.9869 114.342 17.3 116.939 17.3C119.536 17.3 120.605 16.2563 120.605 15.0633C120.605 14.0187 119.872 13.2737 117.55 12.8266L114.189 12.2301C110.37 11.5428 108.537 9.72392 108.537 6.4133C108.537 2.83419 111.41 0 116.634 0C122.286 0 125.341 2.98259 125.341 7.15919H120.453C120.453 5.51901 119.048 4.17562 116.634 4.17562C114.465 4.17562 113.426 5.22026 113.426 6.4133C113.426 7.45794 114.037 7.9949 116.023 8.35223L119.383 8.94777C123.661 9.69366 125.494 11.4842 125.494 15.0633C125.494 18.6424 122.591 21.4766 116.939 21.4766C111.287 21.4766 108.079 18.3446 108.079 14.3174H112.967ZM155.245 13.2757C154.91 14.7968 154.329 16.1685 153.505 17.3908C152.13 19.4498 149.625 21.4766 145.471 21.4766C139.696 21.4766 135.083 17.0315 135.083 10.7383C135.083 4.44508 139.696 0.00195338 145.468 0.00195338C149.593 0.00195338 152.037 2.00043 153.442 4.02918C154.266 5.22222 154.847 6.56462 155.245 8.05641H150.357C150.153 7.43706 149.832 6.86053 149.41 6.35667C148.676 5.49167 147.454 4.6257 145.468 4.6257C142.413 4.6257 139.969 7.01177 139.969 10.7402C139.969 14.4697 142.413 16.8558 145.468 16.8558C147.547 16.8558 148.767 15.9898 149.47 15.0652C149.886 14.5331 150.188 13.9245 150.357 13.2757H155.245ZM164.531 10.7402C164.531 4.44703 169.144 0.00195338 174.919 0.00195338C180.694 0.00195338 185.307 4.44703 185.307 10.7412C185.307 17.0335 180.694 21.4785 174.919 21.4785C169.144 21.4785 164.531 17.0335 164.531 10.7402ZM180.416 10.7402C180.416 7.01177 177.972 4.6257 174.917 4.6257C171.862 4.6257 169.417 7.01177 169.417 10.7402C169.417 14.4697 171.862 16.8558 174.917 16.8558C177.972 16.8558 180.416 14.4687 180.416 10.7402Z" fill="white"/>
</svg>
