<svg width="40" height="33" viewBox="0 0 40 33" fill="none" xmlns="http://www.w3.org/2000/svg">
<path fill-rule="evenodd" clip-rule="evenodd" d="M10.2647 17.5282C10.7426 17.3562 11.2695 17.6041 11.4415 18.0821L15.5801 29.5781C15.7521 30.056 15.5042 30.5828 15.0263 30.7549C14.5484 30.9269 14.0215 30.679 13.8494 30.2011L9.71087 18.7051C9.53882 18.2272 9.78677 17.7003 10.2647 17.5282Z" fill="white"/>
<path d="M15.5611 21.6123L15.1748 30.1791L20.6883 25.5026L15.5611 21.6123Z" fill="white"/>
<path fill-rule="evenodd" clip-rule="evenodd" d="M15.3658 21.1963C15.5205 21.1238 15.7027 21.143 15.8389 21.2463L20.9661 25.1366C21.0772 25.2209 21.1441 25.351 21.1478 25.4904C21.1516 25.6298 21.092 25.7634 20.9856 25.8536L15.4721 30.5302C15.3327 30.6485 15.1363 30.6729 14.9721 30.5923C14.8079 30.5117 14.7071 30.3415 14.7153 30.1588L15.1016 21.592C15.1093 21.4212 15.211 21.2688 15.3658 21.1963ZM15.9809 22.5085L15.6816 29.1466L19.9537 25.5229L15.9809 22.5085Z" fill="white"/>
<path d="M36.7087 0.993147L1.64586 14.3193C0.657204 14.6964 0.680196 16.1081 1.68725 16.4438L10.7277 19.4971L31.3194 7.13202L15.0134 21.4193L27.7096 31.0529C29.0294 32.0554 30.9469 31.3794 31.347 29.7746L38.2032 2.32668C38.4239 1.44379 37.5594 0.671259 36.7041 0.997745L36.7087 0.993147Z" fill="white"/>
<path fill-rule="evenodd" clip-rule="evenodd" d="M1.64586 14.3193C0.657204 14.6964 0.680196 16.1081 1.68725 16.4438L10.7277 19.4971L31.3194 7.13201L15.0134 21.4193L27.7096 31.0529C29.0294 32.0554 30.9469 31.3794 31.347 29.7746L38.2032 2.32668C38.2296 2.22096 38.2405 2.11682 38.2377 2.01596C38.217 1.27673 37.4615 0.713689 36.7108 0.99522C36.7104 0.995361 36.71 0.995502 36.7096 0.995643C36.7078 0.996338 36.7059 0.997039 36.7041 0.997745L36.7087 0.993146L1.64586 14.3193ZM17.9214 21.3168L28.8214 29.5876L28.8222 29.5882C29.0906 29.7921 29.4818 29.6522 29.5622 29.3296L36.0902 3.19596L4.15166 15.3347L10.5102 17.4822L30.3724 5.55512C31.1888 5.0649 32.2443 5.2788 32.8055 6.04815C33.3666 6.8175 33.2477 7.88791 32.5315 8.51545L17.9214 21.3168Z" fill="white"/>
</svg>
