<svg width="21" height="18" viewBox="0 0 21 18" fill="none" xmlns="http://www.w3.org/2000/svg">
<g clip-path="url(#clip0_2016_37)">
<path fill-rule="evenodd" clip-rule="evenodd" d="M5.47595 9.35104C5.7309 9.25925 6.01198 9.39153 6.10377 9.64648L8.31162 15.7794C8.4034 16.0344 8.27113 16.3154 8.01617 16.4072C7.76122 16.499 7.48014 16.3667 7.38836 16.1118L5.1805 9.97885C5.08872 9.7239 5.221 9.44282 5.47595 9.35104Z" fill="black"/>
<path d="M8.30177 11.5299L8.0957 16.1002L11.0371 13.6053L8.30177 11.5299Z" fill="black"/>
<path fill-rule="evenodd" clip-rule="evenodd" d="M8.19785 11.3078C8.28041 11.2691 8.37762 11.2794 8.45025 11.3345L11.1855 13.4099C11.2448 13.4548 11.2805 13.5243 11.2825 13.5986C11.2845 13.673 11.2527 13.7443 11.1959 13.7924L8.25459 16.2873C8.18018 16.3504 8.07543 16.3634 7.98783 16.3204C7.90023 16.2774 7.84644 16.1866 7.85084 16.0891L8.0569 11.5189C8.06101 11.4278 8.11529 11.3465 8.19785 11.3078ZM8.52599 12.0078L8.36632 15.5491L10.6454 13.616L8.52599 12.0078Z" fill="black"/>
<path d="M19.584 0.52986L0.878552 7.63915C0.351121 7.84031 0.363387 8.59343 0.900631 8.77251L5.72356 10.4014L16.7089 3.80484L8.00992 11.4268L14.7831 16.5662C15.4872 17.101 16.5101 16.7404 16.7236 15.8842L20.3813 1.24128C20.499 0.770271 20.0378 0.358138 19.5815 0.532313L19.584 0.52986Z" fill="black"/>
<path fill-rule="evenodd" clip-rule="evenodd" d="M0.878552 7.63915C0.351121 7.84031 0.363387 8.59343 0.900631 8.77251L5.72356 10.4014L16.7089 3.80484L8.00992 11.4268L14.7831 16.5662C15.4872 17.101 16.5101 16.7404 16.7236 15.8842L20.3813 1.24128C20.3954 1.18488 20.4012 1.12932 20.3997 1.07551C20.3887 0.681144 19.9856 0.380774 19.5851 0.530966C19.5849 0.531041 19.5847 0.531116 19.5845 0.531191C19.5835 0.531562 19.5825 0.531936 19.5815 0.532313L19.584 0.52986L0.878552 7.63915ZM9.56127 11.3722L15.3763 15.7845L15.3767 15.7848C15.5199 15.8936 15.7285 15.819 15.7714 15.6469L19.254 1.70502L2.21535 8.18082L5.60753 9.3265L16.2037 2.96359C16.6392 2.70207 17.2023 2.81618 17.5017 3.22662C17.801 3.63705 17.7376 4.2081 17.3555 4.54288L9.56127 11.3722Z" fill="black"/>
</g>
<defs>
<clipPath id="clip0_2016_37">
<rect width="20.8912" height="17.3071" fill="white"/>
</clipPath>
</defs>
</svg>
