<svg width="84" height="58" viewBox="0 0 84 58" fill="none" xmlns="http://www.w3.org/2000/svg">
<path d="M77.5703 1.47356C77.5703 1.52619 77.4333 1.57882 77.2541 1.57882C77.0855 1.57882 76.938 1.62092 76.938 1.67355C76.938 1.72618 76.6745 1.81038 76.3583 1.84195C76.0421 1.88406 75.7786 1.95773 75.7786 2.01036C75.7786 2.05246 75.494 2.12614 75.1462 2.16824C74.7984 2.21034 74.5139 2.27349 74.5139 2.3156C74.5139 2.3577 74.2715 2.42085 73.9658 2.45243C73.6707 2.49453 73.3967 2.56821 73.3651 2.62083C73.3334 2.67346 73.0489 2.74714 72.7538 2.78924C72.4481 2.83134 72.1952 2.90502 72.1952 2.95765C72.1952 3.01027 72.0792 3.05238 71.9317 3.05238C71.7841 3.05238 71.6682 3.09448 71.6682 3.14711C71.6682 3.19973 71.3625 3.28394 70.9831 3.31551C70.6037 3.35761 70.2981 3.43129 70.2981 3.47339C70.2981 3.5155 70.0662 3.57865 69.7711 3.62075C69.4865 3.66285 69.2441 3.73653 69.2441 3.77863C69.2441 3.83126 68.9806 3.90493 68.6644 3.94704C68.3482 3.97861 68.0848 4.06282 68.0848 4.11544C68.0848 4.16807 67.9688 4.21017 67.8213 4.21017C67.6737 4.21017 67.5578 4.2628 67.5578 4.31543C67.5578 4.37858 67.4313 4.42068 67.2732 4.42068C66.7779 4.42068 66.0822 4.54699 66.0822 4.63119C66.0822 4.68382 65.8188 4.75749 65.5026 4.78907C65.1864 4.83117 64.9229 4.90485 64.9229 4.94695C64.9229 4.99958 64.6594 5.07325 64.3432 5.10483C64.027 5.14693 63.7635 5.22061 63.7635 5.27324C63.7635 5.32586 63.6265 5.36797 63.4579 5.36797C63.2787 5.36797 63.1101 5.42059 63.0785 5.48375C63.0363 5.5469 62.8782 5.55742 62.6991 5.52584C62.5093 5.48375 62.3934 5.49427 62.3934 5.56795C62.3934 5.6311 62.2564 5.68373 62.0772 5.68373C61.9086 5.68373 61.761 5.72583 61.761 5.77846C61.761 5.83108 61.5292 5.90476 61.2341 5.94686C60.9495 5.98896 60.7071 6.06264 60.7071 6.10474C60.7071 6.15737 60.4014 6.23105 60.022 6.26262C59.6426 6.30473 59.3369 6.3784 59.3369 6.43103C59.3369 6.48366 59.1999 6.52576 59.0313 6.52576C58.8521 6.52576 58.694 6.56786 58.6624 6.62049C58.6308 6.67311 58.5043 6.69416 58.3989 6.66259C58.2935 6.63101 58.1671 6.66259 58.1354 6.72574C58.0933 6.78889 57.9457 6.84152 57.7982 6.84152C57.6612 6.84152 57.5452 6.88363 57.5452 6.93625C57.5452 6.98888 57.2817 7.06255 56.9656 7.10466C56.6494 7.13623 56.3859 7.20991 56.3859 7.26254C56.3859 7.30464 56.0592 7.37832 55.6481 7.42042C55.2476 7.46252 54.9103 7.5362 54.9103 7.5783C54.9103 7.63093 54.6469 7.70461 54.3307 7.73618C54.0145 7.77828 53.751 7.85196 53.751 7.90459C53.751 7.95721 53.6351 7.99932 53.4875 7.99932C53.34 7.99932 53.224 8.05194 53.224 8.1151C53.224 8.18877 53.1186 8.20982 52.9605 8.18877C52.813 8.1572 52.697 8.17825 52.697 8.22035C52.697 8.27298 52.5284 8.31508 52.3282 8.31508C52.1279 8.31508 51.9593 8.35718 51.9593 8.40981C51.9593 8.45191 51.6747 8.52559 51.3269 8.56769C50.9791 8.60979 50.6945 8.68347 50.6945 8.72557C50.6945 8.77819 50.431 8.85188 50.1149 8.89397C49.7987 8.92555 49.5352 9.00975 49.5352 9.06238C49.5352 9.11501 49.3982 9.15711 49.219 9.15711C49.0504 9.15711 48.9028 9.19921 48.9028 9.26236C48.9028 9.31499 48.7658 9.33604 48.5972 9.30447C48.4285 9.26236 48.2599 9.29394 48.2283 9.35709C48.1861 9.42025 48.0175 9.47287 47.8383 9.47287C47.6697 9.47287 47.5327 9.51497 47.5327 9.5676C47.5327 9.62023 47.2692 9.6939 46.953 9.73601C46.6368 9.76759 46.3733 9.84126 46.3733 9.89389C46.3733 9.93599 46.1098 10.0097 45.7937 10.0518C45.4775 10.0833 45.214 10.157 45.214 10.2097C45.214 10.2623 44.9294 10.336 44.5816 10.3781C44.2338 10.4202 43.9492 10.4938 43.9492 10.5359C43.9492 10.5886 43.7806 10.6307 43.5804 10.6307C43.3801 10.6307 43.2115 10.6728 43.2115 10.7254C43.2115 10.778 42.948 10.8622 42.6318 10.8938C42.3156 10.9359 42.0521 11.0096 42.0521 11.0517C42.0521 11.1043 41.7886 11.178 41.4725 11.2096C41.1563 11.2517 40.8928 11.3253 40.8928 11.3674C40.8928 11.4095 40.5871 11.4832 40.2077 11.5253C39.8283 11.5569 39.5226 11.6411 39.5226 11.6937C39.5226 11.7464 39.3856 11.7885 39.2065 11.7885C39.0378 11.7885 38.8903 11.8411 38.8903 11.9042C38.8903 11.9779 38.7849 11.999 38.6268 11.9569C38.4792 11.9148 38.3633 11.9358 38.3633 11.999C38.3633 12.0516 38.2263 12.1042 38.0471 12.1042C37.8785 12.1042 37.7309 12.1463 37.7309 12.2095C37.7309 12.2621 37.4464 12.3358 37.0986 12.3779C36.7507 12.42 36.4662 12.4831 36.4662 12.5252C36.4662 12.5673 36.1605 12.641 35.7811 12.6831C35.4017 12.7147 35.096 12.7989 35.096 12.8515C35.096 12.9042 34.9801 12.9463 34.8326 12.9463C34.685 12.9463 34.5691 12.9989 34.5691 13.062C34.5691 13.1357 34.4637 13.1568 34.3161 13.1147C34.1686 13.0831 34.021 13.0936 33.9894 13.1568C33.9578 13.2094 33.8102 13.262 33.6627 13.262C33.5257 13.262 33.4097 13.3041 33.4097 13.3567C33.4097 13.4094 33.083 13.4831 32.672 13.5252C32.2715 13.5673 31.9342 13.6409 31.9342 13.683C31.9342 13.7357 31.6707 13.8093 31.3545 13.8409C31.0383 13.883 30.7748 13.9567 30.7748 13.9988C30.7748 14.0409 30.5113 14.1146 30.1952 14.1567C29.879 14.1883 29.6155 14.2725 29.6155 14.3251C29.6155 14.3777 29.4469 14.4198 29.2466 14.4198C29.0464 14.4198 28.8777 14.4619 28.8777 14.5145C28.8777 14.5672 28.5721 14.6408 28.1927 14.6829C27.8132 14.7145 27.5076 14.7882 27.5076 14.8408C27.5076 14.8829 27.2441 14.9566 26.9279 14.9987C26.6117 15.0303 26.3482 15.1145 26.3482 15.1671C26.3482 15.2197 26.2534 15.2618 26.1374 15.2618C25.9688 15.2618 25.9267 15.1882 25.9267 14.8935C25.9267 14.6935 25.9688 14.5251 26.0215 14.5251C26.0742 14.5251 26.148 14.2619 26.1901 13.9462C26.2218 13.6304 26.2955 13.3673 26.3482 13.3673C26.3904 13.3673 26.4642 13.0831 26.5063 12.7357C26.5485 12.3884 26.6223 12.1042 26.675 12.1042C26.7277 12.1042 26.7698 11.9569 26.7698 11.7885C26.7698 11.6095 26.8014 11.4727 26.8541 11.4727C26.8963 11.4727 26.9279 10.8517 26.9279 10.1044C26.9279 9.34657 26.8963 8.7361 26.8541 8.7361C26.8014 8.7361 26.7698 8.64137 26.7698 8.52559C26.7698 8.40981 26.7277 8.31508 26.675 8.31508C26.6223 8.31508 26.5485 8.16772 26.5063 7.99932C26.4642 7.82038 26.3904 7.70461 26.3377 7.74671C26.285 7.77828 26.2428 7.73618 26.2428 7.6625C26.2428 7.48357 25.9267 7.19939 25.621 7.10466C25.4945 7.07308 25.3997 6.98888 25.3997 6.93625C25.3997 6.88363 25.3259 6.84152 25.2416 6.84152C25.1573 6.84152 25.0835 6.78889 25.0835 6.72574C25.0835 6.66259 25.0097 6.63101 24.9254 6.66259C24.8411 6.70469 24.7462 6.68364 24.7146 6.63101C24.6303 6.49418 22.164 6.49418 22.0797 6.63101C22.0481 6.68364 21.9533 6.70469 21.8689 6.66259C21.7846 6.63101 21.7108 6.66259 21.7108 6.72574C21.7108 6.78889 21.6581 6.84152 21.6055 6.84152C21.5106 6.84152 21.1101 7.15728 20.6991 7.55725C20.6147 7.63093 20.5515 7.76776 20.5515 7.85196C20.5515 7.93616 20.5093 7.99932 20.4461 7.99932C20.3934 7.99932 20.3407 8.09404 20.3407 8.20982C20.3407 8.3256 20.2986 8.42033 20.2353 8.42033C20.1826 8.42033 20.1615 8.48349 20.1932 8.56769C20.2248 8.65189 20.2037 8.74662 20.1405 8.78872C20.0772 8.8203 20.0245 8.9466 20.0245 9.06238C20.0245 9.16764 19.9824 9.26236 19.9191 9.26236C19.8664 9.26236 19.7927 9.49392 19.7505 9.78864C19.7083 10.0728 19.6451 10.3149 19.5924 10.3149C19.5397 10.3149 19.4659 10.5044 19.4343 10.7359C19.3922 10.9675 19.3289 11.1569 19.2762 11.1569C19.2341 11.1569 19.1603 11.3674 19.1181 11.6306C19.0865 11.8937 19.0127 12.1042 18.96 12.1042C18.9073 12.1042 18.8652 12.2411 18.8652 12.42C18.8652 12.5884 18.823 12.7357 18.7703 12.7357C18.7282 12.7357 18.6544 12.9778 18.6228 13.2725C18.5806 13.5673 18.5068 13.8725 18.4436 13.9462C18.3909 14.0093 18.3066 14.2935 18.275 14.5672C18.2328 14.8303 18.1696 15.0513 18.1274 15.0513C18.0747 15.0513 18.0115 15.2829 17.9693 15.5776C17.9272 15.8618 17.8534 16.1039 17.8007 16.1039C17.748 16.1039 17.7058 16.2407 17.7058 16.4091C17.7058 16.588 17.6531 16.7565 17.5899 16.7986C17.5267 16.8301 17.5056 16.9564 17.5372 17.0722C17.611 17.388 17.358 17.5774 16.7573 17.6511C16.4727 17.6827 16.2303 17.7458 16.2303 17.7879C16.2303 17.83 15.9668 17.9037 15.6506 17.9458C15.3344 17.9774 15.0709 18.0616 15.0709 18.1142C15.0709 18.1669 14.9339 18.209 14.7548 18.209C14.5861 18.209 14.4386 18.2511 14.4386 18.3037C14.4386 18.3563 14.1329 18.4405 13.7535 18.4721C13.3741 18.5142 13.0684 18.5879 13.0684 18.63C13.0684 18.6721 12.7839 18.7352 12.4361 18.7773C12.0883 18.8194 11.8037 18.8931 11.8037 18.9457C11.8037 18.9878 11.5191 19.0615 11.1713 19.1036C10.8235 19.1457 10.5706 19.2194 10.6022 19.272C10.6338 19.3246 10.5073 19.3668 10.3387 19.3668C10.1595 19.3668 10.012 19.4194 10.012 19.4825C10.012 19.5562 9.89604 19.5667 9.69579 19.5246C9.49554 19.4825 9.3796 19.4931 9.3796 19.5667C9.3796 19.6299 9.21097 19.6825 9.01072 19.6825C8.81047 19.6825 8.64184 19.7246 8.64184 19.7772C8.64184 19.8299 8.37835 19.9141 8.06216 19.9456C7.74598 19.9878 7.48249 20.0614 7.48249 20.1035C7.48249 20.1562 7.25062 20.2193 6.95551 20.2614C6.67095 20.3035 6.42854 20.3772 6.42854 20.4298C6.42854 20.4824 6.3126 20.5245 6.16505 20.5245C6.0175 20.5245 5.90156 20.5666 5.90156 20.6298C5.90156 20.6824 5.76455 20.7035 5.5643 20.6614C5.33243 20.6193 5.25865 20.6298 5.31135 20.714C5.36404 20.7982 5.26919 20.8403 5.01624 20.8403C4.80545 20.8403 4.63682 20.8824 4.63682 20.935C4.63682 20.9877 4.44711 21.0613 4.21524 21.1034C3.98337 21.1455 3.79366 21.2087 3.79366 21.2613C3.79366 21.314 3.60394 21.3771 3.37207 21.4192C3.14021 21.4613 2.95049 21.535 2.95049 21.5876C2.95049 21.6402 2.83456 21.6823 2.68701 21.6823C2.53945 21.6823 2.42352 21.735 2.42352 21.7981C2.42352 21.8507 2.38136 21.8718 2.31812 21.8402C2.21273 21.7771 1.58036 22.356 1.58036 22.5244C1.58036 22.5875 1.5382 22.6296 1.47496 22.6296C1.42226 22.6296 1.33795 22.7559 1.30633 22.9138C1.26417 23.0822 1.17985 23.2401 1.11662 23.2822C0.958524 23.3875 0.958524 25.6609 1.11662 25.7662C1.17985 25.8083 1.27471 25.9978 1.31687 26.1767C1.34849 26.3661 1.4328 26.524 1.4855 26.524C1.5382 26.524 1.58036 26.5977 1.58036 26.6819C1.58036 26.9029 2.61323 27.8923 2.85564 27.8923C2.96103 27.8923 3.05589 27.9344 3.05589 27.9871C3.05589 28.0397 3.26668 28.1134 3.53017 28.1449C4.08876 28.2291 6.02803 28.1134 5.95426 27.9976C5.92264 27.9555 6.30206 27.8818 6.79742 27.8397C7.29278 27.7976 7.69328 27.7239 7.69328 27.6713C7.69328 27.6187 7.84083 27.5766 8.00947 27.5766C8.18864 27.5766 8.32565 27.5239 8.32565 27.4608C8.32565 27.3871 8.43105 27.3661 8.58914 27.3871C8.73669 27.4187 8.88425 27.3976 8.91586 27.3555C8.94748 27.3029 9.10558 27.2608 9.28475 27.2608C9.45338 27.2608 9.59039 27.2187 9.59039 27.1661C9.59039 27.1134 9.94874 27.0398 10.3809 26.9977C10.813 26.9556 11.1502 26.8924 11.1186 26.8398C11.087 26.7977 11.3294 26.724 11.6456 26.6819C11.9618 26.6503 12.2253 26.5661 12.2253 26.5135C12.2253 26.4609 12.3728 26.4188 12.5415 26.4188C12.7206 26.4188 12.8576 26.3661 12.8576 26.303C12.8576 26.2293 12.963 26.2083 13.1106 26.2504C13.2581 26.2819 13.4057 26.2714 13.4373 26.2083C13.4689 26.1556 13.6587 26.103 13.8589 26.103C14.0486 26.103 14.2278 26.0609 14.2489 26.0188C14.3016 25.882 15.2817 25.7662 15.2817 25.8925C15.2817 25.9557 15.2396 25.9978 15.1763 25.9978C15.1236 25.9978 15.0709 26.1346 15.0709 26.3135C15.0709 26.4819 15.0182 26.6293 14.955 26.6293C14.8918 26.6293 14.8602 26.703 14.8918 26.7872C14.9339 26.8714 14.9129 26.9661 14.8602 26.9977C14.7969 27.0398 14.7548 27.2292 14.7548 27.4292C14.7548 27.6292 14.7126 27.7871 14.6599 27.7871C14.6177 27.7871 14.544 28.0713 14.5018 28.4186C14.4597 28.7659 14.3859 29.0501 14.3437 29.0501C14.291 29.0501 14.2172 29.3133 14.1751 29.629C14.1435 29.9448 14.0592 30.2079 14.0065 30.2079C13.9538 30.2079 13.9116 30.3342 13.9116 30.4816C13.9116 30.6289 13.88 30.7237 13.8273 30.6921C13.7851 30.671 13.764 30.8289 13.7851 31.0605C13.8167 31.3131 13.7851 31.471 13.7113 31.471C13.6481 31.471 13.5954 31.6078 13.5954 31.7867C13.5954 31.9551 13.5427 32.1025 13.4795 32.1025C13.4057 32.1025 13.3846 32.1972 13.4162 32.3235C13.4795 32.534 13.4479 32.6182 13.1949 33.1129C13.1317 33.2392 13.0579 33.555 13.0157 33.8287C12.9736 34.0918 12.8998 34.3128 12.8576 34.3128C12.8155 34.3128 12.7417 34.6181 12.6996 34.997C12.6679 35.3759 12.5836 35.6811 12.5309 35.6811C12.4782 35.6811 12.4361 35.818 12.4361 35.9969C12.4361 36.1653 12.3834 36.3127 12.3201 36.3127C12.2464 36.3127 12.2253 36.4179 12.2674 36.5653C12.2991 36.7126 12.2885 36.86 12.2253 36.8915C12.1726 36.9231 12.1199 37.0705 12.1199 37.2178C12.1199 37.3547 12.0777 37.4704 12.025 37.4704C11.9723 37.4704 11.888 37.7336 11.8564 38.0493C11.8142 38.3651 11.7405 38.6282 11.6983 38.6282C11.6561 38.6282 11.5824 38.9545 11.5402 39.365C11.498 39.765 11.4348 40.1018 11.3821 40.1018C11.34 40.1018 11.2662 40.3965 11.2346 40.7544C11.1924 41.1228 11.1081 41.4701 11.0448 41.5438C10.9711 41.6385 10.9711 41.7227 11.0659 41.8385C11.1397 41.9227 11.1713 42.1121 11.1502 42.2595C11.1186 42.3963 11.1397 42.4911 11.1819 42.4595C11.2346 42.4279 11.2767 42.4805 11.2767 42.5647C11.2767 42.6595 11.3294 42.7331 11.3821 42.7331C11.4454 42.7331 11.4875 42.8068 11.4875 42.9016C11.4875 43.0384 11.9196 43.5015 12.7101 44.1962C12.826 44.3014 13.0368 44.4277 13.1528 44.4698C13.2792 44.5014 13.3846 44.5751 13.3846 44.6382C13.3846 44.6909 13.5743 44.7646 13.8062 44.7961C14.0381 44.8382 14.2278 44.9014 14.2278 44.954C14.2278 45.0066 14.4386 45.0487 14.7021 45.0487C14.9656 45.0487 15.1763 45.0066 15.1763 44.954C15.1763 44.9014 15.3871 44.8277 15.6506 44.7856C15.9141 44.754 16.1038 44.6803 16.0722 44.6277C16.0406 44.5856 16.146 44.5119 16.2935 44.4804C16.5781 44.4067 17.495 43.5752 17.495 43.3752C17.495 43.312 17.5477 43.2594 17.6004 43.2594C17.6637 43.2594 17.7058 43.1857 17.7058 43.1015C17.7058 43.0173 17.7585 42.9437 17.8218 42.9437C17.885 42.9437 17.9061 42.8489 17.8639 42.7331C17.8218 42.6174 17.8428 42.5226 17.9061 42.5226C17.9693 42.5226 18.022 42.449 18.022 42.3648C18.022 42.2806 18.0642 42.2069 18.1169 42.2069C18.1696 42.2069 18.2433 42.07 18.2855 41.8911C18.3277 41.7227 18.3909 41.5754 18.4436 41.5754C18.4858 41.5754 18.5595 41.3859 18.6017 41.1543C18.6438 40.9228 18.7071 40.7333 18.7598 40.7333C18.8019 40.7333 18.8757 40.4702 18.9179 40.1544C18.9495 39.8387 19.0338 39.5755 19.0865 39.5755C19.1392 39.5755 19.1814 39.4597 19.1814 39.3229C19.1814 39.1756 19.2341 39.0282 19.2868 38.9966C19.35 38.9545 19.3711 38.8387 19.3395 38.723C19.2973 38.6072 19.3184 38.523 19.3816 38.523C19.4448 38.523 19.4975 38.4072 19.4975 38.2599C19.4975 38.1125 19.5397 37.9967 19.5924 37.9967C19.6451 37.9967 19.7294 37.7336 19.761 37.4178C19.8032 37.1021 19.877 36.8389 19.9191 36.8389C19.9613 36.8389 20.0245 36.5547 20.0667 36.2074C20.1088 35.8601 20.1826 35.5759 20.2353 35.5759C20.2986 35.5759 20.3407 35.4601 20.3407 35.3127C20.3407 35.1654 20.3934 35.0496 20.4461 35.0496C20.5093 35.0496 20.5304 34.9338 20.4883 34.7865C20.4461 34.6286 20.4672 34.5233 20.541 34.5233C20.6042 34.5233 20.6569 34.4076 20.6569 34.2602C20.6569 34.1128 20.6991 33.9971 20.7518 33.9971C20.8044 33.9971 20.8782 33.6918 20.9204 33.3129C20.952 32.934 21.0258 32.6288 21.0785 32.6288C21.1312 32.6288 21.205 32.3656 21.2366 32.0499C21.2787 31.7341 21.3525 31.471 21.3947 31.471C21.4474 31.471 21.5106 31.2289 21.5528 30.9447C21.5949 30.65 21.6687 30.4184 21.7214 30.4184C21.7741 30.4184 21.8162 30.2711 21.8162 30.1027C21.8162 29.9237 21.8689 29.7869 21.9322 29.7869C22.0165 29.7869 22.0376 29.6606 21.9954 29.4185C21.9638 29.2185 21.9743 29.0501 22.0376 29.0501C22.0903 29.0501 22.1324 28.9343 22.1324 28.787C22.1324 28.6396 22.1746 28.5239 22.2273 28.5239C22.28 28.5239 22.3538 28.2818 22.3959 27.9976C22.4381 27.7029 22.5119 27.4713 22.554 27.4713C22.6067 27.4713 22.6805 27.1871 22.7226 26.8398C22.7648 26.4925 22.8386 26.2083 22.8807 26.2083C22.9334 26.2083 22.9756 26.0925 22.9756 25.9557C22.9756 25.8083 23.0283 25.6609 23.081 25.6294C23.1442 25.5873 23.1653 25.4715 23.1337 25.3662C23.1021 25.261 23.1231 25.1452 23.1864 25.1031C23.2391 25.0715 23.2918 24.9452 23.2918 24.8294C23.2918 24.7137 23.3339 24.64 23.3866 24.6716C23.4288 24.7031 23.5026 24.5137 23.5447 24.2505C23.608 23.7874 23.7977 23.4717 24.019 23.4717C24.0822 23.4717 24.1349 23.4296 24.1349 23.3769C24.1349 23.3243 24.4195 23.2506 24.7673 23.2085C25.1151 23.1664 25.3997 23.0927 25.3997 23.0506C25.3997 22.998 25.7053 22.9243 26.0847 22.8928C26.4642 22.8507 26.7698 22.777 26.7698 22.7349C26.7698 22.6928 27.0333 22.6191 27.3495 22.577C27.6657 22.5454 27.9292 22.4612 27.9292 22.4086C27.9292 22.356 28.0767 22.3139 28.2454 22.3139C28.4245 22.3139 28.5615 22.2718 28.5615 22.2086C28.5615 22.156 28.8461 22.0823 29.1939 22.0402C29.5417 21.9981 29.8263 21.9349 29.8263 21.8928C29.8263 21.8507 30.1108 21.7876 30.4587 21.7455C30.8065 21.7034 31.1121 21.6297 31.1437 21.5771C31.1859 21.5139 31.3229 21.4718 31.4599 21.4718C31.5969 21.4718 31.7339 21.4297 31.7656 21.3771C31.7972 21.335 31.9553 21.314 32.1028 21.3455C32.3031 21.3771 32.3663 21.3561 32.3136 21.2719C32.2609 21.1982 32.3452 21.1561 32.556 21.1561C32.7352 21.1561 32.8827 21.1034 32.8827 21.0403C32.8827 20.9877 32.9671 20.9456 33.0725 20.9561C33.3149 20.9877 34.0526 20.8508 34.274 20.7351C34.3688 20.6824 34.685 20.6087 34.9801 20.5666C35.2752 20.5245 35.5176 20.4614 35.5176 20.4088C35.5176 20.3667 35.7811 20.293 36.0973 20.2614C36.4135 20.2193 36.677 20.1456 36.677 20.093C36.677 20.0404 36.7929 19.9983 36.9299 19.9983C37.0775 19.9983 37.225 19.9562 37.2566 19.893C37.2883 19.8404 37.4569 19.8193 37.6255 19.8614C37.8258 19.893 37.9417 19.872 37.9417 19.7983C37.9417 19.7351 38.1103 19.6825 38.3106 19.6825C38.5108 19.6825 38.6795 19.6404 38.6795 19.5878C38.6795 19.5352 38.9219 19.4615 39.2065 19.4194C39.491 19.3773 39.7334 19.3141 39.7334 19.2615C39.7334 19.2194 39.9969 19.1457 40.3131 19.1036C40.6293 19.072 40.8928 18.9878 40.8928 18.9352C40.8928 18.8826 41.0825 18.8405 41.3144 18.8405C41.5462 18.8405 41.7359 18.7879 41.7359 18.7247C41.7359 18.651 41.8519 18.6405 42.0521 18.6826C42.2524 18.7247 42.3683 18.7142 42.3683 18.6405C42.3683 18.5773 42.5159 18.5247 42.6845 18.5247C42.8637 18.5247 43.0007 18.4826 43.0007 18.43C43.0007 18.3774 43.2642 18.3037 43.5804 18.2616C43.8965 18.23 44.16 18.1563 44.16 18.1037C44.16 18.0616 44.413 17.9879 44.7186 17.9458C45.0137 17.9037 45.3194 17.83 45.3721 17.7879C45.4353 17.7458 45.7515 17.6722 46.0888 17.6406C46.4155 17.5985 46.6895 17.5143 46.6895 17.4617C46.6895 17.409 46.8371 17.3669 47.0057 17.3669C47.1849 17.3669 47.3219 17.3143 47.3219 17.2511C47.3219 17.188 47.4167 17.1564 47.5327 17.188C47.6486 17.2196 47.7751 17.1985 47.8067 17.1459C47.8383 17.0933 47.9753 17.0512 48.1229 17.0512C48.2599 17.0512 48.3758 17.0091 48.3758 16.9564C48.3758 16.9143 48.7131 16.8301 49.1136 16.7986C49.5247 16.7565 49.8514 16.6828 49.8514 16.6407C49.8514 16.588 50.1149 16.5144 50.431 16.4723C50.7472 16.4407 51.0107 16.3565 51.0107 16.3039C51.0107 16.2512 51.1267 16.2091 51.2637 16.2091C51.4112 16.2091 51.5482 16.167 51.5799 16.1144C51.6115 16.0618 51.738 16.0407 51.8433 16.0723C51.9487 16.1039 52.0752 16.0723 52.1068 16.0091C52.149 15.946 52.3492 15.8934 52.5495 15.8934C52.7497 15.8934 52.9078 15.8513 52.9078 15.7986C52.9078 15.746 53.1924 15.6723 53.5402 15.6302C53.888 15.5881 54.1726 15.5145 54.1726 15.4724C54.1726 15.4197 54.4361 15.346 54.7523 15.3145C55.0684 15.2724 55.3319 15.1987 55.3319 15.1461C55.3319 15.0934 55.4479 15.0513 55.5849 15.0513C55.7324 15.0513 55.88 14.9987 55.9116 14.9461C55.9432 14.8829 56.0908 14.8724 56.2383 14.904C56.3859 14.9461 56.4913 14.925 56.4913 14.8514C56.4913 14.7882 56.6283 14.7356 56.7969 14.7356C56.9761 14.7356 57.1342 14.6935 57.1658 14.6408C57.1974 14.5882 57.5136 14.5145 57.8614 14.4724C58.2092 14.4303 58.4938 14.3567 58.4938 14.3146C58.4938 14.2619 58.7573 14.1883 59.0735 14.1567C59.3896 14.1146 59.6531 14.0409 59.6531 13.9988C59.6531 13.9462 59.9166 13.8725 60.2328 13.8409C60.549 13.7988 60.8441 13.7251 60.8757 13.6725C60.9073 13.6199 61.097 13.5778 61.2973 13.5778C61.4976 13.5778 61.6556 13.5252 61.6556 13.4725C61.6556 13.4094 61.7716 13.3883 61.9191 13.4304C62.0772 13.4725 62.1826 13.4515 62.1826 13.3778C62.1826 13.3146 62.2986 13.262 62.4461 13.262C62.5937 13.262 62.7096 13.2199 62.7096 13.1673C62.7096 13.1147 62.9731 13.041 63.2893 12.9989C63.6055 12.9673 63.8689 12.8936 63.8689 12.841C63.8689 12.7989 64.2062 12.7252 64.6067 12.6831C65.0178 12.641 65.3445 12.5673 65.3445 12.5147C65.3445 12.4621 65.4393 12.42 65.5447 12.42C65.6607 12.42 65.7871 12.3674 65.8188 12.3147C65.8504 12.2516 65.9979 12.2411 66.1455 12.2726C66.293 12.3147 66.3984 12.2937 66.3984 12.22C66.3984 12.1568 66.5144 12.1042 66.6619 12.1042C66.8095 12.1042 66.9254 12.0621 66.9254 12.0095C66.9254 11.9569 67.231 11.8727 67.6105 11.8411C67.9899 11.799 68.2955 11.7253 68.2955 11.6832C68.2955 11.6306 68.5801 11.5674 68.9279 11.5253C69.2757 11.4832 69.5603 11.4095 69.5603 11.3569C69.5603 11.3043 69.6762 11.2622 69.8132 11.2622C69.9608 11.2622 70.0978 11.2201 70.1294 11.1675C70.161 11.1254 70.3086 11.1043 70.4561 11.1359C70.6142 11.1569 70.7196 11.1359 70.7196 11.0622C70.7196 10.9991 70.8356 10.9464 70.9831 10.9464C71.1307 10.9464 71.2466 10.9043 71.2466 10.8517C71.2466 10.7991 71.5839 10.7254 71.9844 10.6833C72.3954 10.6412 72.7221 10.5675 72.7221 10.5254C72.7221 10.4728 72.9646 10.4096 73.2491 10.3675C73.5442 10.3254 73.7761 10.2623 73.7761 10.2097C73.7761 10.1675 74.0396 10.0939 74.3558 10.0518C74.672 10.0202 74.9354 9.93599 74.9354 9.88336C74.9354 9.83074 75.083 9.78864 75.2516 9.78864C75.4308 9.78864 75.5678 9.74653 75.5678 9.6939C75.5678 9.64128 75.6732 9.59918 75.8102 9.58865C76.2423 9.57812 76.8326 9.45182 76.8326 9.36762C76.8326 9.32552 77.096 9.25184 77.4122 9.20974C77.7284 9.17816 77.9919 9.10448 77.9919 9.05186C77.9919 9.00975 78.2027 8.93608 78.4662 8.9045C78.7297 8.8624 78.9405 8.78872 78.9405 8.72557C78.9405 8.67294 79.0775 8.63084 79.2461 8.63084C79.4253 8.63084 79.5939 8.57821 79.6255 8.52559C79.6677 8.46243 79.7836 8.44138 79.8996 8.47296C80.0155 8.51506 80.0998 8.49401 80.0998 8.43086C80.0998 8.36771 80.1736 8.31508 80.2579 8.31508C80.3422 8.31508 80.416 8.27298 80.416 8.22035C80.416 8.16772 80.5636 8.09404 80.7322 8.05194C80.9114 8.00984 81.0484 7.94669 81.0484 7.89406C81.0484 7.85196 81.1748 7.77828 81.3224 7.74671C81.628 7.6625 81.8915 7.44147 81.8915 7.27306C81.8915 7.20991 81.9442 7.15728 81.9969 7.15728C82.0602 7.15728 82.1023 7.08361 82.1023 6.9994C82.1023 6.9152 82.155 6.84152 82.2183 6.84152C82.2815 6.84152 82.3131 6.76785 82.271 6.68364C82.2393 6.59944 82.2604 6.52576 82.3131 6.52576C82.3764 6.52576 82.4185 6.38893 82.4185 6.22052C82.4185 6.04159 82.4712 5.87318 82.5239 5.84161C82.5871 5.81003 82.6293 5.47322 82.6293 5.0943C82.6293 4.71539 82.5871 4.42068 82.5239 4.42068C82.4712 4.42068 82.4185 4.3049 82.4185 4.16807C82.4185 4.02071 82.3658 3.87336 82.3026 3.84178C82.2499 3.79968 82.2183 3.71548 82.2393 3.65232C82.2604 3.57865 82.1972 3.45234 82.1023 3.36814C82.0075 3.28394 81.881 3.09448 81.8388 2.94712C81.7545 2.69451 81.5437 2.42085 81.4173 2.42085C81.3751 2.42085 81.2065 2.27349 81.0273 2.10509C80.8587 1.92616 80.6479 1.78933 80.5636 1.78933C80.4792 1.78933 80.416 1.7367 80.416 1.68407C80.416 1.62092 80.3211 1.57882 80.2052 1.57882C80.0893 1.57882 79.9944 1.52619 79.9944 1.47356C79.9944 1.41041 79.5201 1.36831 78.7824 1.36831C78.0446 1.36831 77.5703 1.41041 77.5703 1.47356Z" fill="white"/>
<path d="M76.5156 9.63075C76.5156 9.66232 76.5367 9.68337 76.5683 9.68337C76.5999 9.68337 76.621 9.66232 76.621 9.63075C76.621 9.59917 76.5999 9.57812 76.5683 9.57812C76.5367 9.57812 76.5156 9.59917 76.5156 9.63075Z" fill="white"/>
<path d="M69.6772 13.5462C69.5402 13.5672 69.3504 13.662 69.2767 13.7462C69.1924 13.8304 69.0659 13.8935 69.0026 13.8935C68.9289 13.8935 68.7813 14.0093 68.6759 14.1567C68.5705 14.304 68.4335 14.4198 68.3808 14.4198C68.2543 14.4198 68.2227 14.4409 66.0621 16.5775C64.966 17.6616 64.1334 18.4089 64.1018 18.3353C64.0491 18.1669 63.4272 17.5774 63.3008 17.5774C63.2586 17.5774 63.0373 17.388 62.8159 17.1564C62.5946 16.9249 62.3417 16.7354 62.2468 16.7354C62.152 16.7354 62.0782 16.6933 62.0782 16.6407C62.0782 16.588 61.9517 16.5144 61.7936 16.4723C61.6355 16.4407 61.4774 16.3565 61.4353 16.3039C61.4036 16.2512 61.0664 16.1775 60.687 16.1354C59.9387 16.0723 58.9901 16.167 59.0744 16.3144C59.106 16.3565 58.9585 16.4302 58.7582 16.4617C58.558 16.5038 58.3893 16.5775 58.3893 16.6301C58.3893 16.6933 58.3366 16.7354 58.2839 16.7354C58.1153 16.7354 57.1246 17.7774 57.1246 17.9458C57.1246 18.03 57.0824 18.1037 57.0192 18.1037C56.9665 18.1037 56.9138 18.1984 56.9138 18.3037C56.9138 18.4195 56.8506 18.5247 56.7873 18.5563C56.5871 18.6194 56.6082 20.6087 56.7979 20.7245C56.8822 20.7772 56.9033 20.8719 56.8717 20.935C56.8295 20.9982 56.8611 21.0824 56.956 21.114C57.0403 21.1455 57.1457 21.3139 57.1773 21.4824C57.2195 21.6508 57.2827 21.7876 57.3354 21.7876C57.3775 21.7876 57.4513 21.9034 57.4829 22.0402C57.5146 22.1876 57.7148 22.4717 57.9151 22.6823C58.1153 22.9033 58.305 23.1664 58.3366 23.2717C58.3788 23.3769 58.4526 23.4717 58.5053 23.4717C58.695 23.4717 58.5896 23.9137 58.3366 24.1663C58.1891 24.3137 58.0732 24.4716 58.0732 24.5242C58.0732 24.5873 58.0205 24.6294 57.9572 24.6294C57.8518 24.6294 57.5146 24.9557 57.0614 25.4925C56.9981 25.5662 56.7979 25.7451 56.6187 25.882C56.429 26.0188 56.2814 26.1767 56.2814 26.2188C56.2814 26.3451 55.9336 26.7345 55.8282 26.7345C55.7228 26.7345 55.4383 27.0082 55.4383 27.1029C55.4383 27.145 55.2275 27.3871 54.964 27.6502C54.7005 27.9029 54.4897 28.187 54.4897 28.2712C54.4897 28.3554 54.4476 28.4186 54.3843 28.4186C54.3316 28.4186 54.2789 28.4923 54.2789 28.5765C54.2789 28.6607 54.2368 28.7344 54.1735 28.7344C54.1208 28.7344 54.0471 28.9028 54.0049 29.1027C53.9733 29.3027 53.8995 29.4711 53.8468 29.4711C53.7941 29.4711 53.752 29.829 53.752 30.2605C53.752 30.6921 53.7941 31.0499 53.8468 31.0499C53.8995 31.0499 53.9733 31.2394 54.0154 31.471C54.0576 31.7025 54.1314 31.892 54.1841 31.892C54.2368 31.892 54.2789 31.9341 54.2789 31.9972C54.2789 32.1762 55.3434 33.155 55.5437 33.155C55.6491 33.155 55.7545 33.2077 55.7755 33.2708C55.7966 33.334 56.1128 33.4076 56.4712 33.4392C56.8295 33.4708 57.1246 33.5445 57.1246 33.5866C57.1246 33.6392 57.3881 33.6813 57.7043 33.6813C58.0205 33.6813 58.2839 33.6392 58.2839 33.5866C58.2839 33.5339 58.5264 33.4708 58.8109 33.4287C59.106 33.3866 59.3379 33.3129 59.3379 33.2603C59.3379 33.2077 59.4433 33.134 59.5698 33.0919C59.6962 33.0603 60.023 32.7972 60.297 32.513C60.571 32.2288 60.8451 31.9972 60.8872 31.9972C60.9399 31.9972 61.098 31.8499 61.235 31.6815C61.7304 31.071 61.9412 30.8394 62.0255 30.8394C62.0676 30.8394 62.5103 30.4289 63.0057 29.9343C63.9331 28.987 64.2177 28.8501 64.555 29.1975C64.6498 29.2922 64.7658 29.3659 64.8079 29.3659C64.8501 29.3659 65.0503 29.5238 65.2611 29.7237C65.4719 29.9237 65.6722 30.0606 65.6932 30.029C65.7249 29.9974 65.8197 30.0711 65.8935 30.1974C65.9673 30.3237 66.0832 30.4184 66.157 30.4184C66.2202 30.4184 66.3572 30.4921 66.4521 30.5868C66.5364 30.6816 66.7999 30.7763 67.0318 30.8079C67.2636 30.8394 67.4533 30.9131 67.4533 30.9552C67.4533 31.0078 67.759 31.0499 68.1384 31.0499C68.5178 31.0499 68.8235 31.0078 68.8235 30.9552C68.8235 30.9026 69.0026 30.8394 69.224 30.7973C69.4348 30.7658 69.7404 30.6184 69.8985 30.471C70.0566 30.3237 70.2042 30.2079 70.2358 30.2079C70.3306 30.2079 70.9314 29.5869 70.9314 29.4922C70.9314 29.408 71.0473 29.2501 71.4584 28.7659C71.5111 28.6923 71.5637 28.4923 71.5637 28.3133C71.5637 28.1449 71.6164 27.9976 71.6691 27.9976C71.7324 27.9976 71.7745 27.7871 71.7745 27.5239C71.7745 27.2608 71.7324 27.0503 71.6691 27.0503C71.6164 27.0503 71.5637 26.8819 71.5637 26.6819C71.5637 26.4819 71.5216 26.3135 71.4584 26.3135C71.4057 26.3135 71.353 26.2504 71.353 26.1662C71.353 26.082 71.2897 25.9451 71.2265 25.8714C71.0684 25.703 70.8576 25.3768 70.7522 25.1557C70.71 25.0715 70.5414 24.8821 70.3833 24.7347C70.2252 24.5979 70.0882 24.44 70.0882 24.3874C70.0882 24.3032 69.9407 24.1032 69.635 23.7979C69.5191 23.6716 69.4769 23.5348 69.5296 23.4085C69.6245 23.1559 69.8985 22.8401 70.025 22.8401C70.1093 22.8401 70.3306 22.6086 70.7733 22.0507C70.8892 21.9139 71.0262 21.7876 71.0789 21.7876C71.237 21.7876 71.7429 21.2087 71.6902 21.0719C71.6691 20.9982 71.7218 20.9456 71.8062 20.9456C71.9643 20.9456 72.5123 20.514 72.5123 20.3877C72.5123 20.2298 73.3238 19.3667 73.4714 19.3667C73.5241 19.3667 73.5873 19.251 73.6295 19.1036C73.6611 18.9563 73.7349 18.8405 73.7876 18.8405C73.8297 18.8405 73.9035 18.6721 73.9457 18.4721C73.9773 18.2721 74.0511 18.1037 74.1038 18.1037C74.1565 18.1037 74.1986 18.009 74.1986 17.9037C74.1986 17.7879 74.2513 17.6616 74.304 17.6301C74.3673 17.5985 74.4094 17.2827 74.4094 16.9459C74.4094 16.6091 74.3673 16.2933 74.304 16.2618C74.2513 16.2302 74.1986 16.0828 74.1986 15.9355C74.1986 15.7986 74.1565 15.6829 74.1038 15.6829C74.0511 15.6829 73.9773 15.5039 73.9351 15.2829C73.8824 15.0198 73.7138 14.7461 73.4082 14.4514C73.1658 14.2093 72.9866 13.9883 73.0077 13.9567C73.0287 13.9356 72.8917 13.883 72.702 13.8409C72.5123 13.7988 72.3226 13.7146 72.291 13.662C72.2172 13.5462 70.0988 13.4515 69.6772 13.5462Z" fill="white"/>
<path d="M73.459 14.2619C73.459 14.2935 73.4801 14.3146 73.5117 14.3146C73.5433 14.3146 73.5644 14.2935 73.5644 14.2619C73.5644 14.2304 73.5433 14.2093 73.5117 14.2093C73.4801 14.2093 73.459 14.2304 73.459 14.2619Z" fill="white"/>
<path d="M27.9297 14.5777C27.9297 14.6093 27.9508 14.6303 27.9824 14.6303C28.014 14.6303 28.0351 14.6093 28.0351 14.5777C28.0351 14.5461 28.014 14.5251 27.9824 14.5251C27.9508 14.5251 27.9297 14.5461 27.9297 14.5777Z" fill="white"/>
<path d="M48.565 19.1247C48.3964 19.1457 48.2699 19.2089 48.2699 19.2615C48.2699 19.3773 47.8483 19.5246 47.6375 19.4825C47.5532 19.4615 47.5111 19.4825 47.5427 19.5141C47.5848 19.5562 47.4584 19.7457 47.2792 19.9351C46.8049 20.4509 46.5836 20.7561 46.5836 20.914C46.5836 20.9877 46.5414 21.0508 46.4782 21.0508C46.4255 21.0508 46.3728 21.1245 46.3728 21.2087C46.3728 21.2929 46.3201 21.3666 46.2569 21.3666C46.1936 21.3666 46.162 21.4403 46.1936 21.5245C46.2358 21.6087 46.2147 21.7034 46.162 21.735C46.0988 21.7771 46.0566 21.9139 46.0566 22.0613C46.0566 22.1981 46.0145 22.3139 45.9618 22.3139C45.8985 22.3139 45.8247 22.5244 45.7826 22.7875C45.751 23.0506 45.6772 23.2612 45.635 23.2612C45.5929 23.2612 45.5191 23.4717 45.4875 23.7348C45.4453 23.9979 45.3715 24.2084 45.3083 24.2084C45.2556 24.2084 45.2134 24.3453 45.2134 24.5137C45.2134 24.6926 45.1607 24.861 45.0975 24.9031C45.0343 24.9347 45.0027 25.1031 45.0448 25.2715C45.0764 25.4294 45.0554 25.5978 45.0027 25.6294C44.9394 25.6609 44.8973 25.7872 44.8973 25.903C44.8973 26.0083 44.8551 26.103 44.8024 26.103C44.7497 26.103 44.6759 26.3661 44.6338 26.6819C44.6022 26.9977 44.5284 27.2608 44.4757 27.2608C44.423 27.2608 44.3492 27.566 44.3176 27.945C44.2754 28.3239 44.2017 28.6291 44.149 28.6291C44.0963 28.6291 44.0541 28.8186 44.0541 29.0501C44.0541 29.2817 44.0014 29.4711 43.9382 29.4711C43.8644 29.4711 43.8538 29.5869 43.896 29.7869C43.9382 29.9869 43.9276 30.1027 43.8538 30.1027C43.7906 30.1027 43.7379 30.2395 43.7379 30.4184C43.7379 30.5868 43.6958 30.7342 43.6431 30.7342C43.5904 30.7342 43.5166 31.0605 43.4744 31.471C43.4323 31.8709 43.3585 32.2077 43.3058 32.2077C43.2531 32.2077 43.2109 32.6814 43.2109 33.2603C43.2109 33.8918 43.2531 34.3128 43.3163 34.3128C43.3796 34.3128 43.4217 34.3865 43.4217 34.4707C43.4217 34.5549 43.4744 34.6286 43.5377 34.6286C43.6009 34.6286 43.6325 34.6812 43.6114 34.7549C43.5482 34.9233 44.5495 35.9022 45.0343 36.1442C45.2451 36.26 45.4242 36.3863 45.4242 36.4495C45.4242 36.5021 45.498 36.5232 45.5823 36.4916C45.6666 36.4495 45.7615 36.4705 45.7931 36.5232C45.8353 36.5863 45.9934 36.6284 46.1725 36.6284C46.3412 36.6284 46.4782 36.6705 46.4782 36.7337C46.4782 36.7863 46.6468 36.8389 46.8471 36.8389C47.0473 36.8389 47.216 36.7863 47.216 36.7337C47.216 36.6705 47.3319 36.6284 47.4689 36.6284C47.7324 36.6284 48.3015 36.3653 48.565 36.1232C48.6388 36.06 48.7547 35.9969 48.8074 35.9969C48.9339 35.9969 49.3239 35.6074 49.3239 35.4706C49.3239 35.3654 49.4082 35.2496 49.7138 34.9022C49.7876 34.818 49.8719 34.6391 49.9141 34.4812C49.9457 34.3339 50.0195 34.2076 50.0722 34.2076C50.1249 34.2076 50.1986 34.0181 50.2303 33.7866C50.2724 33.555 50.3357 33.3655 50.3884 33.3655C50.4305 33.3655 50.5043 33.155 50.5464 32.8919C50.5781 32.6288 50.6518 32.4183 50.7045 32.4183C50.7572 32.4183 50.7994 32.3235 50.7994 32.2077C50.7994 32.092 50.8416 31.9972 50.8942 31.9972C50.9469 31.9972 51.0102 31.7552 51.0523 31.471C51.0945 31.1763 51.1683 30.9447 51.221 30.9447C51.2631 30.9447 51.3474 30.6395 51.3791 30.2605C51.4212 29.8816 51.495 29.5764 51.5372 29.5764C51.5899 29.5764 51.6531 29.3343 51.6953 29.0501C51.7374 28.7554 51.8112 28.5239 51.8639 28.5239C51.9166 28.5239 51.9587 28.4081 51.9587 28.2607C51.9587 28.1134 52.0009 27.9976 52.0536 27.9976C52.1063 27.9976 52.1906 27.6923 52.2222 27.3134C52.2644 26.9345 52.3382 26.6293 52.3803 26.6293C52.4225 26.6293 52.4963 26.2925 52.5384 25.8925C52.5806 25.482 52.6544 25.1557 52.6965 25.1557C52.7492 25.1557 52.823 24.8505 52.8546 24.4716C52.8968 24.0927 52.9705 23.7874 53.0232 23.7874C53.0759 23.7874 53.1181 23.219 53.1181 22.5244C53.1181 21.8297 53.0759 21.2613 53.0232 21.2613C52.9705 21.2613 52.9073 21.114 52.8651 20.9456C52.8335 20.7666 52.7492 20.5561 52.686 20.4824C52.2433 19.9562 51.9587 19.6825 51.8639 19.6825C51.8006 19.6825 51.748 19.6404 51.748 19.5773C51.748 19.5246 51.6742 19.5036 51.5899 19.5352C51.5055 19.5773 51.4318 19.5457 51.4318 19.4825C51.4318 19.4194 51.3158 19.3668 51.1788 19.3668C51.0418 19.3668 50.9048 19.3141 50.8837 19.251C50.8416 19.1247 49.092 19.0299 48.565 19.1247Z" fill="white"/>
<path d="M4.84766 20.6824C4.84766 20.714 4.86874 20.7351 4.90035 20.7351C4.93197 20.7351 4.95305 20.714 4.95305 20.6824C4.95305 20.6509 4.93197 20.6298 4.90035 20.6298C4.86874 20.6298 4.84766 20.6509 4.84766 20.6824Z" fill="white"/>
<path d="M33.832 20.9982C33.832 21.0298 33.8531 21.0508 33.8847 21.0508C33.9163 21.0508 33.9374 21.0298 33.9374 20.9982C33.9374 20.9666 33.9163 20.9456 33.8847 20.9456C33.8531 20.9456 33.832 20.9666 33.832 20.9982Z" fill="white"/>
<path d="M33.7263 23.0506C33.7263 23.1033 33.5576 23.1559 33.3574 23.1559C33.1571 23.1559 32.9885 23.2085 32.9885 23.2612C32.9885 23.3243 32.8831 23.3454 32.7355 23.3033C32.5985 23.2717 32.451 23.2927 32.4194 23.3559C32.3772 23.419 32.2507 23.4717 32.1348 23.4717C32.0294 23.4717 31.9345 23.5138 31.9345 23.5664C31.9345 23.619 31.7027 23.6927 31.4076 23.7348C31.123 23.7769 30.8806 23.8506 30.8806 23.8927C30.8806 23.9453 30.7436 24.0085 30.5644 24.0506C30.3958 24.0927 30.2482 24.1663 30.2482 24.219C30.2482 24.2716 30.1744 24.3137 30.0901 24.3137C30.0058 24.3137 29.932 24.3558 29.932 24.4189C29.932 24.4716 29.8161 24.5452 29.6685 24.5874C29.521 24.6189 29.405 24.6926 29.405 24.7347C29.405 24.7768 29.2997 24.84 29.1626 24.8821C29.0362 24.9136 28.7621 25.082 28.5619 25.261C28.3722 25.4294 28.1508 25.5767 28.0771 25.5767C28.0033 25.5767 27.919 25.6715 27.8768 25.7767C27.8452 25.8925 27.7187 26.0188 27.6028 26.0504C27.4974 26.0925 27.4025 26.1662 27.4025 26.2188C27.4025 26.2714 27.3288 26.3135 27.2444 26.3135C27.1496 26.3135 27.0442 26.3977 27.0126 26.4924C26.9283 26.703 26.7175 26.945 26.6121 26.945C26.5172 26.945 26.2221 27.2608 25.8848 27.7134C25.7268 27.9239 25.5581 28.0818 25.4949 28.0502C25.4422 28.0186 25.4316 28.0607 25.4633 28.1555C25.5054 28.2607 25.4316 28.4081 25.2525 28.5554C25.1049 28.6923 24.9784 28.8712 24.9784 28.9764C24.9784 29.0712 24.9363 29.1554 24.8836 29.1554C24.8309 29.1554 24.7571 29.2922 24.715 29.4711C24.6728 29.6395 24.6096 29.7869 24.5569 29.7869C24.5147 29.7869 24.4409 29.9132 24.3988 30.0711C24.3672 30.229 24.2934 30.3868 24.2618 30.4184C24.1247 30.5237 23.8191 31.1342 23.8191 31.3026C23.8191 31.3973 23.7769 31.471 23.7242 31.471C23.661 31.471 23.5872 31.6815 23.5451 31.9446C23.5135 32.2077 23.4397 32.4183 23.3975 32.4183C23.3554 32.4183 23.2816 32.5867 23.25 32.7866C23.2078 32.9866 23.134 33.155 23.0813 33.155C23.0181 33.155 22.9759 33.2708 22.9759 33.4182C22.9759 33.5655 22.9232 33.6813 22.8705 33.6813C22.8073 33.6813 22.7862 33.7866 22.8284 33.9339C22.86 34.0707 22.8389 34.2181 22.7757 34.2497C22.7124 34.2918 22.6598 34.4602 22.6598 34.6391C22.6598 34.8075 22.6176 34.9443 22.5649 34.9443C22.5122 34.9443 22.4384 35.218 22.3963 35.5443C22.3541 35.8811 22.2698 36.1863 22.2066 36.2284C22.0379 36.3337 22.0379 39.9755 22.2066 40.0807C22.2698 40.1228 22.3646 40.2913 22.3963 40.4491C22.4384 40.607 22.5017 40.7333 22.5438 40.7333C22.586 40.7333 22.6914 40.8491 22.7651 40.9965C22.8389 41.1438 22.9654 41.2596 23.0286 41.2596C23.1024 41.2596 23.25 41.3754 23.3554 41.5227C23.4608 41.6701 23.7032 41.8174 23.8929 41.849C24.0826 41.8806 24.2407 41.9543 24.2407 42.0069C24.2407 42.0595 24.6939 42.1016 25.2419 42.1016C25.8427 42.1016 26.2432 42.0595 26.2432 41.9964C26.2432 41.9332 26.3802 41.8911 26.5488 41.8911C26.7175 41.8911 26.9283 41.828 27.002 41.7543C27.0758 41.6911 27.3288 41.5333 27.5606 41.4175C28.0771 41.1543 28.5619 40.7438 28.5619 40.5544C28.5619 40.4807 28.604 40.4176 28.6673 40.4176C28.72 40.4176 28.7938 40.2492 28.8359 40.0492C28.8675 39.8492 28.9413 39.6808 28.9835 39.6808C29.0362 39.6808 29.0994 39.4387 29.1416 39.1545C29.1837 38.8598 29.2575 38.6282 29.3102 38.6282C29.3629 38.6282 29.405 38.5335 29.405 38.4177C29.405 38.302 29.4577 38.2072 29.5104 38.2072C29.5737 38.2072 29.5948 38.0914 29.5526 37.9441C29.5104 37.7862 29.5315 37.681 29.6053 37.681C29.6685 37.681 29.7212 37.5652 29.7212 37.4178C29.7212 37.2705 29.7739 37.1547 29.8372 37.1547C29.9109 37.1547 29.932 37.0389 29.9004 36.8389C29.8582 36.6705 29.8793 36.5021 29.932 36.4705C29.9953 36.439 30.0374 36.2705 30.0374 36.0916C30.0374 35.9232 30.0796 35.7864 30.1323 35.7864C30.185 35.7864 30.2587 35.5759 30.2904 35.3127C30.3325 35.0496 30.4063 34.8391 30.4485 34.8391C30.5012 34.8391 30.5644 34.6496 30.6066 34.4181C30.6382 34.1865 30.7119 33.9971 30.7646 33.9971C30.87 33.9971 31.0176 33.5971 30.9965 33.3866C30.986 33.3234 31.0281 33.2603 31.0914 33.2603C31.1441 33.2603 31.1968 33.1866 31.1968 33.0919C31.1968 33.0077 31.2495 32.9656 31.3022 32.9971C31.3654 33.0287 31.4076 32.9866 31.4076 32.9024C31.4076 32.7235 33.0096 31.0499 33.1782 31.0499C33.2414 31.0499 33.3047 31.0078 33.3257 30.9552C33.3468 30.9026 33.5049 30.8289 33.6841 30.7973L34.0214 30.7237L34.0635 31.4289C34.0846 31.8499 34.1584 32.1551 34.2321 32.1867C34.3059 32.2077 34.3586 32.2919 34.3586 32.3762C34.3586 32.4604 34.4008 32.5235 34.464 32.5235C34.5167 32.5235 34.5905 32.6393 34.6327 32.7866C34.6748 32.9445 34.8013 33.0814 34.9488 33.1129C35.0858 33.1445 35.2018 33.2182 35.2018 33.2603C35.2018 33.3866 35.9712 33.8392 36.1293 33.8076C36.1925 33.7866 36.2557 33.8287 36.2557 33.8918C36.2557 33.9444 36.4454 33.9971 36.6773 33.9971C36.9092 33.9971 37.0989 34.0392 37.0989 34.1023C37.0989 34.1549 37.3624 34.2076 37.6786 34.2076C37.9948 34.2076 38.2582 34.1549 38.2582 34.1023C38.2582 34.0392 38.3847 33.9971 38.5428 33.9971C38.859 33.9971 39.6284 33.6813 39.6284 33.555C39.6284 33.5129 39.6811 33.4708 39.7443 33.4708C39.9024 33.4708 40.4715 32.9235 40.4715 32.7551C40.4715 32.6814 40.5348 32.5972 40.6191 32.5656C40.7034 32.534 40.8088 32.3551 40.851 32.1762C40.8826 31.9867 40.9774 31.8078 41.0407 31.7657C41.1988 31.6604 41.2093 26.8608 41.0407 26.7556C40.9774 26.7135 40.8931 26.5451 40.851 26.3767C40.8088 26.1977 40.6823 25.9872 40.5769 25.8925C40.461 25.7872 40.3978 25.682 40.4399 25.6504C40.4715 25.6083 40.3978 25.4925 40.2818 25.3768C40.1554 25.2715 40.05 25.1452 40.05 25.0926C40.05 24.9873 39.6705 24.6295 39.5546 24.6295C39.523 24.6295 39.3544 24.4821 39.1857 24.3137C39.0276 24.1348 38.8168 23.9979 38.7325 23.9979C38.6482 23.9979 38.5744 23.9558 38.5744 23.9032C38.5744 23.8506 38.4374 23.7769 38.2582 23.7348C38.0896 23.6927 37.9421 23.619 37.9421 23.5664C37.9421 23.5138 37.8472 23.4717 37.7313 23.4717C37.6153 23.4717 37.5205 23.4296 37.5205 23.3769C37.5205 23.3243 37.4256 23.3033 37.3097 23.3348C37.1938 23.3664 37.0989 23.3348 37.0989 23.2717C37.0989 23.2085 36.983 23.1559 36.8354 23.1559C36.6879 23.1559 36.5719 23.1033 36.5719 23.0506C36.5719 22.9875 36.0239 22.9454 35.1491 22.9454C34.2743 22.9454 33.7263 22.9875 33.7263 23.0506Z" fill="white"/>
<path d="M9.16797 27.4187C9.16797 27.4503 9.18905 27.4713 9.22067 27.4713C9.25228 27.4713 9.27336 27.4503 9.27336 27.4187C9.27336 27.3871 9.25228 27.3661 9.22067 27.3661C9.18905 27.3661 9.16797 27.3871 9.16797 27.4187Z" fill="white"/>
<path d="M43.8438 29.208C43.8438 29.2396 43.8648 29.2606 43.8964 29.2606C43.9281 29.2606 43.9491 29.2396 43.9491 29.208C43.9491 29.1764 43.9281 29.1554 43.8964 29.1554C43.8648 29.1554 43.8438 29.1764 43.8438 29.208Z" fill="white"/>
<path d="M70.1934 30.3658C70.1934 30.3974 70.2144 30.4184 70.2461 30.4184C70.2777 30.4184 70.2988 30.3974 70.2988 30.3658C70.2988 30.3342 70.2777 30.3132 70.2461 30.3132C70.2144 30.3132 70.1934 30.3342 70.1934 30.3658Z" fill="white"/>
<path d="M33.0938 31.2078C33.0938 31.2394 33.1148 31.2605 33.1464 31.2605C33.1781 31.2605 33.1991 31.2394 33.1991 31.2078C33.1991 31.1763 33.1781 31.1552 33.1464 31.1552C33.1148 31.1552 33.0938 31.1763 33.0938 31.2078Z" fill="white"/>
<path d="M22.7656 33.4182C22.7656 33.4497 22.7867 33.4708 22.8183 33.4708C22.8499 33.4708 22.871 33.4497 22.871 33.4182C22.871 33.3866 22.8499 33.3655 22.8183 33.3655C22.7867 33.3655 22.7656 33.3866 22.7656 33.4182Z" fill="white"/>
<path d="M49.7461 34.997C49.7461 35.0286 49.7672 35.0496 49.7988 35.0496C49.8304 35.0496 49.8515 35.0286 49.8515 34.997C49.8515 34.9654 49.8304 34.9444 49.7988 34.9444C49.7672 34.9444 49.7461 34.9654 49.7461 34.997Z" fill="white"/>
<path d="M62.9198 36.1021C62.8355 36.1653 62.3401 36.2074 61.8132 36.2074C60.3587 36.2074 58.6619 36.3126 58.5986 36.4179C58.567 36.4705 57.9135 36.5442 57.1547 36.5863C56.3853 36.6284 55.7846 36.6916 55.8056 36.7442C55.8373 36.7863 55.2892 36.8494 54.5936 36.8915C53.898 36.9336 53.3289 37.0073 53.3289 37.0599C53.3289 37.1126 53.0443 37.1547 52.707 37.1547C52.3592 37.1547 52.043 37.2073 52.0114 37.2599C51.9693 37.3231 51.769 37.3336 51.5266 37.302C51.2526 37.2599 51.1156 37.2705 51.1156 37.3547C51.1156 37.4178 50.9258 37.4704 50.6413 37.4704C50.3778 37.4704 50.167 37.5125 50.167 37.5652C50.167 37.6178 49.7876 37.6915 49.3238 37.7336C48.8601 37.7757 48.4807 37.8494 48.4807 37.8915C48.4807 37.9336 48.0591 38.0072 47.5321 38.0388C47.0157 38.0809 46.5625 38.1651 46.5309 38.2177C46.4887 38.2704 46.3306 38.3125 46.162 38.3125C45.9933 38.3125 45.8247 38.3546 45.7931 38.4177C45.7615 38.4704 45.5928 38.4914 45.4242 38.4493C45.224 38.4177 45.108 38.4388 45.108 38.5125C45.108 38.5756 44.9394 38.6282 44.7391 38.6282C44.5389 38.6282 44.3703 38.6703 44.3703 38.723C44.3703 38.7756 44.0646 38.8598 43.6852 38.8914C43.3058 38.9335 43.0001 39.0071 43.0001 39.0493C43.0001 39.0914 42.6734 39.165 42.2624 39.1966C41.8619 39.2387 41.5246 39.3124 41.5246 39.365C41.5246 39.4176 41.2611 39.4913 40.9449 39.5229C40.6287 39.565 40.3652 39.6387 40.3652 39.6913C40.3652 39.7439 40.2493 39.786 40.1018 39.786C39.9542 39.786 39.8383 39.8387 39.8383 39.8913C39.8383 39.9544 39.7118 39.9965 39.5537 39.9965C39.1005 39.9965 38.4681 40.1123 38.4681 40.207C38.4681 40.2491 38.2573 40.3228 37.9938 40.3544C37.7304 40.3965 37.5196 40.4702 37.5196 40.5228C37.5196 40.5649 37.2772 40.6386 36.9926 40.6807C36.6975 40.7228 36.4972 40.7965 36.5289 40.8491C36.5605 40.9017 36.434 40.9438 36.2654 40.9438C36.0862 40.9438 35.9386 40.9965 35.9386 41.0596C35.9386 41.1333 35.8332 41.1543 35.6751 41.1122C35.5276 41.0701 35.4117 41.0912 35.4117 41.1543C35.4117 41.207 35.2957 41.2596 35.1482 41.2596C35.0006 41.2596 34.8847 41.3017 34.8847 41.3648C34.8847 41.4175 34.695 41.5017 34.4631 41.5332C34.2312 41.5753 34.0415 41.6385 34.0415 41.6911C34.0415 41.7332 33.8729 41.8069 33.6726 41.849C33.4724 41.8806 33.3038 41.9543 33.3038 42.0069C33.3038 42.0595 33.2089 42.1016 33.1035 42.1016C32.9876 42.1016 32.8716 42.1437 32.84 42.1963C32.8084 42.249 32.6819 42.27 32.566 42.2384C32.4501 42.2069 32.3552 42.2384 32.3552 42.3016C32.3552 42.3648 32.2814 42.4174 32.1971 42.4174C32.1128 42.4174 32.039 42.4595 32.039 42.5226C32.039 42.5753 31.8704 42.6489 31.6701 42.691C31.4699 42.7226 31.3012 42.7963 31.3012 42.8489C31.3012 42.891 31.1326 42.9647 30.9324 43.0068C30.7321 43.0384 30.5635 43.1121 30.5635 43.1542C30.5635 43.1963 30.4159 43.2594 30.2368 43.3015C30.0576 43.3331 29.7836 43.4594 29.6255 43.5646C29.4674 43.6804 29.2144 43.8067 29.0563 43.8383C28.8982 43.8804 28.7718 43.9541 28.7718 44.0067C28.7718 44.0593 28.5821 44.133 28.3502 44.1646C28.1183 44.2067 27.9286 44.2699 27.9286 44.3225C27.9286 44.3646 27.8232 44.4383 27.6967 44.4804C27.5597 44.5225 27.2857 44.6593 27.0854 44.7961C26.8852 44.933 26.6322 45.0487 26.5374 45.0487C26.432 45.0487 26.3477 45.0908 26.3477 45.154C26.3477 45.2066 26.2528 45.2592 26.1474 45.2592C26.0315 45.2592 25.8734 45.3329 25.7891 45.4171C25.7048 45.4908 25.5045 45.5961 25.3359 45.6382C25.1672 45.6803 24.967 45.775 24.8932 45.8592C24.8194 45.9329 24.6824 45.996 24.5981 45.996C24.5138 45.996 24.4506 46.0381 24.4506 46.1013C24.4506 46.1539 24.3557 46.2065 24.2398 46.2065C24.1238 46.2065 24.029 46.2486 24.029 46.3013C24.029 46.3539 23.913 46.4276 23.7655 46.4591C23.6179 46.5012 23.502 46.5644 23.502 46.617C23.502 46.6696 23.365 46.7433 23.1858 46.7854C23.0172 46.8275 22.8696 46.9012 22.8696 46.9538C22.8696 47.0065 22.7537 47.0696 22.6061 47.1117C22.4586 47.1433 22.3427 47.217 22.3427 47.2696C22.3427 47.3222 22.2689 47.3643 22.1846 47.3643C22.1002 47.3643 22.0265 47.4064 22.0265 47.459C22.0265 47.5117 21.9105 47.5854 21.763 47.6169C21.6154 47.659 21.4995 47.7327 21.4995 47.7853C21.4995 47.8485 21.4363 47.8906 21.3625 47.8906C21.2782 47.8906 21.1095 47.9853 20.9725 48.1011C20.8355 48.2169 20.6879 48.3116 20.6247 48.3116C20.572 48.3116 20.4455 48.3958 20.3507 48.5011C20.2558 48.6063 19.9607 48.8695 19.6867 49.0694C19.0122 49.5852 18.6854 49.922 18.7276 50.0693C18.7487 50.1325 18.6749 50.2167 18.5695 50.2588C18.4536 50.2904 18.3271 50.4483 18.2849 50.6061C18.2428 50.764 18.1585 50.9219 18.0952 50.964C17.9266 51.0693 17.9266 53.1322 18.0952 53.2375C18.1585 53.2796 18.2533 53.448 18.2849 53.6059C18.3271 53.7638 18.4009 53.8901 18.443 53.8901C18.4957 53.8901 18.5695 53.9953 18.6011 54.1111C18.7276 54.5111 20.024 55.5741 20.3823 55.5741C20.4772 55.5741 20.5509 55.6162 20.5509 55.6794C20.5509 55.8162 21.9948 55.8162 22.0792 55.6794C22.1108 55.6268 22.2794 55.5741 22.4586 55.5741C22.6272 55.5741 22.7642 55.532 22.7642 55.4794C22.7642 55.4268 22.9118 55.3531 23.0804 55.311C23.2596 55.2689 23.3966 55.2057 23.3966 55.1531C23.3966 55.1005 23.502 55.0268 23.6285 54.9847C23.7549 54.9531 23.9236 54.8584 23.9974 54.7953C24.3346 54.49 24.4506 54.4163 24.5454 54.4163C24.6087 54.4163 24.8405 54.2269 25.0724 54.0059C25.3043 53.7743 25.5888 53.5638 25.7153 53.5217C25.8312 53.4901 25.9261 53.4059 25.9261 53.3533C25.9261 53.2901 25.9682 53.2691 26.0209 53.3006C26.0736 53.3428 26.2317 53.227 26.3688 53.0586C26.5163 52.8902 26.7271 52.7218 26.843 52.6902C26.9695 52.6481 27.096 52.5533 27.1276 52.4691C27.1592 52.3849 27.2541 52.3113 27.3489 52.3113C27.4332 52.3113 27.507 52.2692 27.507 52.206C27.507 52.1534 27.6124 52.0797 27.7494 52.0481C27.8864 52.006 28.0762 51.8692 28.1815 51.7218C28.2975 51.585 28.445 51.4692 28.5188 51.4692C28.6031 51.4692 28.6664 51.4166 28.6664 51.364C28.6664 51.3008 28.7612 51.2587 28.8772 51.2587C28.9931 51.2587 29.1196 51.185 29.1512 51.1008C29.1933 51.0166 29.2777 50.943 29.3514 50.943C29.4358 50.943 29.5622 50.8798 29.636 50.7956C29.7203 50.7219 29.889 50.6167 30.0154 50.5851C30.1419 50.543 30.2473 50.4588 30.2473 50.4062C30.2473 50.3535 30.3211 50.3114 30.4054 50.3114C30.4897 50.3114 30.5635 50.2693 30.5635 50.2167C30.5635 50.1641 30.7005 50.0904 30.8691 50.0483C31.0378 50.0167 31.2064 49.9115 31.238 49.8273C31.2696 49.7431 31.3645 49.6799 31.4593 49.6799C31.5437 49.6799 31.6174 49.6273 31.6174 49.5747C31.6174 49.5115 31.7017 49.4694 31.8071 49.4694C31.902 49.4694 32.1971 49.322 32.4606 49.1536C32.7241 48.9852 32.977 48.8379 33.0192 48.8379C33.0719 48.8379 33.1773 48.7642 33.2616 48.68C33.3565 48.5958 33.5145 48.5221 33.6305 48.5221C33.7359 48.5221 33.8307 48.48 33.8307 48.4274C33.8307 48.3748 33.9677 48.3011 34.1469 48.259C34.3261 48.2169 34.4631 48.1432 34.4631 48.0906C34.4631 48.0379 34.5369 47.9958 34.6212 47.9958C34.7055 47.9958 34.7793 47.9432 34.7793 47.8801C34.7793 47.8169 34.8531 47.7853 34.9374 47.8274C35.0217 47.859 35.0955 47.838 35.0955 47.7853C35.0955 47.7222 35.1693 47.6801 35.2536 47.6801C35.3379 47.6801 35.4117 47.638 35.4117 47.5854C35.4117 47.5327 35.5803 47.459 35.7805 47.4275C35.9808 47.3854 36.1494 47.3117 36.1494 47.2591C36.1494 47.217 36.297 47.1433 36.4656 47.1012C36.6448 47.0591 36.7818 46.9959 36.7818 46.9433C36.7818 46.8907 36.9188 46.8275 37.098 46.7854C37.2772 46.7433 37.4142 46.6696 37.4142 46.617C37.4142 46.5644 37.509 46.5223 37.625 46.5223C37.7409 46.5223 37.8358 46.4802 37.8358 46.4276C37.8358 46.3749 38.0044 46.3013 38.2046 46.2697C38.4049 46.2276 38.5735 46.1539 38.5735 46.1013C38.5735 46.0592 38.7632 45.9855 38.9951 45.9434C39.227 45.9013 39.4167 45.8276 39.4167 45.7855C39.4167 45.7329 39.5642 45.6697 39.7329 45.6276C39.912 45.5855 40.0491 45.5118 40.0491 45.4592C40.0491 45.4066 40.165 45.3645 40.3125 45.3645C40.4601 45.3645 40.576 45.3119 40.576 45.2487C40.576 45.175 40.6814 45.154 40.8501 45.1961C41.0292 45.2487 41.0925 45.2277 41.0503 45.154C41.0187 45.0908 41.0819 45.0487 41.1979 45.0487C41.3243 45.0487 41.4192 45.0066 41.4192 44.9435C41.4192 44.8909 41.5878 44.8172 41.7881 44.7751C41.9883 44.7435 42.157 44.6698 42.157 44.6172C42.157 44.5751 42.3677 44.5014 42.6312 44.4593C42.8947 44.4277 43.1055 44.3541 43.1055 44.3014C43.1055 44.2593 43.3163 44.1856 43.5798 44.1435C43.8433 44.112 44.0541 44.0383 44.0541 43.9857C44.0541 43.933 44.1278 43.8909 44.2122 43.8909C44.2965 43.8909 44.3703 43.8488 44.3703 43.7962C44.3703 43.7436 44.581 43.6699 44.8445 43.6383C45.108 43.5962 45.3188 43.5225 45.3188 43.4699C45.3188 43.4278 45.5612 43.3541 45.8458 43.312C46.1409 43.2699 46.3728 43.1963 46.3728 43.1542C46.3728 43.1015 46.5836 43.0279 46.847 42.9858C47.1105 42.9542 47.3213 42.8805 47.3213 42.8279C47.3213 42.7752 47.4373 42.7331 47.5848 42.7331C47.7324 42.7331 47.8483 42.6805 47.8483 42.6174C47.8483 42.5437 47.9537 42.5226 48.1223 42.5647C48.3015 42.6174 48.3647 42.5963 48.3226 42.5226C48.2804 42.4595 48.3858 42.4174 48.5755 42.4174C48.7547 42.4174 48.9023 42.3753 48.9023 42.3227C48.9023 42.27 49.1657 42.1963 49.4819 42.1542C49.7981 42.1227 50.0616 42.049 50.0616 41.9964C50.0616 41.9543 50.304 41.8806 50.5886 41.8385C50.8837 41.7964 51.1156 41.7227 51.1156 41.6701C51.1156 41.6174 51.2315 41.5753 51.3685 41.5753C51.5161 41.5753 51.6636 41.5227 51.6952 41.4701C51.7374 41.4069 51.8533 41.3859 51.9587 41.4175C52.0641 41.449 52.18 41.428 52.2222 41.3648C52.2538 41.3122 52.4225 41.2596 52.6016 41.2596C52.7703 41.2596 52.9073 41.2175 52.9073 41.1649C52.9073 41.1228 53.2445 41.0386 53.645 41.007C54.0561 40.9649 54.3828 40.8912 54.3828 40.8386C54.3828 40.7965 54.6674 40.7228 55.0152 40.6807C55.363 40.6386 55.6475 40.5649 55.6475 40.5228C55.6475 40.4702 56.0059 40.407 56.438 40.3649C56.8701 40.3228 57.2285 40.2491 57.2285 40.1965C57.2285 40.1439 57.4393 40.1018 57.7028 40.1018C57.9662 40.1018 58.177 40.0597 58.177 40.0071C58.177 39.9544 58.5143 39.8808 58.9148 39.8387C59.3258 39.7966 59.6526 39.7229 59.6526 39.6808C59.6526 39.6387 60.032 39.565 60.4957 39.5229C60.9595 39.4808 61.3705 39.4071 61.4021 39.3545C61.4337 39.3019 61.7078 39.2598 62.024 39.2598C62.3401 39.2598 62.6142 39.2177 62.6458 39.165C62.6774 39.1124 62.9198 39.1019 63.1833 39.1335C63.4995 39.165 63.6576 39.144 63.6576 39.0598C63.6576 38.9861 63.8578 38.944 64.1846 38.944C64.4797 38.944 64.7115 38.8914 64.7115 38.8387C64.7115 38.7756 64.8907 38.723 65.112 38.723C65.7655 38.723 66.6087 38.6177 66.6087 38.523C66.6087 38.4809 66.9459 38.4072 67.3464 38.3651C67.7575 38.323 68.0842 38.2598 68.0842 38.2072C68.0842 38.1651 68.2739 38.102 68.5058 38.0599C68.7376 38.0283 68.9273 37.9441 68.9273 37.8915C68.9273 37.8283 68.98 37.7862 69.0433 37.7862C69.507 37.7862 69.6651 36.7863 69.2541 36.4284C69.1171 36.3021 68.9379 36.2074 68.8536 36.2074C68.7798 36.2074 68.7166 36.1548 68.7166 36.1021C68.7166 35.9548 63.1306 35.9653 62.9198 36.1021Z" fill="white"/>
<path d="M59.7578 36.1548C59.7578 36.1863 59.7789 36.2074 59.8105 36.2074C59.8421 36.2074 59.8632 36.1863 59.8632 36.1548C59.8632 36.1232 59.8421 36.1021 59.8105 36.1021C59.7789 36.1021 59.7578 36.1232 59.7578 36.1548Z" fill="white"/>
<path d="M57.6504 40.2597C57.6504 40.2913 57.6715 40.3123 57.7031 40.3123C57.7347 40.3123 57.7558 40.2913 57.7558 40.2597C57.7558 40.2281 57.7347 40.207 57.7031 40.207C57.6715 40.207 57.6504 40.2281 57.6504 40.2597Z" fill="white"/>
<path d="M37.0977 40.4702C37.0977 40.5018 37.1187 40.5228 37.1504 40.5228C37.182 40.5228 37.2031 40.5018 37.2031 40.4702C37.2031 40.4386 37.182 40.4176 37.1504 40.4176C37.1187 40.4176 37.0977 40.4386 37.0977 40.4702Z" fill="white"/>
<path d="M11.0664 40.6807C11.0664 40.7123 11.0875 40.7333 11.1191 40.7333C11.1507 40.7333 11.1718 40.7123 11.1718 40.6807C11.1718 40.6491 11.1507 40.6281 11.1191 40.6281C11.0875 40.6281 11.0664 40.6491 11.0664 40.6807Z" fill="white"/>
<path d="M27.8242 41.4175C27.8242 41.449 27.8453 41.4701 27.8769 41.4701C27.9085 41.4701 27.9296 41.449 27.9296 41.4175C27.9296 41.3859 27.9085 41.3648 27.8769 41.3648C27.8453 41.3648 27.8242 41.3859 27.8242 41.4175Z" fill="white"/>
<path d="M26.5586 44.8909C26.5586 44.9224 26.5797 44.9435 26.6113 44.9435C26.6429 44.9435 26.664 44.9224 26.664 44.8909C26.664 44.8593 26.6429 44.8382 26.6113 44.8382C26.5797 44.8382 26.5586 44.8593 26.5586 44.8909Z" fill="white"/>
<path d="M18.6543 54.5742C18.6543 54.6058 18.6754 54.6268 18.707 54.6268C18.7386 54.6268 18.7597 54.6058 18.7597 54.5742C18.7597 54.5426 18.7386 54.5216 18.707 54.5216C18.6754 54.5216 18.6543 54.5426 18.6543 54.5742Z" fill="white"/>
</svg>
