<svg width="21" height="21" viewBox="0 0 21 21" fill="none" xmlns="http://www.w3.org/2000/svg">
<path fill-rule="evenodd" clip-rule="evenodd" d="M17.7334 2.95932C15.7821 1.05198 13.187 0.00125335 10.4222 0.00012207C4.72535 0.00012207 0.0889914 4.52636 0.086674 10.0898C0.0859787 11.8681 0.561758 13.604 1.46627 15.1344L0 20.3631L5.479 18.9599C6.98861 19.7638 8.68825 20.1875 10.418 20.188H10.4222C10.422 20.188 10.4224 20.188 10.4222 20.188C16.1183 20.188 20.7552 15.6613 20.7575 10.0977C20.7586 7.40162 19.6847 4.86665 17.7334 2.95932ZM6.225 10.457C6.09591 10.2886 5.17054 9.08994 5.17054 7.84893C5.17054 6.60791 5.83775 5.99793 6.07436 5.74566C6.31098 5.49338 6.59093 5.43026 6.76312 5.43026C6.93531 5.43026 7.10773 5.43184 7.25813 5.43908C7.41665 5.447 7.62963 5.38025 7.83913 5.87191C8.05442 6.37668 8.57076 7.61792 8.63542 7.74395C8.70007 7.8702 8.74295 8.01726 8.65697 8.1856C8.57099 8.3537 8.52788 8.45891 8.3988 8.6062C8.26972 8.7535 8.12765 8.93495 8.01132 9.04786C7.882 9.17365 7.74735 9.31009 7.89799 9.56236C8.04863 9.81486 8.56682 10.6405 9.3346 11.3091C10.3209 12.1681 11.1531 12.4342 11.4113 12.5605C11.6695 12.6867 11.8201 12.6657 11.9707 12.4973C12.1214 12.329 12.6164 11.7611 12.7886 11.5088C12.9608 11.2566 13.133 11.2986 13.3696 11.3826C13.6064 11.4668 14.8759 12.0767 15.1341 12.2028C15.3923 12.329 15.5645 12.3921 15.6291 12.4973C15.6938 12.6026 15.6938 13.1073 15.4785 13.6963C15.2632 14.2852 14.2314 14.8228 13.7353 14.895C13.2903 14.9599 12.7274 14.9871 12.1086 14.795C11.7337 14.6789 11.2526 14.5237 10.6363 14.264C8.04608 13.1718 6.35431 10.6253 6.225 10.457Z" fill="black"/>
</svg>
