<svg width="39" height="39" viewBox="0 0 39 39" fill="none" xmlns="http://www.w3.org/2000/svg">
<path fill-rule="evenodd" clip-rule="evenodd" d="M33.2408 5.54694C29.5831 1.97169 24.7186 0.00212055 19.5361 0C8.85755 0 0.166812 8.48433 0.162468 18.9128C0.161165 22.2463 1.053 25.5001 2.74849 28.3687L0 38.1699L10.2702 35.5396C13.1 37.0465 16.2859 37.8408 19.5283 37.8417H19.5361C19.5357 37.8417 19.5366 37.8417 19.5361 37.8417C30.2134 37.8417 38.905 29.3565 38.9094 18.9276C38.9116 13.8739 36.8985 9.12219 33.2408 5.54694ZM11.6686 19.6011C11.4266 19.2856 9.69205 17.0386 9.69205 14.7124C9.69205 12.3861 10.9427 11.2427 11.3862 10.7699C11.8298 10.297 12.3545 10.1786 12.6773 10.1786C13.0001 10.1786 13.3233 10.1816 13.6052 10.1952C13.9023 10.21 14.3015 10.0849 14.6942 11.0065C15.0978 11.9527 16.0657 14.2794 16.1869 14.5156C16.3081 14.7523 16.3884 15.0279 16.2273 15.3435C16.0661 15.6586 15.9853 15.8558 15.7433 16.1319C15.5014 16.408 15.2351 16.7481 15.017 16.9597C14.7746 17.1955 14.5222 17.4513 14.8046 17.9242C15.0869 18.3975 16.0583 19.9451 17.4975 21.1983C19.3463 22.8086 20.9063 23.3074 21.3902 23.5441C21.8741 23.7807 22.1565 23.7413 22.4388 23.4257C22.7212 23.1102 23.6491 22.0457 23.9719 21.5728C24.2946 21.0999 24.6174 21.1788 25.0609 21.3361C25.5049 21.4939 27.8846 22.6373 28.3685 22.8735C28.8524 23.1102 29.1752 23.2285 29.2964 23.4257C29.4176 23.6229 29.4176 24.5691 29.014 25.6731C28.6105 26.777 26.6765 27.7847 25.7464 27.92C24.9124 28.0417 23.8572 28.0926 22.6973 27.7326C21.9944 27.515 21.0926 27.2241 19.9375 26.7372C15.0822 24.69 11.911 19.9166 11.6686 19.6011Z" fill="white"/>
</svg>
